<svg width="199" height="425" viewBox="0 0 199 425" fill="none" xmlns="http://www.w3.org/2000/svg">
<path d="M35.0182 305.516C36.9309 300.576 46.6043 293.915 46.6043 293.915L49.6936 298.774C49.6936 298.774 40.0169 305.436 38.1075 310.375L35.0182 305.516Z" fill="url(#paint0_linear_442_7546)"/>
<path d="M78.7539 376.429C80.4802 375.699 82.3468 375.359 84.2201 375.434C86.0934 375.509 87.9272 375.997 89.5904 376.863L90.3297 385.986C88.6666 385.12 86.8328 384.632 84.9595 384.557C83.0862 384.482 81.2196 384.822 79.4932 385.552L78.7539 376.429Z" fill="url(#paint1_linear_442_7546)"/>
<path d="M-4.53234 351.692C2.45431 352.296 11.3227 359.304 11.3227 359.304L10.615 363.959C10.615 363.959 1.74406 356.938 -5.23941 356.351L-4.53234 351.692Z" fill="url(#paint2_linear_442_7546)"/>
<path d="M17.098 148.798C21.5964 149.438 25.7217 151.655 28.7377 155.054L27.0699 164.359C24.0538 160.961 19.9287 158.745 15.4309 158.106L17.098 148.798Z" fill="url(#paint3_linear_442_7546)"/>
<path d="M-8.88662 291.187C-8.52136 286.352 -6.65061 281.754 -3.53713 278.039L2.50656 283.679C-0.606919 287.395 -2.47767 291.993 -2.84292 296.827L-8.88662 291.187Z" fill="url(#paint4_linear_442_7546)"/>
<path d="M11.6469 218.812C15.685 219.083 19.4814 220.835 22.3067 223.733L21.1253 232.325C18.2963 229.425 14.4948 227.673 10.4525 227.407L11.6469 218.812Z" fill="url(#paint5_linear_442_7546)"/>
<path d="M52.0299 161.161C52.6616 158.866 54.141 156.898 56.169 155.653L58.8639 159.62C56.8369 160.865 55.3587 162.834 54.728 165.127L52.0299 161.161Z" fill="url(#paint6_linear_442_7546)"/>
<path d="M128.142 190.076C129.905 192.535 131.081 195.365 131.579 198.349L128.34 200.54C127.848 197.557 126.677 194.725 124.919 192.265L128.142 190.076Z" fill="url(#paint7_linear_442_7546)"/>
<path d="M35.3112 410.102C38.0228 413.851 39.8366 418.173 40.6125 422.733L35.6907 426.138C34.9158 421.577 33.1032 417.255 30.3926 413.506L35.3112 410.102Z" fill="url(#paint8_linear_442_7546)"/>
<path d="M143.798 425.759C143.254 426.388 142.571 426.882 141.804 427.203C141.036 427.525 140.205 427.664 139.375 427.61L138.212 423.712C139.042 423.766 139.874 423.627 140.641 423.306C141.408 422.984 142.091 422.49 142.635 421.861L143.798 425.759Z" fill="url(#paint9_linear_442_7546)"/>
<path d="M121.866 385.064C116.713 390.549 114.004 387.229 114.004 387.229L113.034 383.762C113.034 383.762 115.736 387.07 120.896 381.598L121.866 385.064Z" fill="url(#paint10_linear_442_7546)"/>
<path d="M121.165 349.281C118.318 346.475 116.205 343.011 115.014 339.195L118.779 334.854C119.97 338.67 122.083 342.133 124.93 344.94L121.165 349.281Z" fill="url(#paint11_linear_442_7546)"/>
<path d="M128.27 294.566C122.002 292.964 113.71 284.343 113.71 284.343L115.461 282.182C115.461 282.182 123.752 290.8 130.019 292.403L128.27 294.566Z" fill="url(#paint12_linear_442_7546)"/>
<path d="M53.4185 70.5901C54.6646 69.553 56.1344 68.8192 57.7123 68.4462C59.2902 68.0733 60.9333 68.0713 62.5124 68.4406L64.2151 76.3169C62.636 75.9474 60.9929 75.9491 59.4149 76.3221C57.8369 76.6951 56.3672 77.4291 55.1212 78.4664L53.4185 70.5901Z" fill="url(#paint13_linear_442_7546)"/>
<path d="M87.6772 95.1158C88.1842 94.5629 88.8126 94.1351 89.5129 93.866C90.2132 93.5968 90.9665 93.4936 91.7135 93.5645L92.7154 97.1065C91.9683 97.0354 91.215 97.1385 90.5146 97.4076C89.8143 97.6768 89.186 98.1048 88.6791 98.6579L87.6772 95.1158Z" fill="url(#paint14_linear_442_7546)"/>
<path d="M90.065 239.353C92.5485 240.627 94.6047 242.6 95.98 245.028L94.0703 249.546C92.6952 247.118 90.6389 245.145 88.1554 243.871L90.065 239.353Z" fill="url(#paint15_linear_442_7546)"/>
<path d="M65.4326 334.941C66.5688 333.744 67.9675 332.826 69.5187 332.261C71.07 331.696 72.7314 331.498 74.3722 331.684L76.5154 339.519C74.8745 339.333 73.2131 339.531 71.6619 340.096C70.1107 340.661 68.712 341.578 67.5758 342.776L65.4326 334.941Z" fill="url(#paint16_linear_442_7546)"/>
<path d="M85.6937 421.184C86.139 416.206 88.1554 411.499 91.4517 407.743L97.6558 413.753C94.3596 417.509 92.3432 422.216 91.8979 427.194L85.6937 421.184Z" fill="url(#paint17_linear_442_7546)"/>
<path d="M46.2561 259.084C48.0881 259.917 49.9696 260.636 51.89 261.237C53.747 261.863 55.6427 262.368 57.5652 262.748C57.3287 262.702 60.1289 263.16 59.9559 262.725C57.775 255.624 58.3459 247.963 61.5549 241.266C62.7875 238.243 64.7803 235.591 67.3402 233.566C68.3492 232.837 69.4765 232.287 70.6725 231.941C71.2195 231.78 71.7785 231.664 72.3441 231.592C72.5471 231.553 72.7551 231.557 72.9605 231.547C73.2427 231.618 73.5261 231.696 73.8044 231.764C75.0037 232.175 76.2699 232.356 77.5362 232.296C78.5391 232.125 76.7025 231.137 76.7866 231.185C75.2628 230.374 73.676 229.687 72.0417 229.131C63.6144 225.977 54.8918 223.489 48.4971 231.164C45.7197 234.895 43.8622 239.229 43.0755 243.813C42.2889 248.397 42.5952 253.103 43.9697 257.547C44.2866 258.372 45.8118 258.878 46.2561 259.084Z" fill="url(#paint18_linear_442_7546)"/>
<path d="M14.6969 253.793C14.0534 253.519 13.5091 253.055 13.1368 252.462L13.5794 251.245C13.9513 251.838 14.4958 252.302 15.1395 252.576L14.6969 253.793Z" fill="url(#paint19_linear_442_7546)"/>
<path d="M16.2474 270.926C16.0281 271.048 15.7839 271.119 15.5332 271.133C15.2825 271.148 15.0317 271.106 14.7996 271.01L14.6379 269.778C14.871 269.872 15.1225 269.913 15.3734 269.896C15.6244 269.88 15.8684 269.807 16.0871 269.683L16.2474 270.926Z" fill="url(#paint20_linear_442_7546)"/>
<path d="M6.2325 278.614C6.07384 279.575 5.5897 280.452 4.86119 281.098L3.68719 279.726C4.41592 279.08 4.90011 278.203 5.0585 277.242L6.2325 278.614Z" fill="url(#paint21_linear_442_7546)"/>
<path d="M3.81551 402.923C3.55227 403.38 3.19117 403.773 2.75811 404.074C2.32505 404.374 1.83076 404.576 1.31067 404.663L0.359734 402.395C0.879648 402.308 1.37388 402.107 1.80704 401.807C2.24019 401.507 2.60154 401.115 2.86521 400.658L3.81551 402.923Z" fill="url(#paint22_linear_442_7546)"/>
<path d="M15.5351 405.832C15.1934 405.949 14.8302 405.99 14.4709 405.952C14.1116 405.915 13.7647 405.799 13.4545 405.614L13.3757 403.901C13.6867 404.083 14.0336 404.196 14.3924 404.231C14.7512 404.267 15.1134 404.224 15.4539 404.105L15.5351 405.832Z" fill="url(#paint23_linear_442_7546)"/>
<path d="M100.189 358.298C100.272 359.137 100.133 359.984 99.787 360.753L98.7088 360.205C99.0551 359.436 99.1937 358.589 99.1107 357.75L100.189 358.298Z" fill="url(#paint24_linear_442_7546)"/>
<path d="M100.356 376.748C99.5412 376.704 98.7718 376.36 98.1972 375.781L98.4254 374.038C99 374.617 99.7694 374.962 100.584 375.005L100.356 376.748Z" fill="url(#paint25_linear_442_7546)"/>
<path d="M80.0878 354.317C79.8809 355.123 79.3835 355.824 78.691 356.286L77.7288 354.938C78.4213 354.476 78.9187 353.774 79.1255 352.968L80.0878 354.317Z" fill="url(#paint26_linear_442_7546)"/>
<path d="M67.8125 378.227C68.1137 379.34 68.1501 380.508 67.919 381.637L66.4793 381.448C66.7057 380.318 66.6648 379.151 66.3597 378.04L67.8125 378.227Z" fill="url(#paint27_linear_442_7546)"/>
<path d="M60.5022 363.502C60.2987 364.227 59.8266 364.847 59.1819 365.236L58.3311 363.971C58.9758 363.583 59.4482 362.964 59.652 362.24L60.5022 363.502Z" fill="url(#paint28_linear_442_7546)"/>
<path d="M58.3355 384.28C58.644 385.172 58.7453 386.122 58.6317 387.059L57.4754 387.069C57.5898 386.13 57.488 385.178 57.178 384.284L58.3355 384.28Z" fill="url(#paint29_linear_442_7546)"/>
<path d="M3.79482 311.112C3.44177 311.261 3.06015 311.33 2.6772 311.315C2.29425 311.299 1.91941 311.199 1.5794 311.022L1.43018 309.156C1.76995 309.334 2.14481 309.434 2.52791 309.45C2.91102 309.466 3.29291 309.398 3.64624 309.249L3.79482 311.112Z" fill="url(#paint30_linear_442_7546)"/>
<path d="M2.81325 290.819C2.06221 290.201 1.48284 289.4 1.13087 288.493L1.97631 287.269C2.32748 288.176 2.90698 288.978 3.65869 289.595L2.81325 290.819Z" fill="url(#paint31_linear_442_7546)"/>
<path d="M0.555884 106.16C3.84301 110.825 6.79812 115.715 9.39934 120.794C10.5556 123.143 11.1945 125.712 11.273 128.328C11.2866 130.64 10.7611 132.924 9.73801 134.998C9.33878 135.831 8.85797 136.623 8.30262 137.362C7.95104 137.563 7.57591 137.765 7.1444 137.991C6.22039 138.48 5.28683 138.919 4.32963 139.377C-0.780779 141.661 -5.29396 145.094 -8.85794 149.41C-10.2502 151.144 -11.2795 153.141 -11.8847 155.282C-12.4899 157.422 -12.6588 159.663 -12.3811 161.87C-12.2962 162.447 -12.1771 163.018 -12.0245 163.581C-11.9411 163.904 -9.03873 161.642 -8.89217 161.505C-8.18667 160.918 -7.51464 160.292 -6.87925 159.63C-6.83125 159.58 -6.08285 158.905 -6.15981 158.614C-6.71297 156.455 -6.79543 154.203 -6.4016 152.011C-6.00777 149.818 -5.14685 147.736 -3.87724 145.905L-3.73433 145.715C-3.45948 145.556 -3.18273 145.407 -2.90661 145.255C-1.12606 144.298 0.852438 142.63 2.63682 141.692C5.23921 140.562 7.67966 139.091 9.89399 137.318C11.9124 135.61 13.6432 133.59 15.0204 131.333C16.185 129.256 16.8781 126.947 17.0504 124.572C17.2227 122.196 16.87 119.811 16.0174 117.587C14.9781 115.052 13.7084 112.617 12.2242 110.314C10.6735 107.699 9.06645 105.148 7.40301 102.663C5.15259 99.2859 1.82206 94.5999 3.23032 90.0365L3.25286 89.9778C5.10353 89.4927 6.98732 89.144 8.88911 88.9344C12.9477 88.5381 16.939 87.6262 20.7665 86.2206C23.2931 85.084 25.6329 83.5716 27.7065 81.7347C30.106 79.9506 32.0487 77.6238 33.3759 74.9445C35.0398 69.6349 35.1848 63.9652 33.7947 58.5763C32.3757 52.8943 31.4934 47.0919 31.1592 41.2455C31.0583 36.2312 32.513 31.3093 35.3233 27.1561C35.43 27.0177 35.5386 26.8834 35.6491 26.7532C35.603 26.8131 36.2458 26.0667 35.794 26.1884C35.2576 26.4013 34.7617 26.7043 34.3276 27.0845C32.8657 28.0909 31.5401 29.2822 30.384 30.6287C27.3846 34.5728 25.6411 39.3279 25.3798 44.2765C25.2969 50.0739 26.0184 55.8551 27.5237 61.4549C29.0426 66.98 29.2177 72.7877 28.0345 78.3932C27.7535 79.2955 27.364 80.1604 26.8747 80.9689C25.5094 81.6042 24.0867 82.1079 22.6257 82.4732C18.682 83.5208 14.5904 83.8092 10.5906 84.5688C8.65157 84.9237 6.79858 85.6466 5.13184 86.6986C3.4239 87.8378 1.82841 89.1371 0.366965 90.5789C-0.651274 91.481 -1.50811 92.5503 -2.1667 93.7406C-4.26607 97.7724 -1.73847 102.679 0.555884 106.16Z" fill="url(#paint32_linear_442_7546)"/>
<path d="M-4.13056 146.246C-3.91087 145.63 -3.67081 144.995 -3.40484 144.407C-3.30957 144.198 -3.21176 144.003 -3.1094 143.813C-5.26504 145.419 -7.2038 147.297 -8.87743 149.4C-10.2693 151.136 -11.2978 153.135 -11.9016 155.277C-12.5054 157.419 -12.6723 159.661 -12.3923 161.869C-12.3073 162.447 -12.188 163.019 -12.035 163.583C-11.9516 163.906 -9.04914 161.644 -8.90258 161.507C-8.19705 160.92 -7.52499 160.294 -6.88958 159.632C-6.84158 159.582 -6.09314 158.907 -6.17011 158.616C-6.70578 156.525 -6.80109 154.346 -6.44999 152.216C-6.09889 150.087 -5.30905 148.054 -4.13056 146.246Z" fill="url(#paint33_linear_442_7546)"/>
<path d="M27.5401 61.457C29.0587 66.982 29.2338 72.7895 28.0509 78.3948C27.7686 79.2965 27.3779 80.1605 26.8872 80.9678L26.7437 81.033C26.3797 81.9211 25.9256 82.7696 25.3886 83.565C26.1776 82.9941 26.9524 82.3851 27.7162 81.7545C30.1213 79.9673 32.0677 77.6349 33.3957 74.9489C35.0596 69.6395 35.2047 63.9699 33.8145 58.5812C32.3957 52.8994 31.5134 47.0972 31.1792 41.251C31.0764 36.2363 32.5296 31.3135 35.339 27.1594C35.4457 27.0209 35.5543 26.8866 35.6648 26.7565C35.6188 26.8164 36.2615 26.07 35.8097 26.1917C35.2733 26.4045 34.7774 26.7076 34.3435 27.0878C32.8804 28.092 31.5534 29.2812 30.3956 30.6259C27.399 34.5671 25.6562 39.3182 25.3933 44.2629C25.3098 50.0657 26.0323 55.8523 27.5401 61.457Z" fill="url(#paint34_linear_442_7546)"/>
<path d="M0.547371 106.158C3.83292 110.823 6.7865 115.713 9.38629 120.792C10.5424 123.141 11.1812 125.709 11.2597 128.325C11.2742 130.637 10.7499 132.921 9.72817 134.994C9.39802 135.681 9.01277 136.34 8.57621 136.964C9.4506 136.93 10.3027 136.679 11.0563 136.234C12.5965 134.795 13.9267 133.147 15.0078 131.337C16.1729 129.259 16.8661 126.95 17.0383 124.574C17.2105 122.198 16.8574 119.813 16.004 117.588C14.9649 115.053 13.6953 112.619 12.2114 110.316C10.6609 107.7 9.05409 105.15 7.39089 102.665C5.26537 99.4745 2.18537 95.1137 3.0429 90.7933C2.56046 90.2543 2.28892 89.5592 2.27823 88.836C1.62601 89.394 0.986068 89.9802 0.356578 90.5677C-0.661519 91.4698 -1.51823 92.539 -2.17672 93.7293C-4.26343 97.7721 -1.7402 102.693 0.547371 106.158Z" fill="url(#paint35_linear_442_7546)"/>
<path d="M48.5577 381.043C48.7299 382.888 50.4883 392.709 49.8472 394.128C55.2479 382.186 59.7353 391.42 68.2728 394.864C75.312 397.695 70.6863 391.172 74.5324 401.474L73.8971 381.313C70.7019 366.954 74.1935 372.502 65.8534 368.677C57.4208 364.811 52.7115 356.253 47.4246 367.941C46.6789 369.591 48.3727 379.01 48.5577 381.043Z" fill="url(#paint36_linear_442_7546)"/>
<path d="M158.973 350.479C156.537 353.091 157.947 358.259 158.914 362.079C160.008 366.408 160.697 370.282 158.727 373.11C159.515 372.356 160.215 371.89 161.233 370.925C163.729 368.548 163.581 364.437 162.64 360.299C161.746 356.366 159.64 350.363 162.271 347.542C161.518 348.351 159.923 349.442 158.973 350.479Z" fill="url(#paint37_linear_442_7546)"/>
<path d="M184.154 352.657C179.667 349.899 174.85 347.718 169.818 346.167C168.899 345.716 167.89 345.482 166.867 345.481C165.844 345.48 164.834 345.712 163.915 346.161C162.271 347.217 160.794 348.513 159.533 350.005C160.47 348.726 162.082 348.403 163.026 347.112C163.196 346.845 163.4 346.602 163.633 346.389L160.383 349.099L160.728 348.829L160.481 349.012C163.227 347.409 166.94 349.168 169.898 350.265C173.644 351.681 177.247 353.451 180.657 355.551C180.922 355.707 182.214 354.298 182.403 354.132C182.591 353.966 183.942 352.525 184.154 352.657Z" fill="url(#paint38_linear_442_7546)"/>
<path d="M143.233 365.645C141.555 366.344 140.718 367.906 140.725 370.51C140.731 373.441 140.682 375.876 138.766 377.304C139.934 376.428 141.585 376.624 142.762 375.74C143.521 375.036 144.099 374.16 144.447 373.185C144.796 372.211 144.904 371.166 144.764 370.141C144.705 367.57 144.873 365.466 146.573 364.355L146.305 364.478L146.691 364.315C147.423 364.009 146.067 364.514 145.963 364.554C145.049 364.902 144.135 365.249 143.231 365.635L143.233 365.645Z" fill="url(#paint39_linear_442_7546)"/>
<path d="M160.134 371.816C159.654 372.118 159.1 372.281 158.533 372.289C157.966 372.297 157.407 372.148 156.919 371.859C154.071 370.422 151.184 365.89 148.657 364.424C147.927 364.035 147.094 363.881 146.273 363.985C145.453 364.088 144.684 364.443 144.074 365.001C144.007 364.958 143.58 365.24 142.795 365.847C142.594 365.981 142.395 366.119 142.195 366.259C143.651 366.298 145.05 366.838 146.155 367.787C148.15 369.309 150.064 371.848 151.983 373.47C152.553 374.099 153.316 374.523 154.151 374.674C154.987 374.826 155.849 374.697 156.604 374.308L156.564 374.35L156.696 374.257C156.735 374.232 156.776 374.217 156.818 374.189C158.089 373.518 159.261 372.677 160.303 371.688L160.134 371.816Z" fill="url(#paint40_linear_442_7546)"/>
<defs>
<linearGradient id="paint0_linear_442_7546" x1="-1362.13" y1="2710.07" x2="-1375.43" y2="2712.66" gradientUnits="userSpaceOnUse">
<stop stop-color="#F44274"/>
<stop offset="1" stop-color="#E51F9A"/>
</linearGradient>
<linearGradient id="paint1_linear_442_7546" x1="90.195" y1="379.97" x2="78.837" y2="382.18" gradientUnits="userSpaceOnUse">
<stop stop-color="#BE1E68"/>
<stop offset="1" stop-color="#B5188D"/>
</linearGradient>
<linearGradient id="paint2_linear_442_7546" x1="10.744" y1="356.33" x2="-4.65999" y2="359.328" gradientUnits="userSpaceOnUse">
<stop stop-color="#B4DF86"/>
<stop offset="1" stop-color="#84C743"/>
</linearGradient>
<linearGradient id="paint3_linear_442_7546" x1="28.7813" y1="155.278" x2="15.3877" y2="157.885" gradientUnits="userSpaceOnUse">
<stop stop-color="#B4DF86"/>
<stop offset="1" stop-color="#84C743"/>
</linearGradient>
<linearGradient id="paint4_linear_442_7546" x1="3.00308" y1="286.23" x2="-9.38208" y2="288.641" gradientUnits="userSpaceOnUse">
<stop stop-color="#6DD0E7"/>
<stop offset="1" stop-color="#01A7DB"/>
</linearGradient>
<linearGradient id="paint5_linear_442_7546" x1="22.4354" y1="224.394" x2="10.3248" y2="226.751" gradientUnits="userSpaceOnUse">
<stop stop-color="#B5188D"/>
<stop offset="1" stop-color="#4E69AE"/>
</linearGradient>
<linearGradient id="paint6_linear_442_7546" x1="58.8839" y1="159.723" x2="52.0104" y2="161.061" gradientUnits="userSpaceOnUse">
<stop stop-color="#BE1E68"/>
<stop offset="1" stop-color="#B5188D"/>
</linearGradient>
<linearGradient id="paint7_linear_442_7546" x1="130.894" y1="194.793" x2="125.611" y2="195.821" gradientUnits="userSpaceOnUse">
<stop stop-color="#F8B54A"/>
<stop offset="1" stop-color="#F8A629"/>
</linearGradient>
<linearGradient id="paint8_linear_442_7546" x1="39.5696" y1="417.33" x2="31.4445" y2="418.911" gradientUnits="userSpaceOnUse">
<stop stop-color="#BE1E68"/>
<stop offset="1" stop-color="#B5188D"/>
</linearGradient>
<linearGradient id="paint9_linear_442_7546" x1="-4049.47" y1="-1294.09" x2="-4054.34" y2="-1293.15" gradientUnits="userSpaceOnUse">
<stop stop-color="#F71873"/>
<stop offset="1" stop-color="#F8A629"/>
</linearGradient>
<linearGradient id="paint10_linear_442_7546" x1="-4030.15" y1="-1249.7" x2="-4038.28" y2="-1248.12" gradientUnits="userSpaceOnUse">
<stop stop-color="#FBE422"/>
<stop offset="1" stop-color="#C8D92B"/>
</linearGradient>
<linearGradient id="paint11_linear_442_7546" x1="-4040.69" y1="-1209.37" x2="-4047.85" y2="-1207.98" gradientUnits="userSpaceOnUse">
<stop stop-color="#BE1E68"/>
<stop offset="1" stop-color="#B5188D"/>
</linearGradient>
<linearGradient id="paint12_linear_442_7546" x1="-4046.58" y1="-1160.17" x2="-4058.78" y2="-1157.8" gradientUnits="userSpaceOnUse">
<stop stop-color="#6DD0E7"/>
<stop offset="1" stop-color="#01A7DB"/>
</linearGradient>
<linearGradient id="paint13_linear_442_7546" x1="63.3939" y1="72.0973" x2="54.0652" y2="73.9128" gradientUnits="userSpaceOnUse">
<stop stop-color="#FBE422"/>
<stop offset="1" stop-color="#C8D92B"/>
</linearGradient>
<linearGradient id="paint14_linear_442_7546" x1="92.4181" y1="95.5791" x2="87.9371" y2="96.4511" gradientUnits="userSpaceOnUse">
<stop stop-color="#6DD0E7"/>
<stop offset="1" stop-color="#01A7DB"/>
</linearGradient>
<linearGradient id="paint15_linear_442_7546" x1="95.729" y1="243.739" x2="88.4071" y2="245.164" gradientUnits="userSpaceOnUse">
<stop stop-color="#F44274"/>
<stop offset="1" stop-color="#E51F9A"/>
</linearGradient>
<linearGradient id="paint16_linear_442_7546" x1="75.8375" y1="336.036" x2="66.0177" y2="337.947" gradientUnits="userSpaceOnUse">
<stop stop-color="#6DD0E7"/>
<stop offset="1" stop-color="#01A7DB"/>
</linearGradient>
<linearGradient id="paint17_linear_442_7546" x1="98.1348" y1="416.214" x2="85.2158" y2="418.728" gradientUnits="userSpaceOnUse">
<stop stop-color="#F8B54A"/>
<stop offset="1" stop-color="#F8A629"/>
</linearGradient>
<linearGradient id="paint18_linear_442_7546" x1="-68.8506" y1="3642.31" x2="-97.9895" y2="3672.45" gradientUnits="userSpaceOnUse">
<stop stop-color="#F71873"/>
<stop offset="1" stop-color="#C6211B"/>
</linearGradient>
<linearGradient id="paint19_linear_442_7546" x1="-4167.78" y1="-2081.17" x2="-4169.34" y2="-2080.86" gradientUnits="userSpaceOnUse">
<stop stop-color="#F8B54A"/>
<stop offset="1" stop-color="#F8A629"/>
</linearGradient>
<linearGradient id="paint20_linear_442_7546" x1="-4155.42" y1="-2091.56" x2="-4157.07" y2="-2091.24" gradientUnits="userSpaceOnUse">
<stop stop-color="#B5188D"/>
<stop offset="1" stop-color="#4E69AE"/>
</linearGradient>
<linearGradient id="paint21_linear_442_7546" x1="-4147.77" y1="-2096.02" x2="-4150.34" y2="-2095.52" gradientUnits="userSpaceOnUse">
<stop stop-color="#F44274"/>
<stop offset="1" stop-color="#E51F9A"/>
</linearGradient>
<linearGradient id="paint22_linear_442_7546" x1="-4103.92" y1="-2195.86" x2="-4107.03" y2="-2195.26" gradientUnits="userSpaceOnUse">
<stop stop-color="#6DD0E7"/>
<stop offset="1" stop-color="#01A7DB"/>
</linearGradient>
<linearGradient id="paint23_linear_442_7546" x1="-4137.52" y1="-2176.45" x2="-4139.83" y2="-2176" gradientUnits="userSpaceOnUse">
<stop stop-color="#F71873"/>
<stop offset="1" stop-color="#F8A629"/>
</linearGradient>
<linearGradient id="paint24_linear_442_7546" x1="-4210.56" y1="-2217.05" x2="-4212.64" y2="-2216.64" gradientUnits="userSpaceOnUse">
<stop stop-color="#F87D5E"/>
<stop offset="1" stop-color="#EB622C"/>
</linearGradient>
<linearGradient id="paint25_linear_442_7546" x1="-4205.61" y1="-2234.64" x2="-4207.89" y2="-2234.19" gradientUnits="userSpaceOnUse">
<stop stop-color="#FBE422"/>
<stop offset="1" stop-color="#C8D92B"/>
</linearGradient>
<linearGradient id="paint26_linear_442_7546" x1="-4188.58" y1="-2189.71" x2="-4190.77" y2="-2189.28" gradientUnits="userSpaceOnUse">
<stop stop-color="#6DD0E7"/>
<stop offset="1" stop-color="#01A7DB"/>
</linearGradient>
<linearGradient id="paint27_linear_442_7546" x1="-4210.37" y1="-2212.26" x2="-4212.95" y2="-2211.75" gradientUnits="userSpaceOnUse">
<stop stop-color="#F71873"/>
<stop offset="1" stop-color="#F8A629"/>
</linearGradient>
<linearGradient id="paint28_linear_442_7546" x1="-4172.23" y1="-2198.48" x2="-4174.19" y2="-2198.1" gradientUnits="userSpaceOnUse">
<stop stop-color="#F8B54A"/>
<stop offset="1" stop-color="#F8A629"/>
</linearGradient>
<linearGradient id="paint29_linear_442_7546" x1="-4174.23" y1="-2224.19" x2="-4176.22" y2="-2223.81" gradientUnits="userSpaceOnUse">
<stop stop-color="#F71873"/>
<stop offset="1" stop-color="#C6211B"/>
</linearGradient>
<linearGradient id="paint30_linear_442_7546" x1="-4135.88" y1="-2114.7" x2="-4138.36" y2="-2114.22" gradientUnits="userSpaceOnUse">
<stop stop-color="#F71873"/>
<stop offset="1" stop-color="#F8A629"/>
</linearGradient>
<linearGradient id="paint31_linear_442_7546" x1="-4141.36" y1="-2102.3" x2="-4142.94" y2="-2102" gradientUnits="userSpaceOnUse">
<stop stop-color="#B4DF86"/>
<stop offset="1" stop-color="#84C743"/>
</linearGradient>
<linearGradient id="paint32_linear_442_7546" x1="-195.511" y1="-1346.03" x2="-225.76" y2="-1340.14" gradientUnits="userSpaceOnUse">
<stop stop-color="#F71873"/>
<stop offset="1" stop-color="#C6211B"/>
</linearGradient>
<linearGradient id="paint33_linear_442_7546" x1="-204.602" y1="-1259.87" x2="-216.042" y2="-1287.47" gradientUnits="userSpaceOnUse">
<stop stop-color="#F44274"/>
<stop offset="1" stop-color="#E51F9A"/>
</linearGradient>
<linearGradient id="paint34_linear_442_7546" x1="-203.817" y1="-1369.46" x2="-237.615" y2="-1400.6" gradientUnits="userSpaceOnUse">
<stop stop-color="#F44274"/>
<stop offset="1" stop-color="#E51F9A"/>
</linearGradient>
<linearGradient id="paint35_linear_442_7546" x1="-197.095" y1="-1306.13" x2="-220.946" y2="-1306.31" gradientUnits="userSpaceOnUse">
<stop stop-color="#F44274"/>
<stop offset="1" stop-color="#E51F9A"/>
</linearGradient>
<linearGradient id="paint36_linear_442_7546" x1="633.94" y1="-1892.73" x2="587.974" y2="-1883.78" gradientUnits="userSpaceOnUse">
<stop stop-color="#F8B54A"/>
<stop offset="1" stop-color="#F8A629"/>
</linearGradient>
<linearGradient id="paint37_linear_442_7546" x1="-3061.11" y1="1256.8" x2="-3095.99" y2="1263.59" gradientUnits="userSpaceOnUse">
<stop stop-color="#B5188D"/>
<stop offset="1" stop-color="#4E69AE"/>
</linearGradient>
<linearGradient id="paint38_linear_442_7546" x1="-3066.32" y1="1275.5" x2="-3090.62" y2="1280.22" gradientUnits="userSpaceOnUse">
<stop stop-color="#F71873"/>
<stop offset="1" stop-color="#C6211B"/>
</linearGradient>
<linearGradient id="paint39_linear_442_7546" x1="-3089.36" y1="1220.67" x2="-3072.02" y2="1248.78" gradientUnits="userSpaceOnUse">
<stop stop-color="#B5188D"/>
<stop offset="1" stop-color="#4E69AE"/>
</linearGradient>
<linearGradient id="paint40_linear_442_7546" x1="-3071.37" y1="1236.2" x2="-3086.34" y2="1251.78" gradientUnits="userSpaceOnUse">
<stop stop-color="#F71873"/>
<stop offset="1" stop-color="#C6211B"/>
</linearGradient>
</defs>
</svg>
