<svg width="21" height="20" viewBox="0 0 21 20" fill="none" xmlns="http://www.w3.org/2000/svg">
<path d="M7.99609 8.64079C7.99609 9.13663 8.14313 9.62133 8.4186 10.0336C8.69407 10.4459 9.08561 10.7672 9.54371 10.957C10.0018 11.1467 10.5059 11.1964 10.9922 11.0996C11.4785 11.0029 11.9252 10.7641 12.2758 10.4135C12.6264 10.0629 12.8652 9.61619 12.9619 9.12988C13.0587 8.64357 13.009 8.1395 12.8193 7.6814C12.6295 7.22331 12.3082 6.83177 11.8959 6.55629C11.4836 6.28082 10.9989 6.13379 10.5031 6.13379C9.8382 6.13379 9.20053 6.39792 8.73038 6.86807C8.26022 7.33823 7.99609 7.97589 7.99609 8.64079Z" stroke="white" stroke-width="1.5"/>
<path d="M17.238 7.17889C15.655 0.218893 5.34405 0.226892 3.77405 7.18689C2.84505 11.2689 5.38405 14.7249 7.61105 16.8629C8.38898 17.6129 9.42746 18.032 10.508 18.032C11.5886 18.032 12.6271 17.6129 13.405 16.8629C15.623 14.7249 18.163 11.2629 17.238 7.17889Z" stroke="white" stroke-width="1.5"/>
</svg>
