<svg width="19" height="18" viewBox="0 0 19 18" fill="none" xmlns="http://www.w3.org/2000/svg">
<path d="M17.6327 14.1607C17.6327 14.4682 17.5644 14.7718 17.4327 15.0497C17.2905 15.3531 17.1037 15.6335 16.8787 15.8817C16.5107 16.3009 16.0521 16.6309 15.5377 16.8467C15.0336 17.0549 14.493 17.1603 13.9477 17.1567C13.0303 17.1381 12.1261 16.934 11.2897 16.5567C10.2984 16.1261 9.3591 15.5846 8.48966 14.9427C7.54074 14.2502 6.64522 13.4874 5.81066 12.6607C4.9861 11.8307 4.22559 10.9395 3.53566 9.99469C2.9014 9.12988 2.3648 8.19754 1.93566 7.21469C1.56397 6.3735 1.36504 5.46622 1.35066 4.54669C1.34751 4.00873 1.44731 3.47515 1.64466 2.97469C1.85187 2.45669 2.17197 1.9914 2.58166 1.61269C2.79873 1.37804 3.06068 1.18933 3.35201 1.05776C3.64333 0.926182 3.95809 0.854408 4.27766 0.846688C4.50586 0.845921 4.73135 0.896144 4.93766 0.993688C5.15771 1.09227 5.3468 1.24886 5.48466 1.44669L7.37566 4.11569C7.50645 4.29251 7.61588 4.48417 7.70166 4.68669C7.77276 4.84404 7.81153 5.01407 7.81566 5.18669C7.8134 5.3918 7.7542 5.59226 7.64466 5.76569C7.51879 5.97818 7.3651 6.1729 7.18766 6.34469L6.56766 6.98869C6.52458 7.03105 6.49079 7.08191 6.46841 7.13803C6.44603 7.19415 6.43556 7.25431 6.43766 7.31469C6.43757 7.37812 6.44563 7.44131 6.46166 7.50269C6.48566 7.56769 6.51066 7.61669 6.52666 7.66569C6.74629 8.03608 7.00078 8.38466 7.28666 8.70669C7.65366 9.13069 8.04466 9.56269 8.46866 9.99469C8.90866 10.4267 9.33266 10.8267 9.76866 11.1947C10.0925 11.4803 10.4451 11.7317 10.8207 11.9447C10.8617 11.9607 10.9107 11.9857 10.9677 12.0097C11.0318 12.0327 11.0995 12.0439 11.1677 12.0427C11.2299 12.044 11.2918 12.0322 11.3493 12.0083C11.4068 11.9844 11.4587 11.9488 11.5017 11.9037L12.1217 11.2927C12.2934 11.1119 12.4913 10.9579 12.7087 10.8357C12.8816 10.7251 13.0824 10.6658 13.2877 10.6647C13.4597 10.6666 13.6296 10.7026 13.7877 10.7707C13.9885 10.8566 14.1799 10.9632 14.3587 11.0887L17.0587 13.0047C17.2543 13.1328 17.4097 13.3138 17.5067 13.5267C17.5895 13.7278 17.6323 13.9432 17.6327 14.1607Z" stroke="white" stroke-width="1.5"/>
</svg>
