<svg width="401" height="85" viewBox="0 0 401 85" fill="none" xmlns="http://www.w3.org/2000/svg">
<g filter="url(#filter0_d_635_1687)">
<path d="M22.6907 14.735H32.7007V32.025H48.4307V14.735H58.4407V59.065H48.4307V40.28H32.7007V59.065H22.6907V14.735ZM79.9009 59.585C76.3909 59.585 73.4659 58.8483 71.1259 57.375C68.7859 55.9017 67.0525 53.8867 65.9259 51.33C64.8425 48.7733 64.3009 45.8483 64.3009 42.555C64.3009 39.305 64.8425 36.4017 65.9259 33.845C67.0525 31.2883 68.7859 29.2733 71.1259 27.8C73.4659 26.3267 76.3909 25.59 79.9009 25.59C83.4109 25.59 86.3142 26.3267 88.6109 27.8C90.9509 29.2733 92.6842 31.2883 93.8109 33.845C94.9375 36.4017 95.5009 39.305 95.5009 42.555C95.5009 45.8483 94.9375 48.7733 93.8109 51.33C92.6842 53.8867 90.9509 55.9017 88.6109 57.375C86.3142 58.8483 83.4109 59.585 79.9009 59.585ZM79.9009 32.09C77.6042 32.09 75.8275 33.065 74.5709 35.015C73.3575 36.965 72.7509 39.4783 72.7509 42.555C72.7509 45.675 73.3575 48.21 74.5709 50.16C75.8275 52.0667 77.6042 53.02 79.9009 53.02C82.1975 53.02 83.9309 52.0667 85.1009 50.16C86.2709 48.2533 86.8559 45.7183 86.8559 42.555C86.8559 39.435 86.2709 36.9217 85.1009 35.015C83.9309 33.065 82.1975 32.09 79.9009 32.09ZM98.7382 25.98H108.618L114.598 51.07H114.663L120.383 25.98H129.808L135.528 51.07H135.658L141.638 25.98H151.453L141.573 59H130.133L124.283 36.965H125.453L119.603 59H108.618L98.7382 25.98ZM168.116 14.735H178.126V59.065H168.116V14.735ZM205.078 22.99V59.065H195.068V22.99H183.173V14.735H216.973V22.99H205.078ZM254.543 59.39H242.843L231.663 14.735H241.998L246.548 33.91L249.213 46.52H249.148L251.878 33.91L256.428 14.735H267.218L271.963 33.91L274.758 46.52H274.693L277.163 33.91L281.713 14.735H291.528L280.348 59.39H268.648L261.628 30.985L254.543 59.39ZM305.37 59.585C301.86 59.585 298.935 58.8483 296.595 57.375C294.255 55.9017 292.521 53.8867 291.395 51.33C290.311 48.7733 289.77 45.8483 289.77 42.555C289.77 39.305 290.311 36.4017 291.395 33.845C292.521 31.2883 294.255 29.2733 296.595 27.8C298.935 26.3267 301.86 25.59 305.37 25.59C308.88 25.59 311.783 26.3267 314.08 27.8C316.42 29.2733 318.153 31.2883 319.28 33.845C320.406 36.4017 320.97 39.305 320.97 42.555C320.97 45.8483 320.406 48.7733 319.28 51.33C318.153 53.8867 316.42 55.9017 314.08 57.375C311.783 58.8483 308.88 59.585 305.37 59.585ZM305.37 32.09C303.073 32.09 301.296 33.065 300.04 35.015C298.826 36.965 298.22 39.4783 298.22 42.555C298.22 45.675 298.826 48.21 300.04 50.16C301.296 52.0667 303.073 53.02 305.37 53.02C307.666 53.02 309.4 52.0667 310.57 50.16C311.74 48.2533 312.325 45.7183 312.325 42.555C312.325 39.435 311.74 36.9217 310.57 35.015C309.4 33.065 307.666 32.09 305.37 32.09ZM326.157 59V26.435H335.322V32.805H335.387C336.427 30.6383 337.879 29.0567 339.742 28.06C341.649 27.02 343.707 26.5 345.917 26.5V33.585C344.53 33.4117 343.057 33.6067 341.497 34.17C339.937 34.7333 338.594 35.5133 337.467 36.51C336.34 37.5067 335.625 38.5467 335.322 39.63V59H326.157ZM349.389 59V14.735H358.554V59H349.389ZM381.174 26.5L366.679 37.615L381.239 59H370.384L356.929 38.135L370.514 26.5H381.174Z" fill="#7C299F"/>
<path d="M25.4263 15.416H35.2823V32.44H50.7703V15.416H60.6263V59.064H50.7703V40.568H35.2823V59.064H25.4263V15.416ZM81.7563 59.576C78.3003 59.576 75.4203 58.8507 73.1163 57.4C70.8123 55.9493 69.1056 53.9653 67.9963 51.448C66.9296 48.9307 66.3963 46.0507 66.3963 42.808C66.3963 39.608 66.9296 36.7493 67.9963 34.232C69.1056 31.7147 70.8123 29.7307 73.1163 28.28C75.4203 26.8293 78.3003 26.104 81.7563 26.104C85.2123 26.104 88.0709 26.8293 90.3323 28.28C92.6363 29.7307 94.3429 31.7147 95.4523 34.232C96.5616 36.7493 97.1163 39.608 97.1163 42.808C97.1163 46.0507 96.5616 48.9307 95.4523 51.448C94.3429 53.9653 92.6363 55.9493 90.3323 57.4C88.0709 58.8507 85.2123 59.576 81.7563 59.576ZM81.7563 32.504C79.4949 32.504 77.7456 33.464 76.5083 35.384C75.3136 37.304 74.7163 39.7787 74.7163 42.808C74.7163 45.88 75.3136 48.376 76.5083 50.296C77.7456 52.1733 79.4949 53.112 81.7563 53.112C84.0176 53.112 85.7243 52.1733 86.8763 50.296C88.0283 48.4187 88.6043 45.9227 88.6043 42.808C88.6043 39.736 88.0283 37.2613 86.8763 35.384C85.7243 33.464 84.0176 32.504 81.7563 32.504ZM100.304 26.488H110.032L115.92 51.192H115.984L121.616 26.488H130.896L136.528 51.192H136.656L142.544 26.488H152.208L142.48 59H131.216L125.456 37.304H126.608L120.848 59H110.032L100.304 26.488ZM168.614 15.416H178.47V59.064H168.614V15.416ZM205.007 23.544V59.064H195.151V23.544H183.439V15.416H216.719V23.544H205.007ZM253.711 59.384H242.191L231.183 15.416H241.359L245.839 34.296L248.463 46.712H248.399L251.087 34.296L255.567 15.416H266.191L270.863 34.296L273.615 46.712H273.551L275.983 34.296L280.463 15.416H290.127L279.119 59.384H267.599L260.687 31.416L253.711 59.384ZM303.756 59.576C300.3 59.576 297.42 58.8507 295.116 57.4C292.812 55.9493 291.106 53.9653 289.996 51.448C288.93 48.9307 288.396 46.0507 288.396 42.808C288.396 39.608 288.93 36.7493 289.996 34.232C291.106 31.7147 292.812 29.7307 295.116 28.28C297.42 26.8293 300.3 26.104 303.756 26.104C307.212 26.104 310.071 26.8293 312.332 28.28C314.636 29.7307 316.343 31.7147 317.452 34.232C318.562 36.7493 319.116 39.608 319.116 42.808C319.116 46.0507 318.562 48.9307 317.452 51.448C316.343 53.9653 314.636 55.9493 312.332 57.4C310.071 58.8507 307.212 59.576 303.756 59.576ZM303.756 32.504C301.495 32.504 299.746 33.464 298.508 35.384C297.314 37.304 296.716 39.7787 296.716 42.808C296.716 45.88 297.314 48.376 298.508 50.296C299.746 52.1733 301.495 53.112 303.756 53.112C306.018 53.112 307.724 52.1733 308.876 50.296C310.028 48.4187 310.604 45.9227 310.604 42.808C310.604 39.736 310.028 37.2613 308.876 35.384C307.724 33.464 306.018 32.504 303.756 32.504ZM324.224 59V26.936H333.248V33.208H333.312C334.336 31.0747 335.765 29.5173 337.6 28.536C339.477 27.512 341.504 27 343.68 27V33.976C342.314 33.8053 340.864 33.9973 339.328 34.552C337.792 35.1067 336.469 35.8747 335.36 36.856C334.25 37.8373 333.546 38.8613 333.248 39.928V59H324.224ZM347.099 59V15.416H356.123V59H347.099ZM378.395 27L364.123 37.944L378.459 59H367.771L354.523 38.456L367.899 27H378.395Z" fill="white"/>
<path d="M25.4263 15.416V11.416H21.4263V15.416H25.4263ZM35.2822 15.416H39.2822V11.416H35.2822V15.416ZM35.2822 32.44H31.2822V36.44H35.2822V32.44ZM50.7703 32.44V36.44H54.7703V32.44H50.7703ZM50.7703 15.416V11.416H46.7703V15.416H50.7703ZM60.6263 15.416H64.6263V11.416H60.6263V15.416ZM60.6263 59.064V63.064H64.6263V59.064H60.6263ZM50.7703 59.064H46.7703V63.064H50.7703V59.064ZM50.7703 40.568H54.7703V36.568H50.7703V40.568ZM35.2822 40.568V36.568H31.2822V40.568H35.2822ZM35.2822 59.064V63.064H39.2822V59.064H35.2822ZM25.4263 59.064H21.4263V63.064H25.4263V59.064ZM25.4263 19.416H35.2822V11.416H25.4263V19.416ZM31.2822 15.416V32.44H39.2822V15.416H31.2822ZM35.2822 36.44H50.7703V28.44H35.2822V36.44ZM54.7703 32.44V15.416H46.7703V32.44H54.7703ZM50.7703 19.416H60.6263V11.416H50.7703V19.416ZM56.6263 15.416V59.064H64.6263V15.416H56.6263ZM60.6263 55.064H50.7703V63.064H60.6263V55.064ZM54.7703 59.064V40.568H46.7703V59.064H54.7703ZM50.7703 36.568H35.2822V44.568H50.7703V36.568ZM31.2822 40.568V59.064H39.2822V40.568H31.2822ZM35.2822 55.064H25.4263V63.064H35.2822V55.064ZM29.4263 59.064V15.416H21.4263V59.064H29.4263ZM73.1162 57.4L70.985 60.7849H70.985L73.1162 57.4ZM67.9962 51.448L64.3132 53.0086L64.3244 53.0349L64.3359 53.061L67.9962 51.448ZM67.9962 34.232L64.3359 32.619L64.3244 32.6451L64.3132 32.6714L67.9962 34.232ZM73.1162 28.28L70.985 24.8951H70.985L73.1162 28.28ZM90.3323 28.28L88.1724 31.6468L88.1867 31.6559L88.201 31.6649L90.3323 28.28ZM95.4523 34.232L91.7919 35.845L95.4523 34.232ZM95.4523 51.448L91.7919 49.835L95.4523 51.448ZM90.3323 57.4L88.201 54.0151L88.1867 54.0241L88.1724 54.0332L90.3323 57.4ZM76.5082 35.384L73.146 33.2172L73.1288 33.2439L73.112 33.2708L76.5082 35.384ZM76.5082 50.296L73.112 52.4092L73.1396 52.4536L73.1684 52.4973L76.5082 50.296ZM86.8763 50.296L83.467 48.2039L86.8763 50.296ZM86.8763 35.384L83.4463 37.442L83.4565 37.4591L83.467 37.4761L86.8763 35.384ZM81.7562 55.576C78.8531 55.576 76.762 54.9686 75.2475 54.0151L70.985 60.7849C74.0785 62.7327 77.7474 63.576 81.7562 63.576V55.576ZM75.2475 54.0151C73.6259 52.9941 72.4479 51.6305 71.6566 49.835L64.3359 53.061C65.7633 56.3002 67.9986 58.9046 70.985 60.7849L75.2475 54.0151ZM71.6793 49.8874C70.8569 47.9467 70.3962 45.6126 70.3962 42.808H62.3963C62.3963 46.4888 63.0022 49.9146 64.3132 53.0086L71.6793 49.8874ZM70.3962 42.808C70.3962 40.054 70.8543 37.7394 71.6793 35.7926L64.3132 32.6714C63.0048 35.7592 62.3963 39.162 62.3963 42.808H70.3962ZM71.6566 35.845C72.4479 34.0495 73.6259 32.6859 75.2475 31.6649L70.985 24.8951C67.9986 26.7754 65.7633 29.3798 64.3359 32.619L71.6566 35.845ZM75.2475 31.6649C76.762 30.7114 78.8531 30.104 81.7562 30.104V22.104C77.7474 22.104 74.0785 22.9473 70.985 24.8951L75.2475 31.6649ZM81.7562 30.104C84.6633 30.104 86.7165 30.7128 88.1724 31.6468L92.4921 24.9132C89.4253 22.9459 85.7612 22.104 81.7562 22.104V30.104ZM88.201 31.6649C89.8226 32.6859 91.0006 34.0495 91.7919 35.845L99.1126 32.619C97.6852 29.3798 95.4499 26.7754 92.4635 24.8951L88.201 31.6649ZM91.7919 35.845C92.6437 37.7779 93.1163 40.0736 93.1163 42.808H101.116C101.116 39.1424 100.48 35.7208 99.1126 32.619L91.7919 35.845ZM93.1163 42.808C93.1163 45.5932 92.6409 47.9085 91.7919 49.835L99.1126 53.061C100.482 49.9528 101.116 46.5081 101.116 42.808H93.1163ZM91.7919 49.835C91.0006 51.6305 89.8226 52.9941 88.201 54.0151L92.4635 60.7849C95.4499 58.9046 97.6852 56.3002 99.1126 53.061L91.7919 49.835ZM88.1724 54.0332C86.7165 54.9672 84.6633 55.576 81.7562 55.576V63.576C85.7612 63.576 89.4253 62.7341 92.4921 60.7668L88.1724 54.0332ZM81.7562 28.504C78.1189 28.504 75.1107 30.1685 73.146 33.2172L79.8705 37.5508C80.3805 36.7595 80.871 36.504 81.7562 36.504V28.504ZM73.112 33.2708C71.4101 36.006 70.7162 39.2782 70.7162 42.808H78.7162C78.7162 40.2791 79.217 38.602 79.9045 37.4972L73.112 33.2708ZM70.7162 42.808C70.7162 46.368 71.4053 49.6662 73.112 52.4092L79.9045 48.1828C79.2219 47.0858 78.7162 45.392 78.7162 42.808H70.7162ZM73.1684 52.4973C75.151 55.5053 78.1594 57.112 81.7562 57.112V49.112C80.8304 49.112 80.3402 48.8414 79.8481 48.0947L73.1684 52.4973ZM81.7562 57.112C85.3631 57.112 88.3827 55.4889 90.2855 52.3881L83.467 48.2039C83.0658 48.8577 82.672 49.112 81.7562 49.112V57.112ZM90.2855 52.3881C91.952 49.6724 92.6042 46.3701 92.6042 42.808H84.6042C84.6042 45.4752 84.1045 47.165 83.467 48.2039L90.2855 52.3881ZM92.6042 42.808C92.6042 39.2763 91.9474 36.0002 90.2855 33.2919L83.467 37.4761C84.1091 38.5224 84.6042 40.1957 84.6042 42.808H92.6042ZM90.3062 33.326C88.4225 30.1865 85.4054 28.504 81.7562 28.504V36.504C82.6297 36.504 83.026 36.7415 83.4463 37.442L90.3062 33.326ZM100.304 26.488V22.488H94.9317L96.4716 27.6346L100.304 26.488ZM110.032 26.488L113.923 25.5606L113.19 22.488H110.032V26.488ZM115.92 51.192L112.029 52.1194L112.761 55.192H115.92V51.192ZM115.984 51.192V55.192H119.174L119.884 52.0811L115.984 51.192ZM121.616 26.488V22.488H118.425L117.716 25.5989L121.616 26.488ZM130.896 26.488L134.796 25.5989L134.086 22.488H130.896V26.488ZM136.528 51.192L132.628 52.0811L133.337 55.192H136.528V51.192ZM136.656 51.192V55.192H139.814L140.547 52.1194L136.656 51.192ZM142.544 26.488V22.488H139.385L138.653 25.5606L142.544 26.488ZM152.208 26.488L156.04 27.6346L157.58 22.488H152.208V26.488ZM142.48 59V63H145.458L146.312 60.1466L142.48 59ZM131.216 59L127.35 60.0264L128.139 63H131.216V59ZM125.456 37.304V33.304H120.255L121.59 38.3304L125.456 37.304ZM126.608 37.304L130.474 38.3304L131.808 33.304H126.608V37.304ZM120.848 59V63H123.924L124.714 60.0264L120.848 59ZM110.032 59L106.2 60.1466L107.053 63H110.032V59ZM100.304 30.488H110.032V22.488H100.304V30.488ZM106.141 27.4154L112.029 52.1194L119.811 50.2646L113.923 25.5606L106.141 27.4154ZM115.92 55.192H115.984V47.192H115.92V55.192ZM119.884 52.0811L125.516 27.3771L117.716 25.5989L112.084 50.3029L119.884 52.0811ZM121.616 30.488H130.896V22.488H121.616V30.488ZM126.996 27.3771L132.628 52.0811L140.428 50.3029L134.796 25.5989L126.996 27.3771ZM136.528 55.192H136.656V47.192H136.528V55.192ZM140.547 52.1194L146.435 27.4154L138.653 25.5606L132.765 50.2646L140.547 52.1194ZM142.544 30.488H152.208V22.488H142.544V30.488ZM148.376 25.3414L138.648 57.8534L146.312 60.1466L156.04 27.6346L148.376 25.3414ZM142.48 55H131.216V63H142.48V55ZM135.082 57.9736L129.322 36.2776L121.59 38.3304L127.35 60.0264L135.082 57.9736ZM125.456 41.304H126.608V33.304H125.456V41.304ZM122.742 36.2776L116.982 57.9736L124.714 60.0264L130.474 38.3304L122.742 36.2776ZM120.848 55H110.032V63H120.848V55ZM113.864 57.8534L104.136 25.3414L96.4716 27.6346L106.2 60.1466L113.864 57.8534ZM168.614 15.416V11.416H164.614V15.416H168.614ZM178.47 15.416H182.47V11.416H178.47V15.416ZM178.47 59.064V63.064H182.47V59.064H178.47ZM168.614 59.064H164.614V63.064H168.614V59.064ZM168.614 19.416H178.47V11.416H168.614V19.416ZM174.47 15.416V59.064H182.47V15.416H174.47ZM178.47 55.064H168.614V63.064H178.47V55.064ZM172.614 59.064V15.416H164.614V59.064H172.614ZM205.007 23.544V19.544H201.007V23.544H205.007ZM205.007 59.064V63.064H209.007V59.064H205.007ZM195.151 59.064H191.151V63.064H195.151V59.064ZM195.151 23.544H199.151V19.544H195.151V23.544ZM183.439 23.544H179.439V27.544H183.439V23.544ZM183.439 15.416V11.416H179.439V15.416H183.439ZM216.719 15.416H220.719V11.416H216.719V15.416ZM216.719 23.544V27.544H220.719V23.544H216.719ZM201.007 23.544V59.064H209.007V23.544H201.007ZM205.007 55.064H195.151V63.064H205.007V55.064ZM199.151 59.064V23.544H191.151V59.064H199.151ZM195.151 19.544H183.439V27.544H195.151V19.544ZM187.439 23.544V15.416H179.439V23.544H187.439ZM183.439 19.416H216.719V11.416H183.439V19.416ZM212.719 15.416V23.544H220.719V15.416H212.719ZM216.719 19.544H205.007V27.544H216.719V19.544ZM253.711 59.384V63.384H256.836L257.592 60.3521L253.711 59.384ZM242.191 59.384L238.311 60.3555L239.069 63.384H242.191V59.384ZM231.183 15.416V11.416H226.058L227.303 16.3875L231.183 15.416ZM241.359 15.416L245.251 14.4925L244.521 11.416H241.359V15.416ZM245.839 34.296L249.753 33.4689L249.743 33.4206L249.731 33.3725L245.839 34.296ZM248.463 46.712V50.712H253.397L252.377 45.8849L248.463 46.712ZM248.399 46.712L244.49 45.8656L243.441 50.712H248.399V46.712ZM251.087 34.296L247.195 33.3725L247.186 33.411L247.178 33.4496L251.087 34.296ZM255.567 15.416V11.416H252.405L251.675 14.4925L255.567 15.416ZM266.191 15.416L270.074 14.4551L269.322 11.416H266.191V15.416ZM270.863 34.296L274.768 33.4304L274.758 33.3826L274.746 33.3352L270.863 34.296ZM273.615 46.712V50.712H278.599L277.52 45.8464L273.615 46.712ZM273.551 46.712L269.626 45.9431L268.692 50.712H273.551V46.712ZM275.983 34.296L272.091 33.3725L272.073 33.4495L272.058 33.5271L275.983 34.296ZM280.463 15.416V11.416H277.301L276.571 14.4925L280.463 15.416ZM290.127 15.416L294.007 16.3875L295.252 11.416H290.127V15.416ZM279.119 59.384V63.384H282.241L282.999 60.3555L279.119 59.384ZM267.599 59.384L263.716 60.3437L264.467 63.384H267.599V59.384ZM260.687 31.416L264.57 30.4563L256.806 30.4479L260.687 31.416ZM253.711 55.384H242.191V63.384H253.711V55.384ZM246.071 58.4125L235.063 14.4445L227.303 16.3875L238.311 60.3555L246.071 58.4125ZM231.183 19.416H241.359V11.416H231.183V19.416ZM237.467 16.3395L241.947 35.2195L249.731 33.3725L245.251 14.4925L237.467 16.3395ZM241.926 35.1231L244.55 47.5391L252.377 45.8849L249.753 33.4689L241.926 35.1231ZM248.463 42.712H248.399V50.712H248.463V42.712ZM252.309 47.5584L254.997 35.1424L247.178 33.4496L244.49 45.8656L252.309 47.5584ZM254.979 35.2195L259.459 16.3395L251.675 14.4925L247.195 33.3725L254.979 35.2195ZM255.567 19.416H266.191V11.416H255.567V19.416ZM262.308 16.3768L266.98 35.2568L274.746 33.3352L270.074 14.4551L262.308 16.3768ZM266.958 35.1616L269.71 47.5776L277.52 45.8464L274.768 33.4304L266.958 35.1616ZM273.615 42.712H273.551V50.712H273.615V42.712ZM277.477 47.4809L279.909 35.0649L272.058 33.5271L269.626 45.9431L277.477 47.4809ZM279.875 35.2195L284.355 16.3395L276.571 14.4925L272.091 33.3725L279.875 35.2195ZM280.463 19.416H290.127V11.416H280.463V19.416ZM286.247 14.4445L275.239 58.4125L282.999 60.3555L294.007 16.3875L286.247 14.4445ZM279.119 55.384H267.599V63.384H279.119V55.384ZM271.482 58.4243L264.57 30.4563L256.804 32.3757L263.716 60.3437L271.482 58.4243ZM256.806 30.4479L249.83 58.4159L257.592 60.3521L264.568 32.3841L256.806 30.4479ZM295.116 57.4L292.985 60.7849L295.116 57.4ZM289.996 51.448L286.313 53.0086L286.324 53.0349L286.336 53.061L289.996 51.448ZM289.996 34.232L286.336 32.619L286.324 32.6451L286.313 32.6714L289.996 34.232ZM295.116 28.28L292.985 24.8951L295.116 28.28ZM312.332 28.28L310.172 31.6468L310.187 31.6559L310.201 31.6649L312.332 28.28ZM317.452 34.232L313.792 35.845L317.452 34.232ZM317.452 51.448L313.792 49.835L317.452 51.448ZM312.332 57.4L310.201 54.0151L310.187 54.0241L310.172 54.0332L312.332 57.4ZM298.508 35.384L295.146 33.2172L295.129 33.2439L295.112 33.2708L298.508 35.384ZM298.508 50.296L295.112 52.4092L295.14 52.4536L295.168 52.4973L298.508 50.296ZM308.876 50.296L305.467 48.2039L308.876 50.296ZM308.876 35.384L305.446 37.442L305.457 37.4591L305.467 37.4761L308.876 35.384ZM303.756 55.576C300.853 55.576 298.762 54.9686 297.247 54.0151L292.985 60.7849C296.078 62.7327 299.747 63.576 303.756 63.576V55.576ZM297.247 54.0151C295.626 52.9941 294.448 51.6305 293.657 49.835L286.336 53.061C287.763 56.3002 289.999 58.9046 292.985 60.7849L297.247 54.0151ZM293.679 49.8874C292.857 47.9467 292.396 45.6126 292.396 42.808H284.396C284.396 46.4888 285.002 49.9146 286.313 53.0086L293.679 49.8874ZM292.396 42.808C292.396 40.054 292.854 37.7394 293.679 35.7926L286.313 32.6714C285.005 35.7592 284.396 39.162 284.396 42.808H292.396ZM293.657 35.845C294.448 34.0495 295.626 32.6859 297.247 31.6649L292.985 24.8951C289.999 26.7754 287.763 29.3798 286.336 32.619L293.657 35.845ZM297.247 31.6649C298.762 30.7114 300.853 30.104 303.756 30.104V22.104C299.747 22.104 296.078 22.9473 292.985 24.8951L297.247 31.6649ZM303.756 30.104C306.663 30.104 308.717 30.7128 310.172 31.6468L314.492 24.9132C311.425 22.9459 307.761 22.104 303.756 22.104V30.104ZM310.201 31.6649C311.823 32.6859 313.001 34.0495 313.792 35.845L321.113 32.619C319.685 29.3798 317.45 26.7754 314.464 24.8951L310.201 31.6649ZM313.792 35.845C314.644 37.7779 315.116 40.0736 315.116 42.808H323.116C323.116 39.1424 322.48 35.7208 321.113 32.619L313.792 35.845ZM315.116 42.808C315.116 45.5932 314.641 47.9085 313.792 49.835L321.113 53.061C322.482 49.9528 323.116 46.5081 323.116 42.808H315.116ZM313.792 49.835C313.001 51.6305 311.823 52.9941 310.201 54.0151L314.464 60.7849C317.45 58.9046 319.685 56.3002 321.113 53.061L313.792 49.835ZM310.172 54.0332C308.717 54.9672 306.663 55.576 303.756 55.576V63.576C307.761 63.576 311.425 62.7341 314.492 60.7668L310.172 54.0332ZM303.756 28.504C300.119 28.504 297.111 30.1685 295.146 33.2172L301.871 37.5508C302.38 36.7595 302.871 36.504 303.756 36.504V28.504ZM295.112 33.2708C293.41 36.006 292.716 39.2782 292.716 42.808H300.716C300.716 40.2791 301.217 38.602 301.904 37.4972L295.112 33.2708ZM292.716 42.808C292.716 46.368 293.405 49.6662 295.112 52.4092L301.904 48.1828C301.222 47.0858 300.716 45.392 300.716 42.808H292.716ZM295.168 52.4973C297.151 55.5053 300.159 57.112 303.756 57.112V49.112C302.83 49.112 302.34 48.8414 301.848 48.0947L295.168 52.4973ZM303.756 57.112C307.363 57.112 310.383 55.4889 312.286 52.3881L305.467 48.2039C305.066 48.8577 304.672 49.112 303.756 49.112V57.112ZM312.286 52.3881C313.952 49.6724 314.604 46.3701 314.604 42.808H306.604C306.604 45.4752 306.105 47.165 305.467 48.2039L312.286 52.3881ZM314.604 42.808C314.604 39.2763 313.947 36.0002 312.286 33.2919L305.467 37.4761C306.109 38.5224 306.604 40.1957 306.604 42.808H314.604ZM312.306 33.326C310.423 30.1865 307.405 28.504 303.756 28.504V36.504C304.63 36.504 305.026 36.7415 305.446 37.442L312.306 33.326ZM324.224 59H320.224V63H324.224V59ZM324.224 26.936V22.936H320.224V26.936H324.224ZM333.248 26.936H337.248V22.936H333.248V26.936ZM333.248 33.208H329.248V37.208H333.248V33.208ZM333.312 33.208V37.208H335.829L336.918 34.9389L333.312 33.208ZM337.6 28.536L339.486 32.0631L339.501 32.0554L339.515 32.0476L337.6 28.536ZM343.68 27H347.68V23H343.68V27ZM343.68 33.976L343.184 37.9451L347.68 38.5071V33.976H343.68ZM339.328 34.552L337.969 30.7898V30.7898L339.328 34.552ZM335.36 36.856L338.01 39.852L335.36 36.856ZM333.248 39.928L329.396 38.8495L329.248 39.3786V39.928H333.248ZM333.248 59V63H337.248V59H333.248ZM328.224 59V26.936H320.224V59H328.224ZM324.224 30.936H333.248V22.936H324.224V30.936ZM329.248 26.936V33.208H337.248V26.936H329.248ZM333.248 37.208H333.312V29.208H333.248V37.208ZM336.918 34.9389C337.627 33.4621 338.502 32.5898 339.486 32.0631L335.713 25.0089C333.028 26.4449 331.045 28.6872 329.706 31.4771L336.918 34.9389ZM339.515 32.0476C340.794 31.3499 342.161 31 343.68 31V23C340.847 23 338.16 23.6741 335.684 25.0244L339.515 32.0476ZM339.68 27V33.976H347.68V27H339.68ZM344.176 30.0069C342.078 29.7446 339.988 30.0607 337.969 30.7898L340.686 38.3142C341.739 37.934 342.551 37.866 343.184 37.9451L344.176 30.0069ZM337.969 30.7898C336.007 31.4984 334.234 32.5113 332.709 33.86L338.01 39.852C338.704 39.2381 339.577 38.7149 340.686 38.3142L337.969 30.7898ZM332.709 33.86C331.213 35.1837 329.961 36.8302 329.396 38.8495L337.1 41.0065C337.132 40.8925 337.288 40.491 338.01 39.852L332.709 33.86ZM329.248 39.928V59H337.248V39.928H329.248ZM333.248 55H324.224V63H333.248V55ZM347.099 59H343.099V63H347.099V59ZM347.099 15.416V11.416H343.099V15.416H347.099ZM356.123 15.416H360.123V11.416H356.123V15.416ZM356.123 59V63H360.123V59H356.123ZM378.395 27L380.829 30.1742L390.185 23H378.395V27ZM364.123 37.944L361.689 34.7698L358.689 37.0702L360.816 40.1952L364.123 37.944ZM378.459 59V63H386.021L381.765 56.7488L378.459 59ZM367.771 59L364.409 61.1678L365.591 63H367.771V59ZM354.523 38.456L351.921 35.4179L349.269 37.6893L351.161 40.6238L354.523 38.456ZM367.899 27V23H366.42L365.297 23.9619L367.899 27ZM351.099 59V15.416H343.099V59H351.099ZM347.099 19.416H356.123V11.416H347.099V19.416ZM352.123 15.416V59H360.123V15.416H352.123ZM356.123 55H347.099V63H356.123V55ZM375.961 23.8258L361.689 34.7698L366.557 41.1182L380.829 30.1742L375.961 23.8258ZM360.816 40.1952L375.152 61.2512L381.765 56.7488L367.429 35.6928L360.816 40.1952ZM378.459 55H367.771V63H378.459V55ZM371.132 56.8322L357.884 36.2882L351.161 40.6238L364.409 61.1678L371.132 56.8322ZM357.125 41.4941L370.501 30.0381L365.297 23.9619L351.921 35.4179L357.125 41.4941ZM367.899 31H378.395V23H367.899V31Z" fill="#62268A"/>
</g>
<defs>
<filter id="filter0_d_635_1687" x="10.6909" y="14.735" width="382.548" height="69.85" filterUnits="userSpaceOnUse" color-interpolation-filters="sRGB">
<feFlood flood-opacity="0" result="BackgroundImageFix"/>
<feColorMatrix in="SourceAlpha" type="matrix" values="0 0 0 0 0 0 0 0 0 0 0 0 0 0 0 0 0 0 127 0" result="hardAlpha"/>
<feOffset dy="13"/>
<feGaussianBlur stdDeviation="6"/>
<feComposite in2="hardAlpha" operator="out"/>
<feColorMatrix type="matrix" values="0 0 0 0 0.384314 0 0 0 0 0.14902 0 0 0 0 0.541176 0 0 0 0.45 0"/>
<feBlend mode="normal" in2="BackgroundImageFix" result="effect1_dropShadow_635_1687"/>
<feBlend mode="normal" in="SourceGraphic" in2="effect1_dropShadow_635_1687" result="shape"/>
</filter>
</defs>
</svg>
