<svg width="29" height="39" viewBox="0 0 29 39" fill="none" xmlns="http://www.w3.org/2000/svg">
<path d="M19.0502 4.35275C19.0502 4.35275 20.9157 9.32732 17.8066 10.571C15.1825 7.16089 16.9454 0 8.47929 0C8.47929 0 12.8457 5.20713 9.41637 11.5864C7.4651 9.65875 7.52231 7.7311 7.52231 7.7311C5.10711 9.72024 3.20081 12.2564 1.96142 15.1293C0.722037 18.0023 0.18527 21.1292 0.395615 24.251C0.395615 28.0441 1.90242 31.6819 4.58454 34.364C7.26666 37.0461 10.9044 38.5529 14.6975 38.5529C18.4906 38.5529 22.1283 37.0461 24.8105 34.364C27.4926 31.6819 28.9994 28.0441 28.9994 24.251C29.0277 20.3847 28.1411 16.5665 26.412 13.1083C24.6829 9.65005 22.1603 6.64986 19.0502 4.35275Z" fill="#FF786E"/>
<path d="M15.6302 38.5193C19.2535 38.2824 22.6512 36.6763 25.1339 34.0266C27.6166 31.3769 28.9985 27.882 28.9993 24.2509C29.0195 20.8968 28.3548 17.5738 27.0457 14.4855C25.7367 11.3973 23.8109 8.60878 21.3864 6.29089C21.3963 6.36177 21.4056 6.43328 21.4143 6.50604C21.4748 7.01588 21.4267 7.53276 21.273 8.02266C21.1194 8.51256 20.8638 8.96437 20.5229 9.34836C20.1821 9.73235 19.7639 10.0398 19.2957 10.2505C18.8275 10.4612 18.32 10.5704 17.8065 10.5709C15.4119 7.46178 16.6692 1.22491 10.469 0.159729C11.4606 1.5033 12.1254 3.05947 12.4107 4.70476C12.696 6.35005 12.5939 8.03919 12.1125 9.63815C11.9271 10.2064 11.5662 10.7012 11.0816 11.0513C10.5971 11.4014 10.0141 11.5887 9.4163 11.5863C8.70796 10.9058 8.16068 10.0755 7.81449 9.15624C5.88516 11.1443 4.3941 13.5149 3.43755 16.1149C2.48099 18.7148 2.08019 21.4865 2.26101 24.2509C2.2618 27.882 3.64372 31.3769 6.12644 34.0266C8.60917 36.6763 12.0068 38.2824 15.6302 38.5193Z" fill="#FF5050"/>
<path d="M5.99199 4.35265C4.61839 4.35265 3.5047 2.96039 3.5047 1.24354C3.50672 1.0666 3.52085 0.890008 3.54699 0.714996C2.95198 0.952827 2.44723 1.37241 2.10467 1.91393C1.76211 2.45546 1.59923 3.0913 1.63924 3.73083C1.63924 5.44768 2.75292 6.83993 4.12653 6.83993C5.35524 6.83993 6.36943 5.72066 6.57153 4.25938C6.38394 4.3186 6.18869 4.35003 5.99199 4.35265Z" fill="#FF786E"/>
<path d="M3.53808 1.65028C3.10512 2.25704 2.87586 2.98554 2.88331 3.7309C2.84581 4.36235 3.0051 4.98989 3.3392 5.52702C3.67331 6.06415 4.16579 6.48443 4.74877 6.72994C5.25153 6.52722 5.68816 6.18893 6.01005 5.75276C6.33194 5.31658 6.52646 4.79963 6.57195 4.25945C6.38436 4.31867 6.18911 4.3501 5.99241 4.35272C4.73074 4.35272 3.69914 3.17126 3.53808 1.65028Z" fill="#FF5050"/>
<path d="M14.6791 32.9566C19.487 32.9566 23.3846 29.059 23.3846 24.2511C23.3846 19.4432 19.487 15.5456 14.6791 15.5456C9.87122 15.5456 5.97363 19.4432 5.97363 24.2511C5.97363 29.059 9.87122 32.9566 14.6791 32.9566Z" fill="#E6F0FF"/>
<path d="M15.9232 16.7893C14.2768 16.7897 12.6642 17.2569 11.2726 18.1369C9.88098 19.0168 8.76746 20.2734 8.06124 21.7607C7.35501 23.248 7.08505 24.9051 7.28267 26.5397C7.48029 28.1743 8.1374 29.7193 9.17773 30.9954C10.8488 32.3566 12.9654 33.0495 15.1179 32.94C17.2705 32.8306 19.3059 31.9265 20.8302 30.4028C22.3546 28.879 23.2595 26.844 23.3698 24.6915C23.4802 22.539 22.7881 20.4221 21.4276 18.7505C19.8751 17.4794 17.9297 16.7862 15.9232 16.7893Z" fill="#F5FAFF"/>
<path d="M15.3012 23.6292H14.0575V19.2765C14.0575 19.1115 14.1231 18.9534 14.2397 18.8368C14.3563 18.7201 14.5145 18.6546 14.6794 18.6546C14.8443 18.6546 15.0024 18.7201 15.1191 18.8368C15.2357 18.9534 15.3012 19.1115 15.3012 19.2765V23.6292ZM19.0321 24.8896H15.3012V23.646H19.0321C19.197 23.646 19.3552 23.7115 19.4718 23.8281C19.5884 23.9447 19.6539 24.1029 19.6539 24.2678C19.6539 24.4327 19.5884 24.5909 19.4718 24.7075C19.3552 24.8241 19.197 24.8896 19.0321 24.8896ZM14.6794 17.411C14.5145 17.411 14.3563 17.3455 14.2397 17.2289C14.1231 17.1123 14.0575 16.9541 14.0575 16.7892V14.9237H15.3012V16.7892C15.3012 16.9541 15.2357 17.1123 15.1191 17.2289C15.0024 17.3455 14.8443 17.411 14.6794 17.411ZM15.3012 33.5783H14.0575V31.7129C14.0575 31.548 14.1231 31.3898 14.2397 31.2732C14.3563 31.1566 14.5145 31.0911 14.6794 31.0911C14.8443 31.0911 15.0024 31.1566 15.1191 31.2732C15.2357 31.3898 15.3012 31.548 15.3012 31.7129V33.5783ZM10.4099 18.1L9.47721 16.4832L10.5542 15.8614L11.4869 17.4781C11.5694 17.621 11.5917 17.7907 11.5491 17.95C11.5064 18.1093 11.4022 18.2451 11.2594 18.3276C11.1165 18.41 10.9468 18.4324 10.7875 18.3897C10.6282 18.347 10.4924 18.2428 10.4099 18.1ZM18.8045 32.6394L17.8718 31.0227C17.7893 30.8798 17.767 30.7101 17.8097 30.5508C17.8524 30.3915 17.9566 30.2557 18.0994 30.1732C18.2422 30.0908 18.4119 30.0685 18.5712 30.1111C18.7305 30.1538 18.8663 30.258 18.9488 30.4008L19.8815 32.0176L18.8045 32.6394ZM7.90649 21.0586L6.28976 20.1259L6.91158 19.0489L8.52831 19.9816C8.67113 20.0641 8.77534 20.1999 8.81802 20.3592C8.8607 20.5185 8.83836 20.6882 8.7559 20.831C8.67344 20.9738 8.53762 21.078 8.37833 21.1207C8.21904 21.1634 8.04931 21.141 7.90649 21.0586ZM22.4465 29.4532L20.8298 28.5204C20.687 28.438 20.5828 28.3022 20.5401 28.1429C20.4974 27.9836 20.5198 27.8139 20.6022 27.671C20.6847 27.5282 20.8205 27.424 20.9798 27.3813C21.1391 27.3387 21.3088 27.361 21.4516 27.4435L23.0684 28.3762L22.4465 29.4532ZM7.21751 24.8728H5.35205V23.6292H7.21751C7.38243 23.6292 7.54059 23.6947 7.65721 23.8113C7.77382 23.9279 7.83934 24.0861 7.83934 24.251C7.83934 24.4159 7.77382 24.5741 7.65721 24.6907C7.54059 24.8073 7.38243 24.8728 7.21751 24.8728ZM24.0067 24.8728H22.1412C21.9763 24.8728 21.8181 24.8073 21.7015 24.6907C21.5849 24.5741 21.5194 24.4159 21.5194 24.251C21.5194 24.0861 21.5849 23.9279 21.7015 23.8113C21.8181 23.6947 21.9763 23.6292 22.1412 23.6292H24.0067V24.8728ZM6.9122 29.4532L6.29038 28.3762L7.90711 27.4435C8.04993 27.361 8.21966 27.3387 8.37895 27.3813C8.53824 27.424 8.67406 27.5282 8.75652 27.671C8.83898 27.8139 8.86132 27.9836 8.81864 28.1429C8.77596 28.3022 8.67175 28.438 8.52893 28.5204L6.9122 29.4532ZM20.6028 20.831C20.5204 20.6882 20.498 20.5185 20.5407 20.3592C20.5834 20.1999 20.6876 20.0641 20.8304 19.9816L22.4472 19.0489L23.069 20.1259L21.4522 21.0586C21.3094 21.141 21.1397 21.1634 20.9804 21.1207C20.8211 21.078 20.6853 20.9738 20.6028 20.831ZM10.5542 32.6394L9.47721 32.0176L10.4099 30.4008C10.4924 30.258 10.6282 30.1538 10.7875 30.1111C10.9468 30.0685 11.1165 30.0908 11.2594 30.1732C11.4022 30.2557 11.5064 30.3915 11.5491 30.5508C11.5917 30.7101 11.5694 30.8798 11.4869 31.0227L10.5542 32.6394ZM18.0994 18.3276C17.9566 18.2451 17.8524 18.1093 17.8097 17.95C17.767 17.7907 17.7893 17.621 17.8718 17.4781L18.8045 15.8614L19.8815 16.4832L18.9488 18.1C18.8663 18.2428 18.7305 18.347 18.5712 18.3897C18.4119 18.4324 18.2422 18.41 18.0994 18.3276Z" fill="#3F4D56"/>
<path d="M14.6796 13.0581C12.4659 13.0581 10.3019 13.7146 8.46123 14.9445C6.62058 16.1743 5.18598 17.9224 4.33882 19.9676C3.49167 22.0128 3.27001 24.2633 3.70189 26.4345C4.13376 28.6057 5.19977 30.6001 6.76511 32.1654C8.33045 33.7307 10.3248 34.7968 12.496 35.2286C14.6672 35.6605 16.9177 35.4389 18.9629 34.5917C21.0081 33.7445 22.7562 32.3099 23.9861 30.4693C25.2159 28.6286 25.8724 26.4646 25.8724 24.2509C25.8724 21.2824 24.6931 18.4355 22.5941 16.3364C20.495 14.2374 17.6481 13.0581 14.6796 13.0581ZM14.6796 32.9564C12.9578 32.9564 11.2747 32.4458 9.84309 31.4893C8.41148 30.5327 7.29567 29.1731 6.63677 27.5824C5.97787 25.9916 5.80548 24.2413 6.14138 22.5526C6.47728 20.8639 7.3064 19.3127 8.52389 18.0952C9.74137 16.8777 11.2925 16.0486 12.9812 15.7127C14.6699 15.3768 16.4203 15.5492 18.0111 16.2081C19.6018 16.867 20.9614 17.9828 21.918 19.4144C22.8745 20.846 23.3851 22.5291 23.3851 24.2509C23.3851 26.5598 22.4679 28.774 20.8353 30.4066C19.2027 32.0392 16.9884 32.9564 14.6796 32.9564Z" fill="#FFD246"/>
<path d="M15.9225 14.3019C13.7838 14.3004 11.6896 14.9121 9.88792 16.0645C8.08628 17.2169 6.65281 18.8617 5.75741 20.8039C4.86202 22.7461 4.54224 24.9044 4.83599 27.0228C5.12973 29.1412 6.02468 31.131 7.41476 32.7563C9.55405 34.5884 12.3059 35.5459 15.1204 35.4375C17.9349 35.329 20.6049 34.1626 22.5968 32.1713C24.5888 30.1799 25.756 27.5103 25.8654 24.6959C25.9747 21.8814 25.0181 19.1293 23.1866 16.9894C21.1647 15.2535 18.5874 14.3 15.9225 14.3019ZM14.6789 32.9565C12.9571 32.9565 11.274 32.446 9.84236 31.4894C8.41075 30.5328 7.29494 29.1732 6.63605 27.5825C5.97715 25.9917 5.80475 24.2414 6.14065 22.5527C6.47656 20.864 7.30568 19.3128 8.52316 18.0953C9.74065 16.8778 11.2918 16.0487 12.9805 15.7128C14.6692 15.3769 16.4196 15.5493 18.0103 16.2082C19.601 16.8671 20.9607 17.9829 21.9172 19.4145C22.8738 20.8461 23.3844 22.5292 23.3844 24.251C23.3844 26.5599 22.4672 28.7741 20.8346 30.4067C19.202 32.0393 16.9877 32.9565 14.6789 32.9565Z" fill="#FFBE37"/>
<path d="M14.6796 25.8055C15.5381 25.8055 16.2341 25.1095 16.2341 24.2509C16.2341 23.3923 15.5381 22.6964 14.6796 22.6964C13.821 22.6964 13.125 23.3923 13.125 24.2509C13.125 25.1095 13.821 25.8055 14.6796 25.8055Z" fill="#5A6978"/>
</svg>
