<svg width="23" height="22" viewBox="0 0 23 22" fill="none" xmlns="http://www.w3.org/2000/svg">
<path d="M7.08203 8.42102L11.902 11.213L16.682 8.43902" stroke="#292D32" stroke-width="1.2" stroke-linecap="round" stroke-linejoin="round"/>
<path d="M11.9023 16.16V11.204" stroke="#292D32" stroke-width="1.2" stroke-linecap="round" stroke-linejoin="round"/>
<path d="M10.7741 5.72003L7.86406 7.33903C7.51651 7.55872 7.22635 7.85811 7.01765 8.21237C6.80896 8.56663 6.68774 8.96555 6.66406 9.37603L6.66406 12.458C6.68586 12.869 6.80629 13.2686 7.01516 13.6232C7.22403 13.9777 7.51521 14.2768 7.86406 14.495L10.7741 16.114C11.127 16.2847 11.514 16.3734 11.9061 16.3734C12.2981 16.3734 12.6851 16.2847 13.0381 16.114L15.9481 14.495C16.2956 14.2753 16.5858 13.976 16.7945 13.6217C17.0032 13.2674 17.1244 12.8685 17.1481 12.458V9.36703C17.1263 8.9561 17.0058 8.55646 16.797 8.2019C16.5881 7.84735 16.2969 7.54829 15.9481 7.33003L13.0381 5.71103C12.685 5.53972 12.2974 5.45146 11.905 5.45302C11.5126 5.45458 11.1257 5.54592 10.7741 5.72003Z" stroke="#292D32" stroke-width="1.2" stroke-linecap="round" stroke-linejoin="round"/>
<path d="M20.9939 13.64C20.9944 14.476 20.8302 15.3039 20.5105 16.0764C20.1908 16.8488 19.722 17.5507 19.1308 18.1419C18.5397 18.733 17.8378 19.2018 17.0653 19.5215C16.2928 19.8412 15.4649 20.0055 14.6289 20.005L15.5839 18.414" stroke="#292D32" stroke-width="1.2" stroke-linecap="round" stroke-linejoin="round"/>
<path d="M2.8086 8.18397C2.80807 7.34796 2.97235 6.52004 3.29203 5.74757C3.61172 4.97509 4.08054 4.27321 4.67169 3.68206C5.26284 3.09091 5.96472 2.62209 6.73719 2.30241C7.50967 1.98272 8.33758 1.81845 9.17359 1.81897L8.21959 3.40997" stroke="#292D32" stroke-width="1.2" stroke-linecap="round" stroke-linejoin="round"/>
</svg>
