<svg width="23" height="22" viewBox="0 0 23 22" fill="none" xmlns="http://www.w3.org/2000/svg">
<path d="M9.00098 1.81897L5.70898 5.11897" stroke="#292D32" stroke-width="1.2" stroke-linecap="round" stroke-linejoin="round"/>
<path d="M14.8027 1.81897L18.0947 5.11897" stroke="#292D32" stroke-width="1.2" stroke-linecap="round" stroke-linejoin="round"/>
<path d="M2.80859 7.13901C2.80859 5.45601 3.70859 5.32001 4.82759 5.32001H18.9766C20.0946 5.32001 20.9956 5.45601 20.9956 7.13901C20.9956 9.09401 20.0956 8.95801 18.9766 8.95801H4.82759C3.70859 8.95701 2.80859 9.09401 2.80859 7.13901Z" stroke="#292D32" stroke-width="1.2"/>
<path d="M9.86523 12.731V15.959" stroke="#292D32" stroke-width="1.2" stroke-linecap="round"/>
<path d="M14.0488 12.731V15.959" stroke="#292D32" stroke-width="1.2" stroke-linecap="round"/>
<path d="M4.17383 9.09302L5.45583 16.95C5.74683 18.714 6.44683 20.005 9.04783 20.005H14.5308C17.3588 20.005 17.7768 18.768 18.1048 17.059L19.6328 9.09302" stroke="#292D32" stroke-width="1.2" stroke-linecap="round"/>
</svg>
