<svg width="65" height="41" viewBox="0 0 65 41" fill="none" xmlns="http://www.w3.org/2000/svg">
<path d="M20.5681 19.2193C20.5681 19.8641 20.5152 20.491 20.4271 21.0642C20.3389 21.6553 20.1803 22.2285 20.0041 22.8017C19.8102 23.3748 19.5811 23.948 19.2815 24.5391C18.9995 25.1123 18.6646 25.7213 18.2768 26.3661C18.0477 26.7243 17.8186 27.0647 17.5895 27.3871C17.3604 27.7095 17.1312 28.0319 16.9021 28.3006C16.673 28.5872 16.4615 28.8379 16.25 29.0708C16.0385 29.3036 15.8446 29.4827 15.686 29.644C15.3511 29.9485 14.9105 30.2709 14.3642 30.5575C13.8178 30.862 13.2185 31.1485 12.5312 31.4172C11.8791 31.6859 11.227 31.9008 10.6101 32.0441C9.99322 32.1874 9.41161 32.2591 8.86524 32.2591C8.31887 32.2591 7.82538 32.1874 7.38476 32.062C6.94414 31.9367 6.57402 31.7396 6.25678 31.4709C5.95716 31.2023 5.71041 30.8619 5.55179 30.45C5.39317 30.038 5.30504 29.5544 5.30504 28.9812C5.30504 28.623 5.37554 28.2827 5.49892 27.9961C5.62229 27.6916 5.79854 27.4408 6.01003 27.2438C6.22153 27.0288 6.4859 26.8676 6.7679 26.7602C7.04989 26.6527 7.36714 26.581 7.70201 26.581C7.89588 26.581 8.07213 26.599 8.21312 26.6169C8.35412 26.6348 8.49512 26.6706 8.61849 26.7064C8.74187 26.7422 8.86524 26.796 8.98861 26.8676C9.11199 26.9393 9.25298 27.0109 9.4116 27.1184C9.92272 27.405 10.3105 27.5483 10.5925 27.5483C10.7335 27.5483 10.9097 27.5125 11.1565 27.4587C11.4032 27.405 11.6323 27.3154 11.8967 27.208C12.1434 27.1005 12.3902 26.993 12.6193 26.8676C12.8484 26.7422 13.0247 26.6348 13.1657 26.5273C13.571 26.1691 13.994 25.7213 14.417 25.1839C14.84 24.6466 15.2278 24.0734 15.5626 23.4644C15.9151 22.8554 16.1795 22.2285 16.4086 21.5837C16.6201 20.9388 16.7259 20.3298 16.7259 19.7746C16.7259 19.3089 16.6377 18.879 16.4791 18.5028C16.3205 18.1267 16.109 17.7864 15.8446 17.4819C15.5979 17.1774 15.2983 16.9266 14.981 16.7117C14.6638 16.4967 14.3642 16.3176 14.0645 16.1922C13.7649 16.0489 13.5005 15.9594 13.2362 15.8877C12.9894 15.8161 12.7779 15.7803 12.6546 15.7803C12.2668 15.7803 11.9496 15.7982 11.6852 15.834C11.4208 15.8698 11.1917 15.9235 10.9802 15.9773C10.7687 16.031 10.5748 16.1206 10.3986 16.2101C10.2047 16.2997 10.0108 16.4072 9.79935 16.5325C9.57023 16.6579 9.35873 16.7654 9.16486 16.837C8.98861 16.9087 8.79474 16.9445 8.60087 16.9445C8.3365 16.9445 8.08975 16.8908 7.87825 16.7654C7.64913 16.6579 7.47289 16.4967 7.31426 16.3176C7.15564 16.1206 7.04989 15.9056 6.96177 15.6728C6.87364 15.422 6.8384 15.1892 6.8384 14.9384C6.8384 14.4906 6.89127 14.0965 6.99702 13.7204C7.10277 13.3622 7.26139 13.0398 7.45526 12.7711C7.64913 12.5024 7.86063 12.2875 8.10738 12.1263C8.35412 11.9651 8.60087 11.8397 8.86524 11.768C9.00624 11.7322 9.18248 11.6964 9.35873 11.6785C9.5526 11.6606 9.72885 11.6606 9.9051 11.6426C10.0813 11.6426 10.24 11.6247 10.3633 11.6247C10.5043 11.6247 10.5748 11.6247 10.6101 11.6068C10.8392 11.4277 11.1212 11.2128 11.4384 10.9441C11.7557 10.6754 12.0906 10.3709 12.4431 10.0485C12.7956 9.72608 13.148 9.36785 13.4829 9.00961C13.8354 8.65138 14.1527 8.27523 14.4347 7.917C14.7167 7.55876 14.9458 7.21844 15.1044 6.89602C15.2806 6.57361 15.3511 6.28702 15.3511 6.05417C15.3511 5.55264 15.1749 5.1765 14.8224 4.92573C14.4699 4.67497 13.8883 4.54959 13.0775 4.54959C12.4431 4.54959 11.7204 4.63914 10.9097 4.80035C10.099 4.96156 9.30586 5.19441 8.53037 5.51682C8.1955 5.66011 7.87825 5.82132 7.54338 6.00044C7.20851 6.19747 6.90889 6.3945 6.60927 6.60944C6.30965 6.82438 6.06291 7.05723 5.81616 7.29008C5.58704 7.54085 5.39317 7.7737 5.25217 8.02447C5.21692 8.0782 5.1993 8.22149 5.16405 8.43644C5.14642 8.65138 5.1288 8.95588 5.11117 9.36785C5.09355 9.77982 5.09355 10.2813 5.07592 10.9083C5.0583 11.5352 5.04067 12.2875 5.00542 13.1651C4.9878 13.7383 4.97017 14.204 4.95255 14.5623C4.93492 14.9205 4.9173 15.2787 4.89967 15.6011C4.88205 15.9235 4.8468 16.2639 4.81155 16.6221C4.7763 16.9803 4.74105 17.4281 4.68818 17.9834C4.60005 18.7536 4.52956 19.488 4.45906 20.1865C4.38856 20.8851 4.35331 21.512 4.35331 22.0315V25.7392C4.35331 27.0826 4.15944 28.0498 3.77169 28.6588C3.38395 29.2678 2.80233 29.5723 2.04447 29.5723C1.6391 29.5723 1.30423 29.4827 1.03986 29.2857C0.775488 29.0887 0.563991 28.82 0.405369 28.4439C0.246746 28.0677 0.140998 27.602 0.0881236 27.0288C0.0352495 26.4557 0 25.8108 0 25.0585C0 25.0406 0.0176247 24.8973 0.0528742 24.6107C0.0881236 24.3242 0.123373 23.948 0.176247 23.5181C0.229121 23.0703 0.281996 22.6046 0.33487 22.0673C0.387744 21.5478 0.440618 21.0463 0.493492 20.5627C0.546367 20.0791 0.599241 19.6671 0.63449 19.291C0.66974 18.9148 0.687364 18.664 0.704989 18.5566C0.722614 18.5028 0.740239 18.2879 0.757863 17.9297C0.775488 17.5714 0.810738 17.1415 0.863612 16.64C0.898861 16.1385 0.951735 15.5832 0.986985 15.01C1.02223 14.4369 1.07511 13.8816 1.11036 13.3622C1.14561 12.8427 1.19848 12.4128 1.21611 12.0367C1.25136 11.6785 1.26898 11.4635 1.26898 11.3919C1.4276 10.353 1.46285 9.72608 1.46285 9.52905C1.46285 9.38576 1.44523 9.20664 1.4276 9.02752C1.40998 8.83049 1.37473 8.65138 1.3571 8.45435C1.33948 8.23941 1.32185 8.06029 1.28661 7.917C1.26898 7.75579 1.25136 7.64832 1.25136 7.59458C1.25136 7.07514 1.28661 6.57361 1.3571 6.10791C1.4276 5.6422 1.55098 5.23023 1.72722 4.83617C2.15022 3.79729 2.60846 3.24203 3.10195 3.15247C3.40157 3.09873 3.71882 3.02709 4.01844 2.91962C4.31806 2.81214 4.60005 2.70467 4.86443 2.5972C6.18628 2.05985 7.22614 1.61206 8.00163 1.27173C8.77711 0.931411 9.27061 0.71647 9.51735 0.626911C9.8346 0.501529 10.1518 0.394059 10.4867 0.3045C10.8216 0.214941 11.1565 0.143294 11.5266 0.107471C11.8967 0.0537353 12.3021 0.0179118 12.7427 0C13.2009 0.0179118 13.6944 0 14.2408 0C14.5757 0 14.9458 0.071647 15.3688 0.214941C15.7741 0.358235 16.1795 0.573176 16.5496 0.823941C16.9374 1.07471 17.2899 1.37921 17.6071 1.71953C17.9244 2.05985 18.1711 2.436 18.3473 2.83006C18.4178 2.99126 18.4883 3.2062 18.5588 3.45697C18.6293 3.70773 18.6998 3.9585 18.7527 4.24509C18.8056 4.51376 18.8585 4.78244 18.8937 5.05111C18.929 5.31979 18.9466 5.55264 18.9466 5.74967C18.9466 6.77064 18.6293 7.82744 17.9949 8.90214C17.3604 9.97685 16.4439 11.159 15.2454 12.4487C15.968 12.7353 16.6554 13.1114 17.2899 13.5771C17.942 14.0428 18.506 14.5981 18.9818 15.1892C19.4753 15.7982 19.8631 16.443 20.1451 17.1415C20.4271 17.8222 20.5681 18.5208 20.5681 19.2193ZM52.4336 12.2337C52.4336 12.3412 52.4159 12.4487 52.3983 12.5561C52.3807 12.6636 52.3454 12.789 52.2926 12.9144C51.9048 13.8816 51.4642 14.8847 50.9355 15.9415C50.4244 16.9803 49.8604 18.0013 49.2435 18.9865C48.6266 19.9716 47.9921 20.9209 47.3224 21.8165C46.6527 22.7121 45.9829 23.4823 45.3132 24.163C44.6434 24.8257 43.9737 25.363 43.3216 25.7571C42.6695 26.1512 42.035 26.3482 41.4534 26.3482C40.8541 26.3482 40.2901 26.2228 39.7966 25.99C39.2855 25.7571 38.8625 25.381 38.4924 24.8436C38.1223 24.3242 37.8403 23.6435 37.6288 22.8196C37.4173 21.9956 37.3116 20.9926 37.3116 19.8283C37.1353 20.1865 36.9414 20.5806 36.6947 21.0105C36.4479 21.4404 36.2012 21.8882 35.9368 22.336C35.6725 22.7837 35.3905 23.2136 35.0908 23.6256C34.7912 24.0376 34.5092 24.4137 34.2272 24.7182C33.9805 25.0048 33.6632 25.3451 33.2755 25.7392C32.9054 26.1332 32.4648 26.5273 31.9889 26.8855C31.513 27.2438 30.9667 27.5841 30.385 27.8528C29.8034 28.1215 29.1866 28.2827 28.5168 28.3364C27.6532 28.3364 26.9658 28.1394 26.4547 27.7632C25.9436 27.3871 25.5735 26.8855 25.3267 26.2765C25.08 25.6675 24.9037 25.0048 24.8509 24.2883C24.7804 23.554 24.7451 22.8554 24.7451 22.1568C24.7451 22.0852 24.7451 21.9061 24.7627 21.5837C24.7804 21.2792 24.798 20.8851 24.8509 20.4373C24.8861 19.9716 24.939 19.4701 25.0095 18.879C25.08 18.3058 25.1681 17.7147 25.2562 17.0878C25.362 16.4609 25.4677 15.8519 25.6087 15.225C25.7497 14.5981 25.9084 14.0249 26.0846 13.4696C26.1727 13.1831 26.2785 12.9323 26.3666 12.6815C26.4547 12.4487 26.5605 12.2337 26.6838 12.0725C26.8072 11.9113 26.9482 11.768 27.1068 11.6606C27.2831 11.5531 27.4946 11.4993 27.7413 11.4814C28.0762 11.4814 28.3406 11.5531 28.5521 11.6964C28.7636 11.8397 28.9398 12.0188 29.0808 12.2337C29.2218 12.4487 29.3099 12.6994 29.3628 12.9681C29.4157 13.2368 29.4509 13.5055 29.4509 13.7562C29.4509 13.9533 29.3804 14.3115 29.2394 14.8309C29.0984 15.3504 28.9398 15.9773 28.7636 16.7296C28.5873 17.4819 28.4463 18.3416 28.2877 19.3268C28.1467 20.294 28.0762 21.3508 28.0762 22.4613C28.0762 23.0345 28.1467 23.4823 28.3053 23.8047C28.4463 24.1271 28.6578 24.3062 28.8869 24.3062C29.2218 24.3062 29.5567 24.2346 29.8739 24.1092C30.1912 23.9659 30.5084 23.8047 30.8257 23.5898C31.1253 23.3748 31.4249 23.1241 31.7245 22.8554C32.0241 22.5867 32.2885 22.3001 32.5529 22.0135C32.8701 21.6732 33.2226 21.2433 33.5927 20.7239C33.9629 20.2045 34.333 19.6313 34.7031 19.0581C35.0556 18.467 35.3905 17.8938 35.7077 17.3207C36.0073 16.7475 36.2541 16.2639 36.4303 15.834C36.5184 15.619 36.6418 15.3325 36.7652 14.9742C36.8886 14.616 37.0119 14.2398 37.1353 13.8458C37.2587 13.4517 37.3644 13.0756 37.4526 12.7173C37.5407 12.3591 37.6112 12.0725 37.664 11.8576C37.6993 11.6606 37.7169 11.4993 37.7522 11.3561C37.7698 11.2128 37.805 11.0695 37.8403 10.9262C37.8579 10.7829 37.8932 10.6217 37.946 10.4605C37.9813 10.2993 38.0342 10.1201 38.1047 9.9052C38.1399 9.76191 38.228 9.61861 38.3514 9.47532C38.4748 9.31411 38.5982 9.17082 38.7568 9.04543C38.9154 8.92005 39.074 8.81258 39.2503 8.72302C39.4265 8.63346 39.5851 8.59764 39.7438 8.59764C40.2196 8.59764 40.5898 8.77676 40.8365 9.11708C41.0832 9.45741 41.2242 9.88729 41.2419 10.3888C41.2066 10.6575 41.1361 11.1053 41.0304 11.7322C40.9246 12.3591 40.8189 13.0577 40.7131 13.8458C40.6074 14.616 40.5193 15.422 40.4488 16.2639C40.3783 17.0878 40.343 17.858 40.343 18.5387C40.343 19.7208 40.4664 20.6702 40.7308 21.3508C40.9951 22.0315 41.3652 22.3718 41.8411 22.3718C42.1936 22.3718 42.5813 22.2464 42.9691 21.9956C43.3568 21.7449 43.7798 21.4045 44.2028 20.9926C44.6258 20.5806 45.0488 20.097 45.4894 19.5417C45.9124 18.9865 46.3354 18.4133 46.7584 17.8043C47.1814 17.1953 47.5868 16.5863 47.9569 15.9594C48.3446 15.3325 48.7148 14.7593 49.0496 14.204C49.5431 13.398 49.9837 12.7173 50.3891 12.18C50.7945 11.6426 51.1822 11.374 51.57 11.374C51.6405 11.374 51.711 11.3919 51.8167 11.4098C51.9225 11.4456 52.0106 11.4814 52.1163 11.5531C52.2044 11.6247 52.2926 11.7143 52.3631 11.8218C52.3983 11.9113 52.4336 12.0546 52.4336 12.2337ZM65 13.1831C64.9824 13.4159 64.9295 13.7741 64.8061 14.2757C64.6828 14.7772 64.5418 15.3504 64.3655 16.0131C64.1893 16.6758 63.9954 17.3923 63.7663 18.1983C63.5371 18.9865 63.308 19.8104 63.0789 20.6343C62.8498 21.4762 62.6207 22.318 62.4092 23.1599C62.18 24.0017 61.9862 24.8078 61.8275 25.5601C61.8099 25.5959 61.7747 25.7929 61.6866 26.1153C61.5984 26.4377 61.5103 26.8676 61.3693 27.3871C61.2459 27.9065 61.1049 28.4976 60.9463 29.1424C60.7877 29.8052 60.6291 30.4679 60.4528 31.1665C60.2766 31.865 60.118 32.5277 59.9593 33.1905C59.8007 33.8532 59.6421 34.4443 59.5187 34.9637C59.3953 35.4832 59.2896 35.931 59.2015 36.2713C59.1133 36.6116 59.0605 36.8087 59.0605 36.8445C58.9723 37.2027 58.8842 37.6326 58.7785 38.1162C58.6727 38.5998 58.5317 39.0655 58.3731 39.4775C58.1969 39.9074 57.9677 40.2656 57.6857 40.5522C57.4037 40.8567 57.016 41 56.5578 41C56.2934 41 56.0643 40.9284 55.8528 40.803C55.6413 40.6597 55.465 40.4985 55.324 40.2835C55.183 40.0686 55.0773 39.8357 54.9892 39.5671C54.901 39.2984 54.8658 39.0476 54.8658 38.7789C54.8658 38.4744 54.9187 38.0804 55.042 37.5968C55.1654 37.0952 55.3064 36.5579 55.4826 35.9847C55.6589 35.4115 55.8528 34.7846 56.0466 34.1219C56.2581 33.4592 56.452 32.8143 56.6283 32.1874C56.7869 31.668 56.9279 31.1844 57.0512 30.7545C57.1746 30.3246 57.3156 29.841 57.4742 29.3036C57.6329 28.7663 57.7915 28.2289 57.9501 27.6916C58.1087 27.1542 58.2674 26.6348 58.4084 26.1512C58.5494 25.6675 58.6727 25.2556 58.7608 24.9332C58.5141 25.1839 58.2321 25.4705 57.9149 25.7571C57.5976 26.0616 57.2627 26.3482 56.9103 26.6527C56.5578 26.9572 56.1876 27.2438 55.7823 27.5304C55.3945 27.799 55.0068 28.0498 54.619 28.2647C54.2313 28.4797 53.8435 28.6588 53.4734 28.7842C53.1033 28.9096 52.7332 28.9812 52.3983 28.9812C51.6757 28.9812 51.0236 28.82 50.4596 28.5155C49.8956 28.211 49.4197 27.817 49.0496 27.3333C48.6619 26.8497 48.3799 26.3303 48.186 25.7571C47.9921 25.1839 47.8864 24.6287 47.8864 24.0913C47.8864 23.6793 47.9216 23.1957 47.9921 22.5867C48.0626 21.9956 48.1508 21.3508 48.2741 20.6702C48.3975 19.9895 48.5385 19.273 48.7148 18.5387C48.891 17.8043 49.0672 17.0878 49.2611 16.4072C49.455 15.7265 49.6489 15.0817 49.8604 14.4906C50.0719 13.8995 50.2834 13.4159 50.4949 13.0218C50.8297 12.4128 51.147 11.983 51.4466 11.7501C51.7462 11.5173 52.0811 11.3919 52.4159 11.3919C52.7508 11.3919 53.0152 11.4456 53.2267 11.571C53.4382 11.6964 53.5968 11.8576 53.7025 12.0725C53.8259 12.2875 53.8964 12.5382 53.9493 12.8069C53.9845 13.0756 54.0198 13.3622 54.0198 13.6846C54.0198 13.8816 53.9669 14.1503 53.8436 14.4906C53.7202 14.8488 53.5792 15.2608 53.3853 15.7444C53.2267 16.1564 53.0328 16.6579 52.8213 17.2311C52.6098 17.8043 52.4159 18.4312 52.2397 19.0939C52.0634 19.7567 51.9048 20.4552 51.7815 21.1896C51.6581 21.924 51.5876 22.6584 51.5876 23.3927C51.5876 23.6435 51.6405 23.8585 51.7462 24.0376C51.852 24.2167 51.9753 24.36 52.1163 24.4495C52.2573 24.557 52.4159 24.6287 52.5569 24.6645C52.7156 24.7182 52.8389 24.7361 52.9271 24.7361C53.3148 24.7361 53.7025 24.6466 54.1255 24.4495C54.5485 24.2525 54.9539 24.0017 55.3593 23.7152C55.7646 23.4286 56.17 23.1062 56.5578 22.7837C56.9455 22.4613 57.3156 22.1568 57.6681 21.8882C57.9501 21.6553 58.2674 21.3687 58.6198 21.0105C58.9723 20.6523 59.272 20.2582 59.5187 19.8104C59.6421 19.6134 59.7831 19.2551 59.9417 18.7357C60.1003 18.2163 60.2766 17.6252 60.4528 16.9624C60.6291 16.2997 60.8053 15.619 60.9816 14.9205C61.1578 14.2219 61.2988 13.595 61.4398 13.0218C61.5279 12.6099 61.6513 12.2696 61.8099 11.9651C61.9685 11.6606 62.1272 11.4098 62.3034 11.2128C62.4797 11.0157 62.6559 10.8724 62.8498 10.765C63.0437 10.6575 63.2023 10.6217 63.3609 10.6217C63.7134 10.6217 64.013 10.6575 64.2245 10.7471C64.436 10.8366 64.6123 10.962 64.718 11.159C64.8414 11.3561 64.9119 11.6247 64.9471 11.9471C64.9824 12.2696 65 12.6815 65 13.1651V13.1831Z" fill="url(#paint0_linear_438_1037)"/>
<defs>
<linearGradient id="paint0_linear_438_1037" x1="0.0528742" y1="20.4995" x2="65.0056" y2="20.4995" gradientUnits="userSpaceOnUse">
<stop stop-color="#5B2484"/>
<stop offset="1" stop-color="#7C299F"/>
</linearGradient>
</defs>
</svg>
