<svg width="53" height="25" viewBox="0 0 53 25" fill="none" xmlns="http://www.w3.org/2000/svg">
<path d="M12.4475 17.0467L15.5956 17.521C15.2134 20.9511 13.3556 22.9302 10.0221 23.4581C7.83841 23.804 5.99343 23.3171 4.4872 21.9974C3.07401 20.7658 2.1902 19.0312 1.83578 16.7934C1.46181 14.4322 1.75085 12.4367 2.7029 10.8067C3.73044 9.0541 5.40166 7.99447 7.71655 7.62782C9.57619 7.33329 11.1798 7.64485 12.5275 8.56252C13.3258 9.10841 13.9952 9.96345 14.5355 11.1276L11.5953 12.3408C11.292 11.5741 10.8149 11.009 10.164 10.6454C9.52094 10.2806 8.79041 10.1629 7.97248 10.2925C5.43382 10.6946 4.43702 12.6163 4.9821 16.0578C5.54795 19.6305 7.08092 21.2188 9.58101 20.8228C11.3403 20.5442 12.2958 19.2855 12.4475 17.0467ZM19.9321 13.7374L17.2045 13.6711C17.3428 12.4469 17.7934 11.5213 18.5563 10.8942C19.2144 10.3549 20.1955 9.98201 21.4996 9.77547C23.745 9.41983 25.251 9.73895 26.0174 10.7328C26.3747 11.1904 26.6446 12.0454 26.8271 13.2979L27.3332 16.7179C27.5601 18.2006 27.9758 19.3767 28.5801 20.246L25.6865 20.7043C25.5686 20.5094 25.4264 20.2353 25.2597 19.882C25.1763 19.7054 25.1239 19.599 25.1023 19.5628C24.2609 20.6928 23.1959 21.3598 21.9073 21.5639C20.8579 21.7301 19.9535 21.5885 19.1942 21.1393C18.3735 20.6523 17.8819 19.8957 17.7194 18.8694C17.5116 17.5576 17.9309 16.5341 18.9772 15.7989C19.4835 15.4498 20.2229 15.0993 21.1955 14.7475C22.5364 14.2741 23.4476 13.8846 23.9292 13.5789L23.8833 13.2896C23.7843 12.6646 23.5352 12.265 23.1358 12.091C22.821 11.951 22.3241 11.9348 21.645 12.0423C20.6805 12.1951 20.1095 12.7601 19.9321 13.7374ZM24.2316 15.4887C24.1078 15.5558 23.5362 15.7927 22.517 16.1993C21.7142 16.5242 21.2099 16.786 21.004 16.9847C20.6675 17.307 20.5328 17.6803 20.6 18.1047C20.6697 18.5445 20.8853 18.8821 21.2469 19.1175C21.6073 19.3452 22.0112 19.4236 22.4588 19.3527C22.9912 19.2684 23.4653 19.0153 23.881 18.5935C24.1956 18.2827 24.3802 17.9252 24.4349 17.521C24.4705 17.2464 24.4333 16.7619 24.3233 16.0675L24.2316 15.4887ZM29.3066 16.8918L32.1768 15.9863C32.6148 17.1034 33.4935 17.5575 34.813 17.3485C36.2097 17.1273 36.8444 16.6155 36.7173 15.813C36.6464 15.3654 36.2034 15.1152 35.3882 15.0624C32.9285 14.9141 31.3564 14.6767 30.6719 14.3501C29.6981 13.8952 29.1269 13.1354 28.9582 12.0705C28.77 10.8822 29.1343 9.91093 30.051 9.15667C30.7932 8.54871 31.8047 8.1433 33.0856 7.94042C34.3819 7.7351 35.426 7.75958 36.2177 8.01386C37.2003 8.32491 37.9429 9.01806 38.4454 10.0933L35.7598 11.0407C35.3788 10.1835 34.6134 9.84597 33.4637 10.0281C32.1365 10.2383 31.5218 10.652 31.6196 11.2693C31.6526 11.4777 31.7771 11.6399 31.9933 11.7559C32.3284 11.9243 33.3112 12.0613 34.9415 12.167C36.5308 12.2633 37.6668 12.5184 38.3493 12.9324C39.0318 13.3463 39.447 14.0201 39.5949 14.9538C39.7941 16.2116 39.3946 17.2596 38.3962 18.098C37.5737 18.7978 36.4911 19.254 35.1485 19.4667C32.2008 19.9335 30.2535 19.0752 29.3066 16.8918ZM43.2113 2.27889L44.1004 7.89251C44.8748 6.63876 45.9178 5.908 47.2296 5.70023C48.634 5.4778 49.7189 5.76078 50.4845 6.54916C51.0693 7.14471 51.4924 8.26813 51.7539 9.91942L52.7824 16.4127L49.854 16.8765L48.9282 11.0314C48.7865 10.1363 48.6906 9.60571 48.6405 9.43961C48.4453 8.80611 48.1346 8.39259 47.7084 8.19906C47.3936 8.05909 47.024 8.02271 46.5996 8.08993C45.527 8.25981 44.8884 8.84741 44.6838 9.85273C44.5821 10.3593 44.6046 11.0755 44.7512 12.0015L45.6293 17.5456L42.701 18.0094L40.283 2.7427L43.2113 2.27889Z" fill="#F4A911"/>
</svg>
