<svg width="24" height="24" viewBox="0 0 24 24" fill="none" xmlns="http://www.w3.org/2000/svg">
<path d="M18.04 13.55C17.8244 13.7595 17.6585 14.0147 17.5546 14.2968C17.4508 14.5789 17.4116 14.8807 17.44 15.18C17.5047 15.7038 17.7614 16.1849 18.1604 16.5303C18.5594 16.8758 19.0724 17.0609 19.6 17.05H21.5V18.24C21.4979 19.2366 21.1011 20.1917 20.3964 20.8964C19.6917 21.6011 18.7366 21.9979 17.74 22H6.26C5.26344 21.9979 4.30829 21.6011 3.60361 20.8964C2.89893 20.1917 2.50211 19.2366 2.5 18.24L2.5 11.51C2.50211 10.5134 2.89893 9.55829 3.60361 8.85361C4.30829 8.14893 5.26344 7.75211 6.26 7.75L17.74 7.75C18.7366 7.75211 19.6917 8.14893 20.3964 8.85361C21.1011 9.55829 21.4979 10.5134 21.5 11.51V12.95H19.48C19.212 12.948 18.9463 13.0002 18.6989 13.1033C18.4514 13.2063 18.2273 13.3583 18.04 13.55Z" stroke="#292D32" stroke-width="1.5" stroke-linecap="round" stroke-linejoin="round"/>
<path d="M2.50001 12.41V7.84C2.49872 7.26062 2.67416 6.69463 3.00292 6.21757C3.33169 5.7405 3.79813 5.37505 4.34001 5.17L12.28 2.17C12.5674 2.0617 12.8767 2.02468 13.1815 2.0621C13.4863 2.09952 13.7775 2.21027 14.0302 2.38486C14.2828 2.55945 14.4894 2.79267 14.6322 3.06456C14.7749 3.33645 14.8497 3.6389 14.85 3.946V7.746" stroke="#292D32" stroke-width="1.5" stroke-linecap="round" stroke-linejoin="round"/>
<path d="M22.5587 13.9701V16.0301C22.5569 16.2966 22.4516 16.5521 22.265 16.7424C22.0784 16.9327 21.8251 17.0431 21.5587 17.0501H19.5987C19.071 17.061 18.5581 16.8758 18.1591 16.5304C17.7601 16.185 17.5034 15.7038 17.4387 15.1801C17.4103 14.8808 17.4495 14.579 17.5533 14.2968C17.6571 14.0147 17.823 13.7595 18.0387 13.5501C18.226 13.3584 18.4501 13.2064 18.6975 13.1033C18.9449 13.0002 19.2106 12.9481 19.4787 12.9501H21.5587C21.8251 12.9571 22.0784 13.0674 22.265 13.2577C22.4516 13.4481 22.5569 13.7035 22.5587 13.9701Z" stroke="#292D32" stroke-width="1.5" stroke-linecap="round" stroke-linejoin="round"/>
<path d="M7 12H14" stroke="#292D32" stroke-width="1.5" stroke-linecap="round" stroke-linejoin="round"/>
</svg>
