<svg width="30" height="30" viewBox="0 0 30 30" fill="none" xmlns="http://www.w3.org/2000/svg">
<path d="M18.2284 5.49798V9.98298H16.4584V5.49798C16.4588 5.42056 16.44 5.34425 16.4038 5.27581C16.3676 5.20737 16.3151 5.14894 16.2509 5.1057C16.1866 5.06246 16.1127 5.03575 16.0357 5.02795C15.9587 5.02015 15.8809 5.0315 15.8094 5.06098L6.45235 8.59098C6.14796 8.70545 5.88615 8.91078 5.70243 9.17911C5.51871 9.44745 5.42198 9.7658 5.42535 10.091V10.882C4.87444 11.2929 4.42722 11.8269 4.11938 12.4413C3.81154 13.0558 3.65161 13.7337 3.65235 14.421V10.089C3.65086 9.40517 3.85798 8.73717 4.24607 8.17415C4.63416 7.61113 5.18476 7.17989 5.82435 6.93798L15.1954 3.39798C15.4485 3.30532 15.7158 3.25728 15.9854 3.25598C16.5796 3.25756 17.149 3.49425 17.5693 3.91434C17.9896 4.33442 18.2265 4.90376 18.2284 5.49798Z" fill="#434343"/>
<path d="M26.0753 17.9501V19.1301C26.0756 19.2846 26.0151 19.4331 25.907 19.5434C25.7989 19.6538 25.6517 19.7173 25.4973 19.7201H23.7743C23.4712 19.7268 23.1764 19.6206 22.9473 19.4221C22.7181 19.2237 22.5709 18.9471 22.5343 18.6461C22.5183 18.4732 22.5408 18.2989 22.6001 18.1357C22.6594 17.9726 22.7541 17.8245 22.8773 17.7021C22.9842 17.5916 23.1126 17.5041 23.2547 17.4453C23.3968 17.3865 23.5495 17.3575 23.7033 17.3601H25.4853C25.6416 17.3607 25.7913 17.423 25.9019 17.5335C26.0124 17.6441 26.0747 17.7938 26.0753 17.9501Z" fill="#434343"/>
<path d="M23.6923 16.121H24.8923C25.205 16.1199 25.5045 15.9953 25.7256 15.7742C25.9466 15.5531 26.0713 15.2536 26.0723 14.941V14.422C26.0697 13.2465 25.6018 12.1198 24.771 11.2882C23.9401 10.4566 22.8139 9.98769 21.6383 9.98399H8.09035C7.12612 9.98172 6.18817 10.2981 5.42235 10.884C4.87213 11.2951 4.42556 11.8291 4.11826 12.4433C3.81096 13.0576 3.65141 13.7351 3.65235 14.422V22.364C3.65499 23.5402 4.12341 24.6675 4.95513 25.4992C5.78684 26.3309 6.91413 26.7993 8.09035 26.802H21.6383C22.8146 26.7993 23.9419 26.3309 24.7736 25.4992C25.6053 24.6675 26.0737 23.5402 26.0763 22.364V22.14C26.0753 21.8274 25.9506 21.5278 25.7296 21.3068C25.5085 21.0857 25.209 20.961 24.8963 20.96H23.8693C23.3117 20.9758 22.7641 20.8091 22.3098 20.4853C21.8555 20.1615 21.5194 19.6983 21.3523 19.166C21.2588 18.8075 21.2484 18.4323 21.3219 18.0691C21.3955 17.706 21.5512 17.3645 21.7769 17.0707C22.0027 16.7769 22.2927 16.5386 22.6246 16.374C22.9566 16.2094 23.3218 16.1228 23.6923 16.121ZM17.2243 15.884H8.96335C8.72863 15.884 8.50353 15.7908 8.33756 15.6248C8.17159 15.4588 8.07835 15.2337 8.07835 14.999C8.07835 14.7643 8.17159 14.5392 8.33756 14.3732C8.50353 14.2072 8.72863 14.114 8.96335 14.114H17.2253C17.3416 14.114 17.4566 14.1369 17.564 14.1814C17.6714 14.2258 17.769 14.291 17.8511 14.3732C17.9333 14.4554 17.9985 14.5529 18.043 14.6603C18.0875 14.7677 18.1103 14.8828 18.1103 14.999C18.1103 15.1152 18.0875 15.2303 18.043 15.3377C17.9985 15.445 17.9333 15.5426 17.8511 15.6248C17.769 15.707 17.6714 15.7721 17.564 15.8166C17.4566 15.8611 17.3416 15.884 17.2253 15.884H17.2243Z" fill="#434343"/>
</svg>
