<?xml version="1.0" encoding="UTF-8"?>
<svg id="Layer_1" data-name="Layer 1" xmlns="http://www.w3.org/2000/svg" viewBox="0 0 22.07 18.05">
  <defs>
    <style>
      .cls-1 {
        fill: none;
        stroke: #292d32;
        stroke-linecap: round;
        stroke-linejoin: round;
        stroke-width: 1.5px;
      }

      .cls-2 {
        fill: #292d32;
      }
    </style>
  </defs>
  <path class="cls-1" d="m14.62,9.03c0,.71-.21,1.4-.6,1.99-.39.59-.95,1.05-1.61,1.32-.65.27-1.37.34-2.07.2-.69-.14-1.33-.48-1.83-.98-.5-.5-.84-1.14-.98-1.83-.14-.69-.07-1.41.2-2.07.27-.65.73-1.21,1.32-1.61.59-.39,1.28-.6,1.99-.6.47,0,.94.09,1.37.27.43.18.83.44,1.16.78.33.33.6.73.78,1.16.18.43.27.9.27,1.37Z"/>
  <path class="cls-1" d="m11.04,17.3c3.71,0,7.17-2.08,9.58-5.68.46-.79.71-1.68.71-2.6s-.25-1.81-.71-2.6C18.2,2.83,14.75.75,11.04.75S3.87,2.83,1.46,6.43c-.46.79-.71,1.68-.71,2.6,0,.91.25,1.81.71,2.6,2.41,3.6,5.87,5.68,9.58,5.68Z"/>
  <rect class="cls-2" x="10.45" y="-.29" width="1.17" height="18.65" rx=".59" ry=".59" transform="translate(8.54 -5.01) rotate(40.62)"/>
</svg>