<svg width="26" height="24" viewBox="0 0 26 24" fill="none" xmlns="http://www.w3.org/2000/svg">
<path d="M16.3182 12C16.3182 12.708 16.1082 13.4002 15.7149 13.9889C15.3215 14.5777 14.7624 15.0365 14.1082 15.3075C13.4541 15.5784 12.7342 15.6493 12.0398 15.5112C11.3453 15.3731 10.7074 15.0321 10.2068 14.5314C9.70609 14.0308 9.36513 13.3929 9.22699 12.6984C9.08886 12.004 9.15975 11.2841 9.43072 10.63C9.70168 9.97582 10.1605 9.4167 10.7493 9.02332C11.338 8.62995 12.0301 8.41999 12.7382 8.41999C13.2085 8.41946 13.6743 8.5117 14.1088 8.69142C14.5434 8.87115 14.9383 9.13483 15.2708 9.46737C15.6034 9.79991 15.867 10.1948 16.0468 10.6294C16.2265 11.0639 16.3187 11.5297 16.3182 12Z" stroke="#292D32" stroke-width="1.5" stroke-linecap="round" stroke-linejoin="round"/>
<path d="M12.7387 20.27C16.4487 20.27 19.9067 18.19 22.3147 14.59C22.7792 13.8041 23.0242 12.9079 23.0242 11.995C23.0242 11.0821 22.7792 10.1859 22.3147 9.39997C19.9067 5.79997 16.4537 3.71997 12.7387 3.71997C9.02368 3.71997 5.57068 5.79997 3.16268 9.39997C2.69817 10.1859 2.45313 11.0821 2.45312 11.995C2.45313 12.9079 2.69817 13.8041 3.16268 14.59C5.57068 18.19 9.02868 20.27 12.7387 20.27Z" stroke="#292D32" stroke-width="1.5" stroke-linecap="round" stroke-linejoin="round"/>
</svg>
