<svg width="94" height="76" viewBox="0 0 94 76" fill="none" xmlns="http://www.w3.org/2000/svg">
<path fill-rule="evenodd" clip-rule="evenodd" d="M77.2659 0.184082C86.0316 0.184082 93.2504 7.09351 93.2504 16.1686C93.2504 24.9343 85.9284 32.1531 77.2659 32.1531C68.1908 32.1531 61.2814 24.8312 61.2814 16.1686C61.2814 7.09351 68.1908 0.184082 77.2659 0.184082ZM76.9565 48.5501H35.8093C28.8998 34.3187 22.7123 19.4686 16.1122 4.82475H0.849609V10.2904H12.5028C19.1029 24.8312 25.2904 39.475 31.478 53.9127L76.9565 53.6033C77.2659 52.4689 76.9565 50.3032 76.9565 48.5501ZM67.1595 59.3783C64.272 60.1002 61.3845 62.6784 60.972 65.5659C59.8376 71.0315 63.1376 75.0535 67.1595 75.7753C73.6565 76.4972 78.0909 71.4441 76.9565 65.5659C76.2346 61.544 71.8002 58.6564 67.1595 59.3783ZM39.8312 59.3783C36.9437 60.1002 33.953 62.6784 33.6436 65.5659C32.5092 71.0315 36.2218 75.0535 39.8312 75.7753C46.4312 76.4972 50.7625 71.4441 50.0406 65.5659C48.9063 61.544 44.575 58.6564 39.8312 59.3783ZM38.6968 43.0844C51.4844 43.0844 64.1689 43.0844 77.2659 43.0844L80.8753 33.2875C79.7409 33.7 78.2971 33.7 77.2659 33.7C67.4689 33.7 59.4251 26.0687 59.4251 16.2717V15.7561H28.178L29.9311 21.2218H40.1406L42.3062 26.6874H32.5092L34.3655 32.1531H44.575L46.7406 37.6188H36.9437L38.6968 43.0844ZM69.6346 12.8686C71.0783 14.7248 72.9346 16.478 74.3783 17.9217L84.8972 7.40289L88.1972 10.7029C83.8659 15.4467 79.1221 20.0874 74.3783 24.5218L66.0251 16.478L69.6346 12.8686Z" fill="url(#paint0_linear_455_20416)"/>
<defs>
<linearGradient id="paint0_linear_455_20416" x1="0.875081" y1="37.9991" x2="93.2957" y2="37.9991" gradientUnits="userSpaceOnUse">
<stop stop-color="#5B2484"/>
<stop offset="1" stop-color="#7C299F"/>
</linearGradient>
</defs>
</svg>
