<svg width="74" height="97" viewBox="0 0 74 97" fill="none" xmlns="http://www.w3.org/2000/svg">
<path d="M63.1161 91.8904H10.6455V96.0001H63.1161V91.8904Z" fill="#7C299F"/>
<mask id="mask0_455_21890" style="mask-type:luminance" maskUnits="userSpaceOnUse" x="10" y="91" width="54" height="5">
<path d="M63.1161 91.8901H10.6455V95.9998H63.1161V91.8901Z" fill="white"/>
</mask>
<g mask="url(#mask0_455_21890)">
<path d="M11.3154 92.3682H62.8303V96.0956H11.3154V92.3682Z" fill="#7C299F" stroke="#7C299F" stroke-width="1.6443" stroke-miterlimit="10"/>
</g>
<path d="M63.1161 91.8904H10.6455V96.0001H63.1161V91.8904Z" stroke="#7C299F" stroke-width="1.6443" stroke-miterlimit="10"/>
<mask id="mask1_455_21890" style="mask-type:luminance" maskUnits="userSpaceOnUse" x="0" y="0" width="74" height="79">
<path d="M73.7257 0.0429688H0.324219V78.4143H73.7257V0.0429688Z" fill="white"/>
</mask>
<g mask="url(#mask1_455_21890)">
<path d="M41.0397 6.63746V4.05694C41.0397 3.86579 41.0397 3.67464 40.9441 3.48349C40.9441 3.29234 40.8485 3.10119 40.7529 3.00562C40.6574 2.81447 40.5618 2.71889 40.4662 2.52774C40.3706 2.33659 40.2751 2.24102 40.0839 2.14545C39.9883 2.04987 39.7972 1.85872 39.7016 1.76315C39.5105 1.66757 39.4149 1.572 39.2237 1.47642C39.0326 1.38085 38.8414 1.38085 38.7459 1.28527C38.5547 1.28527 38.3636 1.1897 38.1724 1.1897H35.6875C35.4963 1.1897 35.3052 1.1897 35.114 1.28527C34.9229 1.38085 34.7317 1.38085 34.6362 1.47642C34.445 1.572 34.3494 1.66757 34.1583 1.76315C33.9671 1.85872 33.8715 1.9543 33.776 2.14545C33.6804 2.24102 33.4892 2.43217 33.3937 2.52774C33.2981 2.71889 33.2025 2.81447 33.107 3.00562C33.0114 3.19677 33.0114 3.38792 32.9158 3.48349C32.9158 3.67464 32.8202 3.86579 32.8202 4.05694V6.63746C15.2345 8.64453 1.47168 23.5542 1.47168 41.7134C1.47168 61.2107 17.2415 76.9805 36.7388 76.9805H36.8344C56.2361 76.885 72.0059 61.1151 72.0059 41.7134C72.0059 40.6621 71.9103 39.6108 71.8148 38.4639C71.7192 37.4126 71.528 36.3612 71.3369 35.3099C71.1457 34.2586 70.859 33.2073 70.5723 32.1559C70.2856 31.1046 69.9033 30.1489 69.521 29.0975C69.1387 28.1418 68.7564 27.0905 68.2785 26.1347C67.8006 25.179 67.3227 24.2232 66.7493 23.3631C66.1758 22.4073 65.6024 21.5471 64.9334 20.687C64.2643 19.8268 63.5953 18.9666 62.9263 18.202C62.2573 17.4374 61.4927 16.6728 60.6325 15.9082C59.8679 15.1436 59.0077 14.4746 58.1476 13.8056C57.2874 13.1366 56.4272 12.5631 55.567 11.9897C54.7069 11.4162 53.7511 10.8428 52.7954 10.3649C51.8396 9.88701 50.8839 9.40913 49.8326 9.02683C48.8768 8.64453 47.8255 8.26223 46.7742 7.97551C45.7228 7.68879 44.6715 7.40206 43.6202 7.21091C43.1423 7.01976 42.091 6.82861 41.0397 6.63746ZM37.1211 72.4885H37.0255C35.9742 72.4885 35.0184 72.4885 33.9671 72.3929C32.9158 72.2974 31.9601 72.2018 31.0043 72.0106C30.0486 71.8195 28.9972 71.6283 28.0415 71.3416C27.0857 71.0549 26.13 70.7682 25.1742 70.3859C24.2185 70.0036 23.3583 69.6213 22.4026 69.1434C21.5424 68.6655 20.6822 68.1877 19.8221 67.6142C18.9619 67.0407 18.1973 66.4673 17.3371 65.7983C16.5725 65.1293 15.8079 64.4602 15.0433 63.7912C14.2787 63.1222 13.6097 62.3576 13.0362 61.593C12.3672 60.8284 11.7938 59.9682 11.2203 59.2036C10.6469 58.3434 10.169 57.4833 9.69111 56.6231C9.21324 55.7629 8.73537 54.8072 8.35307 53.8514C7.97077 52.8957 7.58847 51.9399 7.30174 50.9842C7.01502 50.0284 6.72829 49.0727 6.53715 48.0214C6.346 47.0656 6.15485 46.0143 6.05927 45.0585C5.9637 44.0072 5.86812 43.0515 5.86812 42.0001C5.86812 40.9488 5.9637 39.9931 6.05927 38.9418C6.15485 37.8904 6.346 36.9347 6.53715 35.9789C6.72829 35.0232 7.01502 33.9719 7.30174 33.0161C7.58847 32.0604 7.97077 31.1046 8.35307 30.1489C8.73537 29.1931 9.21324 28.3329 9.69111 27.3772C10.169 26.517 10.6469 25.6569 11.2203 24.7967C11.7938 23.9365 12.3672 23.1719 13.0362 22.4073C13.7053 21.6427 14.3743 20.8781 15.0433 20.2091C15.8079 19.5401 16.4769 18.7755 17.3371 18.202C18.1017 17.533 18.9619 16.9595 19.8221 16.3861C20.6822 15.8126 21.5424 15.3348 22.4026 14.8569C23.2627 14.379 24.2185 13.9967 25.1742 13.6144C26.13 13.2321 27.0857 12.9454 28.0415 12.6587C28.9972 12.372 29.953 12.1808 31.0043 11.9897C31.9601 11.7985 33.0114 11.7029 33.9671 11.6074C35.0184 11.5118 35.9742 11.5118 37.0255 11.5118H37.1211C38.0768 11.5118 39.1282 11.6074 40.0839 11.7029C41.0397 11.7985 42.091 11.9897 43.0467 12.1808C44.0025 12.372 44.9582 12.6587 45.914 12.9454C46.8697 13.2321 47.8255 13.6144 48.6856 13.9967C49.6414 14.379 50.5016 14.8569 51.3617 15.3348C52.2219 15.8126 53.0821 16.2905 53.9423 16.864C54.8024 17.4374 55.567 18.0109 56.3316 18.6799C57.0962 19.3489 57.8608 20.0179 58.5299 20.687C59.1989 21.356 59.8679 22.1206 60.5369 22.8852C61.206 23.6498 61.7794 24.51 62.3529 25.2746C62.9263 26.1347 63.4042 26.9949 63.8821 27.8551C64.3599 28.7152 64.7422 29.671 65.1245 30.5312C65.5068 31.4869 65.7935 32.4427 66.0803 33.3984C66.367 34.3542 66.6537 35.3099 66.8449 36.2657C67.036 37.2214 67.2272 38.2727 67.3227 39.2285C67.4183 40.1842 67.5139 41.2355 67.5139 42.1913C67.5139 43.147 67.4183 44.1984 67.3227 45.1541C67.2272 46.1099 67.036 47.1612 66.8449 48.1169C66.6537 49.0727 66.367 50.0284 66.0803 50.9842C65.7935 51.9399 65.4113 52.8957 65.1245 53.8514C64.7422 54.8072 64.3599 55.6674 63.8821 56.5275C63.4042 57.3877 62.9263 58.2479 62.3529 59.108C61.7794 59.9682 61.206 60.7328 60.5369 61.4974C59.8679 62.262 59.1989 63.0266 58.5299 63.6956C57.8608 64.3647 57.0962 65.0337 56.3316 65.7027C55.567 66.3717 54.8024 66.9452 53.9423 67.5186C53.0821 68.0921 52.2219 68.5699 51.3617 69.0478C50.5016 69.5257 49.5458 70.0036 48.6856 70.3859C47.7299 70.7682 46.8697 71.1505 45.914 71.4372C44.9582 71.7239 44.0025 72.0106 43.0467 72.2018C42.091 72.3929 41.0397 72.5841 40.0839 72.6797C39.1282 72.3929 38.1724 72.4885 37.1211 72.4885Z" fill="#7C299F" stroke="#7C299F" stroke-width="1.6443" stroke-miterlimit="10"/>
</g>
<path d="M67.6091 29.9579C67.9914 30.9136 68.3737 31.965 68.6604 33.0163C68.9471 34.0676 69.2338 35.1189 69.425 36.0747C69.6161 37.126 69.7117 38.1773 69.8073 39.2286C69.9029 40.28 69.9029 41.3313 69.9029 42.3826C69.9029 43.4339 69.8073 44.4853 69.7117 45.5366C69.6161 46.5879 69.425 47.6392 69.2338 48.6905C69.0427 49.7419 68.756 50.7932 68.3737 51.7489C68.0869 52.8003 67.7046 53.756 67.2268 54.7118C66.8445 55.6675 66.3666 56.6233 65.7931 57.579C65.3153 58.5348 64.7418 59.3949 64.0728 60.2551C63.4993 61.1153 62.8303 61.9755 62.1613 62.7401C61.4923 63.5047 60.7277 64.3648 59.9631 65.0338C59.1985 65.7029 58.4339 66.4675 57.5737 67.1365C56.7135 67.8055 55.8534 68.379 54.9932 68.9524C54.133 69.5259 53.1773 70.0993 52.2215 70.5772C51.2658 71.0551 50.31 71.5329 49.3543 71.9152H49.2587C48.3029 72.2975 47.2516 72.6798 46.2003 72.9666C45.149 73.2533 44.0977 73.54 43.0463 73.7312C41.995 73.9223 40.9437 74.0179 39.8924 74.1135C38.841 74.209 37.7897 74.209 36.7384 74.209C35.6871 74.209 34.6358 74.1134 33.5844 74.0179C32.5331 73.9223 31.4818 73.7311 30.4305 73.54C29.3791 73.3489 28.3278 73.0621 27.3721 72.6798C26.3207 72.3931 25.365 72.0108 24.4092 71.5329C23.4535 71.1506 22.4977 70.6728 21.542 70.0993C20.5863 69.6214 19.7261 69.048 18.8659 68.379C18.0057 67.8055 17.1456 67.1365 16.2854 66.4675C15.5208 65.7984 14.6606 65.0338 13.9916 64.2692C13.227 63.5046 12.558 62.74 11.8889 61.8799C11.2199 61.0197 10.6465 60.1595 10.073 59.2994C9.49957 58.4392 8.92612 57.4834 8.44825 56.5277C7.97037 55.5719 7.4925 54.6162 7.1102 53.6604C6.7279 52.7047 6.3456 51.6534 6.05888 50.602C5.77215 49.5507 5.48543 48.4994 5.29428 47.4481C5.10313 46.3968 5.00755 45.3454 4.91198 44.2941C4.8164 43.2428 4.81641 42.1915 4.81641 41.1401C4.81641 40.0888 4.91198 39.0375 5.00756 37.9862C5.10313 36.9348 5.29428 35.8835 5.48543 34.8322C5.67658 33.7809 5.9633 32.7296 6.3456 31.7738C6.63233 30.7225 7.01463 29.7667 7.4925 28.811C7.8748 27.8552 8.35267 26.8995 8.92612 25.9437C9.404 24.988 9.97745 24.1278 10.6465 23.2676C11.2199 22.4075 11.8889 21.5473 12.558 20.6871C13.227 19.827 13.9916 19.0624 14.7562 18.3933C15.5208 17.6287 16.2854 16.9597 17.1456 16.2907C18.0057 15.6217 18.8659 15.0482 19.7261 14.4748C20.5863 13.9013 21.542 13.3279 22.4977 12.85C23.4535 12.3721 24.4092 11.8942 25.365 11.5119H25.4606C26.4163 11.1296 27.4676 10.7473 28.519 10.4606C29.5703 10.1739 30.6216 9.98274 31.5774 9.79159C32.6287 9.60045 33.68 9.50487 34.7313 9.4093C35.7826 9.31372 36.834 9.31372 37.8853 9.31372C38.9366 9.31372 39.9879 9.4093 41.0393 9.50487C42.0906 9.60045 43.1419 9.7916 44.1932 9.98275C45.2446 10.1739 46.2959 10.4606 47.2516 10.8429C48.303 11.1296 49.2587 11.5119 50.2144 11.9898C51.1702 12.3721 52.1259 12.85 53.0817 13.4234C54.0374 13.9013 54.8976 14.4748 55.7578 15.1438C56.618 15.7172 57.4781 16.3863 58.2427 17.0553C59.0073 17.7243 59.8675 18.4889 60.5365 19.2535C61.3011 20.0181 61.9701 20.7827 62.6392 21.6429C63.3082 22.503 63.8816 23.3632 64.4551 24.2234C65.0285 25.0836 65.602 26.0393 66.0799 26.9951C66.7489 28.0464 67.2268 29.0021 67.6091 29.9579Z" fill="white" stroke="#7C299F" stroke-width="1.6443" stroke-miterlimit="10"/>
<path d="M67.6087 29.9578L37.3115 41.9047L50.3097 11.9897C52.2212 12.8499 54.1327 13.9012 55.853 15.1437C57.5734 16.3862 59.1982 17.7242 60.7274 19.2534C62.161 20.7826 63.499 22.503 64.6459 24.2233C65.7928 25.9437 66.8441 28.0463 67.6087 29.9578Z" fill="#7C299F" stroke="#7C299F" stroke-width="1.6443" stroke-miterlimit="10"/>
<path d="M25.3637 11.7029L37.3106 42.0001L7.49121 29.0019C8.35138 27.0904 9.40271 25.1789 10.6452 23.4586C11.8877 21.7382 13.2257 20.1135 14.7549 18.5843C16.2841 17.1506 18.0044 15.8126 19.7248 14.6657C21.5407 13.4232 23.4522 12.4675 25.3637 11.7029Z" fill="#7C299F" stroke="#7C299F" stroke-width="1.6443" stroke-miterlimit="10"/>
<path d="M6.72754 53.8516L37.0248 41.9048L24.0266 71.8197C22.1151 70.9595 20.2036 69.9082 18.4832 68.6657C16.7629 67.4233 15.1381 66.0852 13.6089 64.556C12.0797 63.0268 10.8373 61.3065 9.69036 59.5861C8.54346 57.7702 7.58771 55.8587 6.72754 53.8516Z" fill="#7C299F" stroke="#7C299F" stroke-width="1.6443" stroke-miterlimit="10"/>
<path d="M48.9713 72.202L37.0244 41.9048L66.8438 54.903C65.9836 56.8145 64.9323 58.726 63.7854 60.4463C62.5429 62.1666 61.2048 63.7914 59.6756 65.3206C58.1464 66.7542 56.5217 68.0923 54.7058 69.2392C52.7943 70.4817 50.9783 71.4374 48.9713 72.202Z" fill="#7C299F" stroke="#7C299F" stroke-width="1.6443" stroke-miterlimit="10"/>
<path d="M39.797 41.9046C39.797 42.0957 39.797 42.2869 39.7014 42.478C39.7014 42.6692 39.6058 42.8603 39.5103 42.9559C39.4147 43.1471 39.3191 43.2426 39.2235 43.4338C39.128 43.6249 39.0324 43.7205 38.8412 43.8161C38.7457 43.9117 38.5545 44.1028 38.4589 44.1984C38.2678 44.294 38.1722 44.3895 37.9811 44.4851C37.7899 44.5807 37.5988 44.5807 37.5032 44.6763C37.312 44.6763 37.1209 44.7718 36.9297 44.7718C36.7386 44.7718 36.5474 44.7718 36.3563 44.6763C36.1651 44.6763 35.974 44.5807 35.8784 44.4851C35.6873 44.3895 35.5917 44.294 35.4005 44.1984C35.2094 44.1028 35.1138 44.0072 35.0182 43.8161C34.9227 43.7205 34.7315 43.5294 34.6359 43.4338C34.5404 43.2426 34.4448 43.1471 34.3492 42.9559C34.2536 42.7648 34.2536 42.5736 34.1581 42.478C34.1581 42.2869 34.0625 42.0957 34.0625 41.9046C34.0625 41.7134 34.0625 41.5223 34.1581 41.3312C34.1581 41.14 34.2536 40.9489 34.3492 40.8533C34.4448 40.6621 34.5404 40.5666 34.6359 40.3754C34.7315 40.1843 34.8271 40.0887 35.0182 39.9931C35.1138 39.8975 35.305 39.7064 35.4005 39.6108C35.5917 39.5152 35.6873 39.4197 35.8784 39.3241C36.0696 39.2285 36.2607 39.2285 36.3563 39.1329C36.5474 39.1329 36.7386 39.0374 36.9297 39.0374C37.1209 39.0374 37.312 39.0374 37.5032 39.1329C37.6943 39.1329 37.8855 39.2285 37.9811 39.3241C38.1722 39.4197 38.2678 39.5152 38.4589 39.6108C38.6501 39.7064 38.7457 39.802 38.8412 39.9931C38.9368 40.0887 39.128 40.2798 39.2235 40.3754C39.3191 40.5666 39.4147 40.6621 39.5103 40.8533C39.6058 41.0444 39.6058 41.2356 39.7014 41.3312C39.797 41.6179 39.797 41.809 39.797 41.9046Z" fill="#7C299F" stroke="#7C299F" stroke-width="1.6443" stroke-miterlimit="10"/>
<path d="M37.0249 4.05713C36.7381 4.05713 36.547 4.05713 36.2603 4.1527C35.9735 4.24828 35.7824 4.34385 35.5912 4.43943C35.4001 4.535 35.2089 4.72615 35.0178 4.9173C34.8266 5.10845 34.7311 5.2996 34.6355 5.58633C34.5399 5.77748 34.4443 6.0642 34.4443 6.35092C34.4443 6.63765 34.4443 6.8288 34.4443 7.11552C34.4443 7.40225 34.5399 7.5934 34.6355 7.88012C34.7311 8.07127 34.9222 8.358 35.0178 8.54915L37.0249 13.9969L39.0319 8.54915C39.2231 8.358 39.3187 8.16685 39.4142 7.88012C39.5098 7.68897 39.6054 7.40225 39.6054 7.11552C39.6054 6.8288 39.6054 6.63765 39.6054 6.35092C39.6054 6.0642 39.5098 5.87305 39.4142 5.58633C39.3187 5.39518 39.1275 5.10845 39.0319 4.9173C38.8408 4.72615 38.6496 4.535 38.4585 4.43943C38.2673 4.34385 37.9806 4.1527 37.7895 4.1527C37.5027 4.1527 37.3116 4.05713 37.0249 4.05713ZM37.0249 7.78455C36.8337 7.78455 36.7381 7.68897 36.6426 7.5934C36.547 7.49782 36.4514 7.30667 36.4514 7.2111C36.4514 7.01995 36.547 6.92437 36.6426 6.8288C36.7381 6.73322 36.9293 6.63765 37.0249 6.63765C37.1204 6.63765 37.3116 6.73322 37.4072 6.8288C37.5027 6.92437 37.5983 7.11552 37.5983 7.2111C37.5983 7.40225 37.5027 7.49782 37.4072 7.5934C37.3116 7.68897 37.216 7.78455 37.0249 7.78455Z" fill="#FFC200"/>
<path d="M43.5233 75.0691C43.5233 74.9735 43.5233 74.878 43.5233 74.6868C43.5233 74.5913 43.6189 74.4957 43.6189 74.4001C43.7145 74.3045 43.8101 74.2089 43.9056 74.1134C44.0012 74.0178 44.0968 74.0178 44.1924 74.0178C44.2879 74.0178 44.3835 74.0178 44.5747 74.0178C44.6702 74.0178 44.7658 74.1134 44.8614 74.1134C44.957 74.2089 45.0525 74.3045 45.1481 74.4001C45.2437 74.4957 45.2437 74.5913 45.2437 74.6868C45.2437 74.7824 45.2437 74.878 45.2437 75.0691C45.2437 75.1647 45.1481 75.2603 45.1481 75.3559C45.0525 75.4514 44.957 75.547 44.8614 75.6426C44.7658 75.7382 44.6702 75.7381 44.5747 75.7381H44.4791C44.2879 75.7381 44.0968 75.7381 43.9056 75.547C43.6189 75.4514 43.5233 75.2603 43.5233 75.0691ZM29.1871 75.547C29.0915 75.547 28.996 75.4514 28.9004 75.3559C28.8048 75.2603 28.7092 75.1647 28.7092 75.0691C28.6137 74.9735 28.6137 74.878 28.6137 74.7824C28.6137 74.6868 28.6137 74.5912 28.6137 74.4001C28.6137 74.3045 28.7092 74.2089 28.8048 74.1134C28.9004 74.0178 28.996 73.9222 29.0915 73.9222C28.996 73.8267 29.0915 73.8266 29.2827 73.8266C29.3783 73.8266 29.4738 73.8266 29.665 73.8266C29.7606 73.8266 29.8561 73.9222 29.9517 74.0178C30.0473 74.1134 30.1429 74.2089 30.1429 74.3045C30.2384 74.4001 30.2384 74.4957 30.2384 74.5912C30.2384 74.6868 30.2384 74.7824 30.2384 74.9735C30.2384 75.1647 30.0473 75.3558 29.9517 75.4514C29.7606 75.547 29.665 75.6426 29.3783 75.6426C29.3783 75.547 29.2827 75.547 29.1871 75.547ZM57.2861 69.1435C57.1905 69.0479 57.1905 68.9523 57.095 68.8568C57.095 68.7612 57.095 68.6656 57.095 68.4745C57.095 68.3789 57.1905 68.2833 57.1905 68.1877C57.2861 68.0922 57.2861 67.9966 57.3817 67.901C57.4773 67.8054 57.5728 67.8054 57.6684 67.7099C57.764 67.7099 57.8596 67.7099 58.0507 67.7099C58.1463 67.7099 58.2419 67.8054 58.3374 67.8054C58.433 67.901 58.5286 67.901 58.6242 67.9966C58.7197 68.0922 58.7197 68.1877 58.8153 68.2833C58.8153 68.3789 58.8153 68.4745 58.8153 68.6656C58.8153 68.7612 58.7197 68.8568 58.7197 68.9523C58.6242 69.0479 58.6242 69.1435 58.5286 69.2391C58.3374 69.3346 58.2419 69.4302 58.0507 69.4302C57.6684 69.5258 57.4773 69.4302 57.2861 69.1435ZM15.4243 68.6656C15.3288 68.57 15.2332 68.4745 15.2332 68.3789C15.1376 68.2833 15.1376 68.1877 15.1376 67.9966C15.1376 67.901 15.1376 67.8054 15.1376 67.6143C15.1376 67.5187 15.2332 67.4231 15.3288 67.3276C15.4243 67.232 15.5199 67.1364 15.6155 67.1364C15.7111 67.0408 15.8066 67.0408 15.9978 67.0408C16.0934 67.0408 16.1889 67.0408 16.3801 67.0408C16.4757 67.0408 16.5712 67.1364 16.6668 67.232C16.7624 67.3276 16.858 67.4231 16.858 67.5187C16.9535 67.6143 16.9535 67.7099 16.9535 67.901C16.9535 67.9966 16.9535 68.0922 16.9535 68.2833C16.9535 68.3789 16.858 68.4745 16.7624 68.57C16.5712 68.7612 16.3801 68.8568 16.0934 68.8568C15.8066 68.8568 15.6155 68.8568 15.4243 68.6656ZM67.1303 57.8657C67.0348 57.7701 66.9392 57.7701 66.8436 57.6745C66.748 57.5789 66.748 57.4834 66.6525 57.3878C66.6525 57.2922 66.5569 57.1966 66.6525 57.0055C66.6525 56.9099 66.6525 56.8143 66.748 56.6232C66.8436 56.5276 66.8436 56.432 66.9392 56.3365C67.0347 56.2409 67.1303 56.2409 67.2259 56.1453C67.3215 56.0497 67.417 56.0497 67.6082 56.1453C67.7038 56.1453 67.7993 56.1453 67.9905 56.2409C68.0861 56.3365 68.1816 56.3365 68.2772 56.432C68.3728 56.5276 68.3728 56.6232 68.4684 56.7188C68.4684 56.8143 68.5639 56.9099 68.4684 57.1011C68.4684 57.1966 68.4684 57.2922 68.3728 57.4834C68.1816 57.7701 67.9905 57.9612 67.6082 57.9612C67.417 57.9612 67.2259 57.8657 67.1303 57.8657ZM5.96244 56.5276C5.96244 56.432 5.86686 56.3365 5.86686 56.1453C5.86686 56.0497 5.86686 55.9542 5.96244 55.763C5.96244 55.6674 6.05801 55.5719 6.15358 55.4763C6.24916 55.3807 6.34474 55.2851 6.44031 55.2851C6.53589 55.1896 6.63146 55.1896 6.82261 55.1896C6.91818 55.1896 7.01376 55.1896 7.20491 55.2851C7.30048 55.2851 7.39606 55.3807 7.49163 55.4763C7.58721 55.5719 7.68278 55.6674 7.68278 55.763C7.77836 55.8586 7.77836 55.9542 7.77836 56.1453C7.77836 56.2409 7.77836 56.3365 7.68278 56.5276C7.68278 56.6232 7.58721 56.7188 7.49163 56.8143C7.39606 56.9099 7.30048 57.0055 7.20491 57.0055C7.10933 57.1011 7.01376 57.1011 6.91818 57.1011C6.72703 57.1011 6.53589 57.1011 6.44031 57.0055C6.15359 56.8143 6.05801 56.6232 5.96244 56.5276ZM71.0489 43.3383C70.9533 43.3383 70.8577 43.3383 70.6666 43.2427C70.571 43.2427 70.4754 43.1471 70.3799 43.0516C70.2843 42.956 70.1887 42.8604 70.1887 42.7648C70.1887 42.6693 70.0931 42.5737 70.0931 42.3825C70.0931 42.287 70.0931 42.1914 70.1887 42.0002C70.1887 41.9047 70.2843 41.8091 70.3799 41.7135C70.4754 41.6179 70.571 41.5224 70.6666 41.5224C70.7622 41.5224 70.8577 41.4268 71.0489 41.4268C71.1445 41.4268 71.24 41.4268 71.4312 41.5224C71.5268 41.5224 71.6223 41.6179 71.7179 41.7135C71.8135 41.8091 71.9091 41.9047 71.9091 42.0002C71.9091 42.0958 72.0046 42.1914 72.0046 42.3825C72.0046 42.4781 72.0046 42.5737 71.9091 42.6693C71.9091 42.7648 71.8135 42.8604 71.7179 42.956C71.6223 43.0516 71.5268 43.1471 71.4312 43.1471C71.3356 43.3383 71.24 43.3383 71.0489 43.3383ZM3.66864 42.3825C3.57306 42.3825 3.47749 42.3825 3.28634 42.287C3.19076 42.287 3.09519 42.1914 2.99961 42.0958C2.90404 42.0002 2.80846 41.9047 2.80846 41.8091C2.80846 41.7135 2.71289 41.6179 2.71289 41.4268C2.71289 41.2356 2.71289 41.2356 2.80846 41.0445C2.80846 40.9489 2.90404 40.8533 2.99961 40.7578C3.09519 40.6622 3.19076 40.5666 3.28634 40.5666C3.38191 40.5666 3.47749 40.471 3.66864 40.471C3.76421 40.471 3.85979 40.471 4.05094 40.5666C4.14651 40.5666 4.24209 40.6622 4.33766 40.7578C4.43324 40.8533 4.52881 40.9489 4.52881 41.0445C4.52881 41.1401 4.62439 41.2356 4.62439 41.4268C4.62439 41.5224 4.62439 41.6179 4.52881 41.7135C4.43324 41.8091 4.43324 41.9047 4.33766 42.0002C4.24209 42.0958 4.14651 42.1914 4.05094 42.1914C3.95536 42.287 3.85979 42.3825 3.66864 42.3825ZM67.1303 28.1419C67.0348 27.9507 67.0348 27.8552 67.0348 27.7596C67.0348 27.664 67.0348 27.5684 67.1303 27.3773C67.1303 27.2817 67.2259 27.1861 67.3215 27.0906C67.417 26.995 67.5126 26.8994 67.6082 26.8994C67.7038 26.8038 67.7993 26.8038 67.9905 26.8038C68.0861 26.8038 68.1816 26.8038 68.3728 26.8994C68.4684 26.8994 68.5639 26.995 68.6595 27.0906C68.7551 27.1861 68.8507 27.2817 68.8507 27.3773C68.9462 27.4729 68.9463 27.5684 68.9463 27.7596C68.9463 27.8552 68.9462 27.9507 68.8507 28.1419C68.8507 28.2375 68.7551 28.333 68.6595 28.4286C68.5639 28.5242 68.4684 28.6198 68.3728 28.6198C68.2772 28.6198 68.1816 28.7153 68.0861 28.7153C67.8949 28.7153 67.7038 28.7153 67.6082 28.6198C67.3215 28.4286 67.2259 28.333 67.1303 28.1419ZM6.82261 27.664C6.72703 27.5684 6.63146 27.5684 6.53588 27.4729C6.44031 27.3773 6.44031 27.2817 6.34473 27.1861C6.34473 27.0906 6.24916 26.995 6.34473 26.8038C6.34473 26.7083 6.34474 26.6127 6.44031 26.4215C6.53589 26.326 6.53588 26.2304 6.63146 26.1348C6.72703 26.0392 6.82261 26.0392 6.91818 25.9437C7.01376 25.9437 7.10933 25.8481 7.30048 25.9437C7.39606 25.9437 7.49163 25.9437 7.68278 26.0392C7.77836 26.1348 7.87393 26.1348 7.96951 26.2304C8.06508 26.326 8.06508 26.4215 8.16066 26.5171C8.16066 26.6127 8.25623 26.7083 8.16066 26.8994C8.16066 26.995 8.16065 27.0906 8.06508 27.2817C7.87393 27.5684 7.68278 27.7596 7.30048 27.7596C7.10933 27.7596 6.91818 27.7596 6.82261 27.664ZM58.1463 16.5773C58.0507 16.4818 57.9551 16.3862 57.9551 16.2906C57.8596 16.195 57.8596 16.0995 57.8596 15.9083C57.8596 15.8127 57.8596 15.7172 57.8596 15.526C57.8596 15.4304 57.9551 15.3349 58.0507 15.2393C58.1463 15.1437 58.2419 15.0481 58.3374 15.0481C58.433 14.9526 58.5286 14.9526 58.7197 14.9526C58.8153 14.9526 58.9109 14.9526 59.102 14.9526C59.1976 14.9526 59.2932 15.0481 59.3888 15.1437C59.4843 15.2393 59.5799 15.3349 59.5799 15.4304C59.6755 15.526 59.6755 15.6216 59.6755 15.8127C59.6755 15.9083 59.6755 16.0039 59.6755 16.195C59.6755 16.2906 59.5799 16.3862 59.4843 16.4818C59.2932 16.6729 59.102 16.7685 58.8153 16.7685C58.5286 16.7685 58.3374 16.7685 58.1463 16.5773ZM15.9978 15.8127C15.9022 15.7172 15.9022 15.6216 15.8066 15.526C15.8066 15.4304 15.8066 15.3349 15.8066 15.1437C15.8066 15.0481 15.9022 14.9526 15.9022 14.857C15.9978 14.7614 15.9978 14.6658 16.0934 14.5703C16.1889 14.4747 16.2845 14.4747 16.3801 14.3791C16.4757 14.3791 16.5712 14.3791 16.7624 14.3791C16.858 14.3791 16.9535 14.4747 17.0491 14.4747C17.1447 14.5703 17.2403 14.5703 17.3358 14.6658C17.4314 14.7614 17.4314 14.857 17.527 14.9526C17.527 15.0481 17.527 15.1437 17.527 15.3349C17.527 15.4304 17.4314 15.526 17.4314 15.6216C17.3358 15.7172 17.3358 15.8127 17.2403 15.9083C17.0491 16.0039 16.9535 16.0995 16.7624 16.0995C16.4757 16.195 16.1889 16.0995 15.9978 15.8127ZM45.1481 10.0782C45.0525 10.0782 44.957 9.98267 44.8614 9.8871C44.7658 9.79152 44.6702 9.69595 44.6702 9.60037C44.5747 9.5048 44.5747 9.40922 44.5747 9.31365C44.5747 9.21807 44.5747 9.1225 44.5747 8.93135C44.5747 8.83577 44.6702 8.7402 44.7658 8.64462C44.8614 8.54905 44.957 8.45347 45.0525 8.45347C45.1481 8.3579 45.2437 8.3579 45.3393 8.3579C45.4348 8.3579 45.5304 8.3579 45.7216 8.3579C45.8171 8.3579 45.9127 8.45347 46.0083 8.54905C46.1039 8.64462 46.1994 8.7402 46.1994 8.83577C46.295 8.93135 46.295 9.02692 46.295 9.1225C46.295 9.21807 46.295 9.31365 46.295 9.5048C46.295 9.69595 46.1039 9.8871 46.0083 9.98267C45.8171 10.0782 45.7216 10.1738 45.5304 10.1738C45.2437 10.0782 45.1481 10.0782 45.1481 10.0782ZM29.4738 9.21807C29.4738 9.1225 29.4738 9.02692 29.4738 8.83577C29.4738 8.7402 29.5694 8.64462 29.5694 8.54905C29.665 8.45347 29.7606 8.3579 29.8561 8.26232C29.9517 8.16675 30.0473 8.16675 30.1429 8.16675C30.2384 8.16675 30.334 8.16675 30.5252 8.16675C30.6207 8.16675 30.7163 8.26232 30.8119 8.26232C30.9075 8.26232 31.003 8.45347 31.0986 8.54905C31.1942 8.64462 31.1942 8.7402 31.1942 8.83577C31.1942 8.93135 31.1942 9.02692 31.1942 9.21807C31.1942 9.31365 31.0986 9.40922 31.0986 9.5048C31.003 9.60037 30.9075 9.69595 30.8119 9.79152C30.7163 9.8871 30.6207 9.8871 30.5252 9.8871H30.4296C30.2384 9.8871 30.0473 9.79152 29.8561 9.69595C29.5694 9.60037 29.4738 9.40922 29.4738 9.21807Z" fill="#FFC200"/>
<path d="M44.1939 69.3345H29.8577L22.7852 92.8459H51.2665L44.1939 69.3345Z" fill="#7C299F" stroke="#7C299F" stroke-width="1.6443" stroke-miterlimit="10"/>
</svg>
