<svg width="76" height="89" viewBox="0 0 76 89" fill="none" xmlns="http://www.w3.org/2000/svg">
<path d="M75.8516 45.0094C74.886 45.4117 74.0813 46.2164 73.3571 46.9406C71.265 48.7913 69.3338 50.803 67.3221 52.7342C64.6668 55.2286 61.77 57.6426 59.356 60.4589C58.7122 61.1831 57.6662 61.5854 57.1029 62.3901C58.4709 70.8391 59.7583 79.288 61.1262 87.737C60.8044 88.3807 60.3216 88.0588 59.8388 87.8174C57.6662 86.6104 55.5741 85.4839 53.4819 84.1965C52.9992 83.9551 52.5968 83.9551 52.1945 83.7941C47.6884 81.0583 43.1018 78.6443 38.1934 75.9889C30.3077 79.449 22.7438 83.7137 15.0191 87.6565C14.7777 86.9323 18.5596 64.3213 19.3643 61.8268C13.1684 55.7919 6.97246 49.7569 0.535156 43.561C4.79987 42.8368 8.74271 42.1126 12.766 41.7907C13.8926 42.2735 15.0995 41.9517 16.1456 41.9517C16.4675 41.6298 16.387 41.3884 16.2261 41.0665C16.3065 41.0665 16.4675 40.9861 16.5479 40.9861C16.6284 41.3884 16.8698 41.5493 17.2721 41.4689C17.2721 41.9517 17.2721 42.4345 17.2721 42.9173C16.4675 44.2047 17.1917 45.4922 17.3526 46.6992C17.594 48.389 18.1573 49.9983 18.7205 51.6076C18.8815 52.2514 18.801 53.1365 19.8471 53.1365C21.1345 55.7919 23.1462 57.884 25.6406 59.4129C25.7211 60.0566 26.6062 60.2175 26.6062 60.8612C26.2844 61.344 25.882 61.7464 25.882 62.3096C25.7211 64.5627 26.1234 66.5744 27.5718 68.3446C28.1351 69.3907 29.0202 70.0344 30.0663 70.5172C35.0552 72.9312 40.205 73.0117 45.2744 71.1609C48.2516 70.1149 50.4242 67.9423 51.3094 64.7236C51.7117 63.1948 51.4703 61.5854 51.2289 60.0566C51.2289 59.9761 51.3094 59.9761 51.3898 59.8152C51.2289 59.9761 51.2289 59.9761 51.2289 60.0566C50.9875 60.0566 50.8266 59.8152 50.7461 59.5738C50.8266 59.0105 50.1024 58.9301 50.0219 58.5277C51.2289 57.4817 52.5163 56.4356 53.321 55.0677C54.6085 53.056 55.735 51.0444 55.8155 48.6304C56.3787 48.0671 57.1029 48.228 57.8271 48.0671C58.0685 47.7452 58.5513 47.5843 58.4709 47.1015C58.5513 47.0211 58.5513 46.9406 58.6318 46.9406L58.7123 46.8601C58.7927 46.7797 58.8732 46.7797 59.0341 46.6992C59.2755 46.6992 59.5169 46.6992 59.6778 46.5383C59.6778 46.3773 59.7583 46.2164 59.7583 46.0555C60.9653 45.7336 61.8504 44.4461 61.609 43.3196C61.6895 43.1587 61.77 42.9977 61.77 42.8368C62.2528 42.9173 62.4137 42.354 62.816 42.4345C64.023 43.0782 65.23 43.0782 66.437 42.6759C67.2417 42.5954 67.8854 43.0782 68.5291 43.0782C69.9775 43.1587 71.265 43.7219 72.7938 43.7219C73.7594 43.6415 74.886 43.9633 75.8516 44.3657C75.8516 44.6875 75.8516 44.8485 75.8516 45.0094Z" fill="#65318D"/>
<path d="M28.2155 0.511719C29.7443 1.47731 31.2732 2.44291 32.802 3.4085C32.802 3.97177 32.3192 3.8913 31.9974 3.97177C30.7099 2.92571 29.342 1.96011 27.6522 1.39685C24.6749 0.511719 21.4563 1.87965 20.4907 4.6155C19.2032 7.02949 19.1228 11.6161 21.7782 14.03C21.5368 14.03 21.3758 14.1105 21.2149 14.3519C20.4907 14.3519 20.2493 13.7082 20.0079 13.2254C18.2376 9.68487 18.479 6.22482 20.4102 2.84524C20.8126 2.12104 21.6172 1.63825 22.4219 1.23591C22.7437 1.07498 23.2265 1.07498 23.2265 0.511719C24.8359 0.511719 26.5257 0.511719 28.2155 0.511719Z" fill="#5D3E78"/>
<path d="M17.1905 41.6301C16.7882 41.6301 16.5468 41.5497 16.4663 41.1473C16.5468 40.9059 16.1445 41.7911 16.7882 40.4232C17.3515 39.0552 17.1101 40.1818 17.0296 39.9404C17.0296 39.699 17.1101 39.3771 17.1101 39.2162C17.1101 39.0552 17.3515 38.8138 17.5124 38.5724C17.5124 38.492 17.5124 38.331 17.5929 38.2506C17.8343 38.1701 18.0757 38.0896 18.0757 37.7678C18.6389 37.5264 18.7194 36.6412 19.5241 36.7217C19.9264 36.8022 20.1678 36.7217 20.4092 36.3998C20.5701 36.4803 20.8115 36.4803 20.9725 36.5608C21.1334 36.5608 21.1334 36.5608 21.1334 36.3998C20.9725 35.7561 21.3748 35.1928 21.5357 34.5491C21.6967 34.4687 21.8576 34.4686 22.0185 34.3882C22.1795 34.3882 22.3404 34.3882 22.5013 34.3882C22.5013 35.1124 22.0185 35.7561 22.2599 36.4803C26.2028 37.124 30.1456 36.9631 34.0885 36.5608C37.2266 36.2389 38.7555 37.5264 38.9164 40.745C38.9164 41.3887 39.0774 41.8715 39.3188 42.1129C38.836 43.5613 38.9969 45.0097 38.3532 46.1363C38.9164 46.78 39.5602 47.2628 39.6406 48.0674C39.5602 48.1479 39.4797 48.2284 39.3992 48.3893C38.9164 47.9065 38.675 47.2628 37.9508 46.9409C37.0657 48.0674 35.8587 48.8721 34.4908 49.2744C33.6861 49.5158 32.8815 49.7572 32.0768 49.9182C29.6628 49.9986 27.3293 50.24 24.8348 49.3549C25.0762 49.194 25.1567 49.1135 25.3176 49.1135C25.559 49.1135 25.8004 49.1135 26.0418 49.1135C28.6972 49.7572 31.1917 49.3549 33.7666 48.4698C37.0657 47.3432 38.2727 45.6535 38.1922 42.1934C38.1922 41.3887 38.1118 40.6646 37.9508 39.9404C37.468 37.9287 36.422 37.124 34.3299 37.285C32.2377 37.4459 30.0651 37.5264 27.973 37.7678C25.6395 37.9287 23.3864 37.4459 21.1334 37.4459C19.3631 37.4459 18.0757 38.4115 17.6733 40.1818C17.4319 40.6646 17.3515 41.1473 17.1905 41.6301Z" fill="#65318D"/>
<path d="M22.4218 34.3878C22.2609 34.3878 22.1 34.3878 21.939 34.3878C21.939 34.2269 21.8586 34.0659 21.8586 33.905C21.8586 33.8245 21.8586 33.7441 21.7781 33.6636C21.7781 33.5831 21.7781 33.5027 21.7781 33.4222C22.2609 32.8589 22.3414 32.1347 22.5828 31.491C22.7437 31.491 22.5023 31.4106 22.7437 31.0082C24.0312 28.4333 25.56 25.9388 26.6865 23.2835C27.0084 22.5593 27.0084 22.0765 26.6061 21.4327C24.9968 19.1797 23.4679 16.9266 21.4562 15.0759C21.2953 14.915 21.2953 14.6736 21.2148 14.4322C21.2953 14.1908 21.5367 14.1908 21.7781 14.1103C24.1116 16.0415 25.721 18.6164 27.7326 21.1109C29.2615 16.122 29.4224 10.9721 31.1122 6.22462C31.4341 5.74182 31.7559 5.33949 32.0778 4.85669C32.3997 4.85669 32.6411 4.93716 32.9629 4.93716C32.0778 6.30508 31.4341 7.83394 31.1122 9.44327C30.7099 11.1331 30.388 12.9033 30.0661 14.6736C29.6638 17.0071 29.181 19.2601 28.5373 21.5132C26.8475 26.0193 23.8702 29.8012 22.4218 34.3878Z" fill="#65318D"/>
<path d="M16.2257 41.2278C16.3866 41.4692 16.4671 41.7106 16.1452 42.1129C15.0991 42.0324 13.8922 42.3543 12.7656 41.952C13.4898 41.8715 13.0875 41.952 14.9382 41.6301C16.7889 41.3082 15.6624 41.8715 15.9038 41.4692C15.9843 41.3083 16.0647 41.3082 16.2257 41.2278Z" fill="#65318D"/>
<path d="M20.3304 36.3187C20.1695 36.6406 19.8476 36.721 19.4453 36.6406C19.6062 36.1578 20.0086 36.3187 20.3304 36.3187Z" fill="#65318D"/>
<path d="M21.8584 33.905C21.8584 34.066 21.9389 34.2269 21.9389 34.3878C21.7779 34.4683 21.617 34.4683 21.4561 34.5488C21.4561 34.1464 21.5365 33.905 21.8584 33.905Z" fill="#65318D"/>
<path d="M18.0765 37.7671C18.0765 38.089 17.8351 38.1694 17.5938 38.2499C17.5938 37.928 17.7547 37.7671 18.0765 37.7671Z" fill="#65318D"/>
<path d="M21.8602 33.4224C21.8602 33.5028 21.8602 33.5833 21.8602 33.6638C21.7797 33.5833 21.7797 33.5028 21.8602 33.4224C21.7797 33.5028 21.7797 33.4224 21.8602 33.4224Z" fill="#65318D"/>
<path d="M21.1336 36.3191C21.2141 36.48 21.1336 36.48 20.9727 36.48C20.9727 36.3996 21.0531 36.3191 21.1336 36.3191Z" fill="#65318D"/>
<path d="M22.4205 34.3882C23.8689 29.8821 26.9266 26.0197 28.375 21.5136C29.0992 19.2606 29.5016 17.0075 29.9039 14.674C30.2258 12.9037 30.5476 11.2139 30.95 9.44367C31.3523 7.83435 31.9155 6.30549 32.8007 4.93756C32.9616 4.8571 33.1225 4.77663 33.2835 4.6157C33.7663 4.6157 34.3295 4.6157 34.8123 4.45476C36.2607 4.1329 39.3989 5.01803 40.445 6.70782C42.1348 9.60461 42.2152 12.7428 41.5715 15.881C40.9278 19.0996 39.1575 21.755 36.824 24.0885C36.5021 24.4104 36.3412 24.7323 36.4217 25.1346C36.2607 25.1346 36.1803 25.2151 36.1803 25.376C36.0998 25.4565 36.0193 25.5369 35.9389 25.6174C35.8584 25.6979 35.7779 25.7783 35.6975 25.8588C35.617 25.9393 35.5365 26.0197 35.4561 26.1002C35.3756 26.1807 35.2951 26.2611 35.2147 26.3416C34.0077 27.2267 32.8007 28.0314 31.5937 28.9165C31.6742 28.997 31.7546 29.1579 31.8351 29.2384C34.9733 27.79 37.4677 25.5369 39.8012 23.0425C40.6059 23.5253 40.284 24.5713 40.7668 25.2151C40.7668 25.376 40.7668 25.5369 40.7668 25.6979C40.7668 25.7783 40.7668 25.8588 40.7668 25.9393C40.8473 27.1462 40.8473 28.3532 40.9278 29.5602C40.6059 29.8016 40.1231 29.7212 39.7208 29.7212C38.3529 29.8016 36.9849 29.9626 35.9389 31.0086C37.7091 30.6063 39.4794 30.1235 41.3301 30.4454C41.9738 30.7672 42.6176 30.9282 43.3418 30.7672C43.2613 31.25 43.9855 31.1696 43.905 31.4914C42.0543 35.9975 40.9278 40.3427 43.5832 44.9293C43.4222 45.4121 42.698 45.573 42.698 46.2972C43.4222 46.3777 43.6636 45.4926 44.3878 45.4926C46.5604 46.78 49.0549 47.5042 51.6298 47.0214C53.3196 48.6307 53.9633 48.9526 55.6531 48.9526C55.5726 51.3666 54.3656 53.3782 53.1586 55.3899C52.2735 56.7578 51.0665 57.8039 49.8595 58.85C47.6065 60.1374 45.1925 60.8616 42.6176 61.3444C42.859 61.8272 43.1004 61.7467 43.4222 61.7467C45.0315 61.5053 46.6409 61.103 48.1697 60.3788C48.4916 60.2179 48.8939 59.8155 49.0549 60.6202C48.0893 63.2756 45.4339 63.6779 43.4222 64.9654C45.2729 64.9654 46.7213 63.9193 48.1697 63.0342C48.4916 63.0342 48.8939 62.9537 49.2963 63.4365C49.779 64.4826 49.7791 65.5286 48.9744 66.6552C48.2502 67.6208 47.3651 68.184 46.3995 68.8278C43.6636 70.598 38.8356 70.8394 36.3412 68.5059C32.8007 69.8738 29.3406 67.9426 27.4899 65.4482C27.0876 64.8849 26.9266 64.3217 27.2485 63.6779C27.9727 63.3561 28.6164 63.9193 29.2602 63.8389C30.4672 65.3677 33.0421 65.2873 34.7319 64.1607C34.2491 63.5975 33.7663 63.8389 33.203 63.9998C32.8007 63.3561 32.0765 63.517 31.5132 63.2756C30.4672 62.8733 29.3406 62.7123 28.6969 61.5858C29.1797 61.2639 29.743 61.5858 30.2258 61.1835C29.743 61.0225 29.2602 60.8616 28.7774 60.9421C27.5704 60.8616 26.5243 60.1374 25.3978 59.7351C22.9033 58.1258 20.8917 56.1141 19.6042 53.4587C18.2363 50.1596 17.2707 46.8605 17.0293 43.32C17.0293 42.8372 17.0293 42.3544 17.0293 41.8716C17.1098 41.3888 17.1902 40.906 17.3512 40.4232C17.834 38.6529 19.041 37.6873 20.8112 37.6873C23.0643 37.6873 25.3978 38.1701 27.6508 38.0092C29.743 37.8483 31.9155 37.7678 34.0077 37.5264C36.0998 37.3655 37.1459 38.1701 37.6287 40.1818C37.7896 40.906 37.8701 41.7106 37.8701 42.4348C37.9505 45.8949 36.6631 47.5847 33.4444 48.7112C30.95 49.5963 28.375 49.9182 25.7197 49.3549C25.4783 49.2745 25.2369 49.2745 24.9955 49.3549C24.915 49.3549 24.8345 49.4354 24.5127 49.5963C27.0071 50.4815 29.4211 50.2401 31.7546 50.1596C32.1569 50.8838 33.0421 50.7229 33.6858 50.9643C35.3756 51.608 35.6975 52.0103 35.5365 53.6196C37.3068 54.4243 38.1115 56.1946 38.9161 57.7234C39.5598 57.7234 39.4794 57.3211 39.5598 56.9992C40.3645 55.1485 40.6864 53.2173 40.5254 51.2861C40.445 50.2401 40.3645 49.0331 39.3184 48.2284C39.1575 47.4237 38.5138 46.9409 38.031 46.2972C38.6747 45.1707 38.5138 43.7223 38.9966 42.2739C38.7552 42.0325 38.5942 41.4692 38.5942 40.906C38.4333 37.6873 36.9045 36.3999 33.7663 36.7217C29.8234 37.1241 25.8806 37.285 21.9377 36.6413C21.9377 35.7561 22.4205 35.0319 22.4205 34.3882Z" fill="#FBF9FB"/>
<path d="M29.4222 63.6772C28.7784 63.7577 28.1347 63.1944 27.4105 63.5163C27.0886 64.16 27.2496 64.8037 27.6519 65.2865C29.5026 67.781 32.9627 69.7122 36.5032 68.3443C38.9976 70.6778 43.8256 70.4364 46.5615 68.6661C47.5271 68.0224 48.4122 67.4591 49.1364 66.4935C49.9411 65.367 49.9411 64.321 49.4583 63.2749C49.0559 62.7921 48.6536 62.953 48.3317 62.8726C48.9755 62.1484 49.6997 61.5046 49.7801 60.4586C49.9411 60.2172 49.6997 59.8953 50.102 59.7344C50.2629 59.7344 50.5043 59.8148 50.7457 59.8148C50.8262 60.0562 50.9871 60.2172 51.2285 60.2976C51.4699 61.8265 51.7113 63.3554 51.309 64.9647C50.4238 68.1833 48.2513 70.3559 45.274 71.402C40.1242 73.1722 34.9743 73.1722 30.0659 70.7583C29.0198 70.2755 28.1347 69.6317 27.5714 68.5857C27.6519 68.1029 27.5714 67.6201 27.2496 67.2177C26.3644 65.8498 26.123 64.321 26.123 62.7116C26.6863 62.4702 26.6058 61.746 27.33 61.5046C27.8933 62.2288 28.6175 63.0335 29.4222 63.6772Z" fill="#D2CAD7"/>
<path d="M55.7363 48.8724C53.9661 48.8724 53.3223 48.5505 51.713 46.9412C49.1381 47.424 46.7241 46.7803 44.471 45.4123C43.7468 45.4123 43.5859 46.2975 42.7812 46.217C42.7812 45.5733 43.5054 45.3319 43.6664 44.8491C41.011 40.343 42.218 35.9978 43.9882 31.4917C44.0687 31.1698 43.3445 31.2503 43.425 30.7675C43.8273 30.7675 44.2296 30.7675 44.5515 30.6065C44.8734 30.1237 45.1952 29.5605 45.5171 29.0777C45.5976 29.0777 45.678 29.1581 45.839 29.1581C45.0343 32.2963 43.0226 35.1126 43.1031 38.4118C42.9422 38.6532 42.9422 38.975 43.0226 39.2164C42.9422 39.7797 43.0226 40.3429 43.264 40.9062C43.1836 42.0327 43.5859 42.9983 44.2296 43.803C45.5171 45.4928 47.5288 45.9756 49.5404 46.217C51.4716 46.4584 52.7591 45.5733 53.6442 43.8835C54.127 42.9179 54.6098 41.8718 54.8512 40.7453C55.8972 36.722 56.0582 32.5377 56.1386 28.4339C56.1386 26.9856 55.8168 25.6176 54.6098 24.652C54.5293 24.4106 54.4489 24.1692 54.3684 23.9278C54.9317 23.8474 55.334 24.2497 55.5754 24.652C56.541 26.2614 58.2308 25.6981 59.6792 26.2614C64.5876 29.8019 64.9095 35.6759 63.3806 41.9523C63.5415 42.1132 63.9439 42.1937 64.0243 42.5155C64.9095 42.1132 65.7141 42.6765 66.5188 42.8374C65.3118 43.2397 64.1048 43.2397 62.8978 42.596C62.4955 42.5155 62.2541 43.1593 61.8518 42.9983C62.7369 40.343 63.3806 37.6071 63.1392 34.7908C63.0587 33.5033 62.8978 32.2159 62.0127 31.0893C61.9322 30.8479 61.8517 30.6065 61.7713 30.4456C61.6908 30.3651 61.6103 30.2042 61.6103 30.1237C61.6103 30.0433 61.6104 30.0433 61.5299 29.9628C61.5299 29.7214 61.4494 29.5605 61.2885 29.48C59.9206 27.3074 58.7136 26.6637 57.1042 27.227C57.1042 30.1237 57.0238 33.101 56.6214 35.9978C56.1386 39.7797 55.7363 43.5616 52.7591 46.4584C53.0809 47.0216 53.5637 47.3435 54.2075 47.5044C54.4489 47.9068 54.9316 47.9068 55.334 47.9872C56.541 48.3091 57.5066 47.5849 58.4722 47.263C58.5526 47.7458 58.0698 47.9068 57.8284 48.2286C57.1042 48.47 56.38 48.3896 55.7363 48.8724Z" fill="#65318D"/>
<path d="M61.9312 31.0889C62.8163 32.1349 62.8968 33.5029 63.0577 34.7903C63.2991 37.6066 62.5749 40.3425 61.7703 42.9979C61.6898 43.1588 61.6093 43.3197 61.6093 43.4807C61.5289 43.4807 61.4484 43.5611 61.2875 43.5611C60.0805 44.1244 59.7586 45.3314 59.1149 46.297C59.1149 46.297 59.1954 46.3775 59.2758 46.4579C59.1954 46.6189 59.1149 46.7798 58.954 46.9407C58.8735 47.0212 58.793 47.0212 58.6321 47.1017H58.5516V47.1821C58.4712 47.2626 58.4712 47.343 58.3907 47.343C57.3446 47.6649 56.379 48.3891 55.2525 48.0672C54.8502 47.9868 54.3674 47.9868 54.126 47.5844C54.2064 47.3431 54.4478 47.2626 54.6892 47.2626C56.7814 47.2626 58.3102 46.3775 59.4368 44.5267C61.1265 41.7909 62.1726 38.9746 62.414 35.7559C62.414 34.1466 61.8507 32.6982 61.9312 31.0889Z" fill="#D0C6D7"/>
<path d="M29.4208 63.678C28.6161 63.0343 27.8919 62.2296 27.2482 61.425C26.6045 61.6664 26.6045 62.3906 26.0412 62.632C26.1217 64.2413 26.2826 65.7702 27.1677 67.1381C27.4896 67.5404 27.4896 68.0232 27.4896 68.506C26.0412 66.7358 25.6389 64.7241 25.7998 62.471C25.8803 61.9078 26.2021 61.425 26.524 61.0227C26.9263 60.9422 27.3287 60.8617 27.731 61.1836C27.9724 61.425 27.9724 61.8273 28.3747 62.0687C29.0989 63.1148 30.2254 63.5171 31.4324 63.7585C31.9957 63.839 32.6394 64.5632 33.2832 63.9194C33.8464 63.839 34.3292 63.5171 34.812 64.0804C33.2027 65.1264 30.5473 65.2069 29.4208 63.678Z" fill="#D3C5DC"/>
<path d="M50.6673 59.8155C50.4259 59.8155 50.1845 59.735 50.0236 59.735C49.7017 59.896 49.8627 60.2983 49.7017 60.4592C49.5408 60.4592 49.2994 60.4592 49.1385 60.4592C49.058 59.735 48.5752 60.0569 48.2533 60.2178C46.7245 60.942 45.1956 61.3443 43.5058 61.5857C43.1035 61.6662 42.8621 61.6662 42.7012 61.1834C45.2761 60.7811 47.6901 59.9764 49.9431 58.689C50.0236 59.2522 50.7478 59.2522 50.6673 59.8155Z" fill="#735A8E"/>
<path d="M17.1931 43.0781C17.4345 46.6186 18.4001 49.9982 19.7681 53.2169C18.722 53.2169 18.8025 52.3317 18.6415 51.688C18.1587 50.0787 17.515 48.4694 17.2736 46.7796C17.1127 45.5726 16.3885 44.2851 17.1931 43.0781Z" fill="#6B4989"/>
<path d="M28.456 61.9881C28.0536 61.8272 28.0536 61.3444 27.8122 61.103C27.4099 60.8616 27.0076 60.942 26.6052 60.942C26.5248 60.2983 25.7201 60.1374 25.6396 59.4937C26.7662 59.9764 27.8122 60.6202 29.0192 60.7006C28.5364 61.103 28.6169 61.5858 28.456 61.9881Z" fill="#674683"/>
<path d="M61.2867 43.6413C61.3671 43.6413 61.4476 43.5608 61.6085 43.5608C61.8499 44.6873 60.9648 45.8943 59.7578 46.2966C60.2406 45.4115 60.9648 44.6873 61.2867 43.6413Z" fill="#6A4587"/>
<path d="M58.9521 46.9405C59.0326 46.7796 59.1131 46.6186 59.274 46.4577C59.4349 46.3772 59.5959 46.2968 59.6763 46.2163C59.6763 46.3772 59.5959 46.5382 59.5959 46.6991C59.3545 46.9405 59.1131 46.9405 58.9521 46.9405Z" fill="#6A4587"/>
<path d="M58.5498 47.1812V47.1016H58.6295L58.5498 47.1812Z" fill="#6A4587"/>
<path d="M51.1475 60.2985C51.1475 60.2985 51.2279 60.2181 51.3084 60.0571C51.2279 60.2181 51.2279 60.2985 51.1475 60.2985Z" fill="#735A8E"/>
<path d="M40.7679 25.2149C40.2851 24.5712 40.607 23.5251 39.8023 23.0423C39.8023 22.8814 39.7218 22.64 39.7218 22.479C40.3656 22.0767 40.446 21.3525 40.8484 20.7892C43.3428 17.2487 44.7912 13.3059 44.8717 8.96071C44.8717 4.77646 43.0209 2.68434 39.0781 2.28201C36.825 2.04061 34.8939 2.84527 33.2845 4.37413C32.9627 4.37413 32.8017 4.61553 32.8822 4.9374C32.5603 4.9374 32.3189 4.85693 31.9971 4.85693C32.158 4.53507 32.158 4.29367 31.9971 3.9718C32.3189 3.89134 32.8017 3.9718 32.8017 3.40854C33.7673 1.96015 35.3767 1.79921 36.9055 1.47735C37.8711 1.23595 38.8367 1.39688 39.8023 1.47735C42.5381 1.63828 45.274 3.64994 45.7568 6.86859C46.1591 10.0068 45.7568 12.984 44.6303 15.9613C43.9061 17.812 43.0209 19.5018 41.814 21.1111C40.6874 22.64 40.6874 22.8814 41.5726 24.5712C41.653 24.8126 41.814 24.9735 41.8944 25.2149C41.4921 25.1344 41.0898 25.1344 40.7679 25.2149Z" fill="#623D82"/>
<path d="M40.7686 25.2151C41.0904 25.2151 41.4928 25.2151 41.8146 25.2151C41.8951 25.2151 41.9755 25.2151 41.9755 25.2956C42.056 25.4565 42.056 25.537 42.1365 25.6979C42.2974 26.0197 42.3779 26.3416 42.7802 26.4221C42.8607 26.583 42.9411 26.7439 43.0216 26.9049C43.1825 27.1463 43.3435 27.3877 43.5044 27.6291C43.5044 27.9509 43.6653 28.1119 43.9872 28.2728C44.0677 28.5947 43.9872 28.8361 43.7458 29.0775C43.7458 29.0775 43.6653 29.0775 43.6653 29.1579C43.6653 29.2384 43.6653 29.2384 43.6653 29.3189C43.5849 29.5603 43.5849 29.7212 43.5044 29.9626C43.5044 30.2845 43.5044 30.5259 43.5044 30.8477C42.7802 31.0087 42.1365 30.8477 41.4928 30.5259C41.1709 30.2845 41.01 30.0431 41.01 29.6407C40.9295 28.4337 40.9295 27.2267 40.849 26.0198L40.9295 25.9393C40.9295 25.8588 40.849 25.8588 40.849 25.7784C40.7686 25.537 40.7686 25.376 40.7686 25.2151Z" fill="#65358A"/>
<path d="M43.9037 28.1925C43.6623 28.112 43.4209 27.8706 43.4209 27.5487C43.5818 27.2269 43.9037 26.9855 43.9037 26.5831C44.8693 25.6175 45.5935 24.491 46.8005 23.6864C48.5707 22.4794 50.4215 22.5598 52.3527 22.9622C52.1113 23.1231 51.8699 23.3645 51.6285 23.5254C51.4675 23.5254 51.3066 23.445 51.1457 23.445C50.9847 23.2036 50.8238 23.2036 50.6629 23.445C50.2605 23.6059 49.7777 23.3645 49.4559 23.6864C47.927 23.7668 46.8809 24.6519 45.9154 25.698C45.1912 26.5027 44.6279 27.3878 43.9037 28.1925Z" fill="#65318D"/>
<path d="M51.6299 23.5252C51.8713 23.3642 52.1127 23.1228 52.3541 22.9619C53.0783 23.1228 53.6415 23.6056 54.2853 24.008C54.3657 24.2494 54.4462 24.4908 54.5267 24.7322C53.722 24.4908 52.9978 23.7666 52.1127 23.847C51.9517 23.847 51.7908 23.7666 51.6299 23.7666C51.7103 23.6861 51.6299 23.6056 51.6299 23.5252Z" fill="#65318D"/>
<path d="M43.905 26.6633C43.905 27.0657 43.5832 27.3071 43.4222 27.6289C43.2613 27.3875 43.1004 27.1461 42.9395 26.9047C43.2613 26.8243 43.5832 26.7438 43.905 26.6633Z" fill="#65358A"/>
<path d="M42.1375 25.6174C42.057 25.4565 42.057 25.376 41.9766 25.2151C42.218 25.2956 42.1375 25.537 42.1375 25.6174Z" fill="#623D82"/>
<path d="M42.9426 26.8239C42.8621 26.6629 42.7816 26.502 42.7012 26.3411C42.9426 26.502 42.9426 26.6629 42.9426 26.8239Z" fill="#65358A"/>
<path d="M31.0318 6.22473C29.4225 10.9722 29.1811 16.1221 27.6522 21.111C25.6405 18.6165 24.0312 16.0416 21.6977 14.1104C19.0423 11.6964 19.1228 7.10986 20.4102 4.69587C21.6977 4.374 22.7438 3.40841 24.1117 3.48887C26.8475 3.40841 29.1006 4.45447 31.0318 6.22473Z" fill="#FBF9FA"/>
<path d="M31.0313 6.22501C29.1001 4.45475 26.8471 3.40869 24.1917 3.40869C22.8238 3.40869 21.7777 4.37428 20.4902 4.61568C21.4558 1.9603 24.6745 0.511905 27.6517 1.39703C29.3415 1.87983 30.7094 2.84542 31.9969 3.97195C32.2383 4.29382 32.1578 4.53522 31.9969 4.85708C31.675 5.25941 31.3532 5.74221 31.0313 6.22501Z" fill="#D3C9D7"/>
<path d="M39.8023 56.8384C39.8023 57.1602 39.8828 57.4821 39.1586 57.5626C38.3539 55.9532 37.6297 54.2634 35.779 53.4588C35.9399 51.8495 35.618 51.4471 33.9283 50.8034C33.2845 50.562 32.4799 50.7229 31.9971 49.9987C32.8017 49.7573 33.6064 49.5964 34.4111 49.355C35.779 48.9527 36.9055 48.148 37.8711 47.0215C38.5953 47.3433 38.8367 47.9871 39.3195 48.4699C40.2046 50.3206 40.446 52.3323 39.9632 54.3439C39.8023 55.0681 39.6414 55.7923 39.4 56.5165C39.4 56.8384 39.5609 56.8384 39.8023 56.8384Z" fill="#D2CAD6"/>
<path d="M39.8027 56.8377C39.5613 56.8377 39.4004 56.7573 39.4809 56.4354C39.7223 55.7112 39.8832 54.987 40.0441 54.2628C40.4464 52.2511 40.2855 50.32 39.4004 48.3888C39.4809 48.3083 39.5613 48.2278 39.6418 48.0669C40.6878 48.7911 40.6878 49.9981 40.8488 51.1246C41.0097 53.1363 40.6879 55.0675 39.8027 56.8377Z" fill="#6C5580"/>
<path d="M33.2842 4.37398C34.8935 2.76465 36.8247 1.95999 39.0777 2.28185C43.0206 2.76465 44.9518 4.85677 44.8713 8.96055C44.8713 13.3057 43.4229 17.2486 40.848 20.7891C40.4457 21.3524 40.3652 22.0766 39.7215 22.4789C38.5145 23.2835 37.7903 24.6515 36.4224 25.2952C36.3419 24.8124 36.5028 24.571 36.8247 24.2491C39.1582 21.9156 40.9285 19.2602 41.5722 16.0416C42.2159 12.9034 42.055 9.76521 40.4457 6.86843C39.4801 5.09817 36.2614 4.29351 34.813 4.61537C34.3302 4.69584 33.767 4.77631 33.2842 4.77631C33.2842 4.53491 33.2842 4.45444 33.2842 4.37398Z" fill="#D2CAD6"/>
<path d="M36.5047 25.2148C37.8727 24.571 38.5969 23.2031 39.8039 22.3984C39.8039 22.5594 39.8843 22.8008 39.8843 22.9617C37.5508 25.5366 35.0563 27.7897 31.9182 29.1576C31.8377 29.0771 31.7572 28.9162 31.6768 28.8357C32.8838 27.9506 34.0907 27.1459 35.2977 26.2608C35.4587 26.2608 35.5391 26.1804 35.5391 26.0194C35.6196 25.939 35.7001 25.8585 35.7805 25.778C35.861 25.6976 35.9415 25.6171 36.0219 25.5366C36.1024 25.4562 36.1829 25.3757 36.2633 25.2952C36.3438 25.3757 36.4243 25.2952 36.5047 25.2148Z" fill="#65318D"/>
<path d="M49.1365 60.459C49.2975 60.459 49.5389 60.459 49.6998 60.459C49.6193 61.505 48.8951 62.1488 48.2514 62.873C46.803 63.7581 45.3546 64.8042 43.5039 64.8042C45.5156 63.5972 48.1709 63.1144 49.1365 60.459Z" fill="#6E5984"/>
<path d="M28.457 61.9883C28.618 61.586 28.5375 61.1032 28.9398 60.7813C29.4226 60.7009 29.9054 60.9423 30.3882 61.0227C29.9054 61.4251 29.3422 61.1032 28.8594 61.4251C29.5031 62.5516 30.6296 62.7125 31.6757 63.1149C32.2389 63.3563 32.9631 63.1953 33.3655 63.839C32.7217 64.4828 32.078 63.7586 31.5147 63.6781C30.3078 63.4367 29.1812 63.1149 28.457 61.9883Z" fill="#6C5580"/>
<path d="M41.01 29.4797C41.01 29.8821 41.1709 30.2039 41.4928 30.3649C39.6421 30.043 37.8718 30.5258 36.1016 30.9281C37.1476 29.8821 38.5155 29.7211 39.8835 29.6407C40.2053 29.6407 40.6077 29.8016 41.01 29.4797Z" fill="#65318D"/>
<path d="M33.2849 4.37378C33.2849 4.45425 33.2849 4.53471 33.3653 4.61518C33.2044 4.69565 33.0435 4.77611 32.8825 4.93704C32.8021 4.61518 32.8825 4.37378 33.2849 4.37378Z" fill="#674683"/>
<path d="M36.423 25.2151C36.3426 25.2956 36.2621 25.376 36.1816 25.4565C36.2621 25.2956 36.3426 25.2151 36.423 25.2151Z" fill="#D2CAD6"/>
<path d="M36.0207 25.6978C35.9402 25.7782 35.8598 25.8587 35.7793 25.9392C35.7793 25.8587 35.8598 25.7782 36.0207 25.6978Z" fill="#D2CAD6"/>
<path d="M40.8494 25.6978C40.8494 25.7782 40.9299 25.7782 40.9299 25.8587L40.8494 25.9392C40.7689 25.8587 40.7689 25.7782 40.8494 25.6978Z" fill="#623D82"/>
<path d="M35.4602 26.0996C35.4602 26.2605 35.3797 26.341 35.2188 26.341C35.2992 26.2605 35.3797 26.1801 35.4602 26.0996Z" fill="#D2CAD6"/>
<path d="M51.6298 23.7664C51.7907 23.7664 51.9517 23.8469 52.1126 23.8469C53.2391 24.8929 54.0438 26.0999 54.3657 27.6288C55.0094 30.8474 54.9289 34.0661 54.5266 37.2847C54.2047 39.6183 53.4001 41.8713 51.3079 43.4002C50.1814 44.2048 49.2158 44.0439 48.4112 42.9174C47.8479 42.1932 47.2042 41.7104 46.3995 41.3885C45.273 41.6299 45.273 41.6299 43.1808 40.9057C42.9394 40.3424 42.9395 39.7792 42.9395 39.2159C43.1809 38.9745 43.1809 38.6527 43.0199 38.4113C42.9395 35.0317 44.9511 32.2958 45.7558 29.1576C45.6753 29.1576 45.5948 29.0772 45.4339 29.0772C45.112 29.56 44.7902 30.1232 44.4683 30.606C44.1464 30.8474 43.7441 30.767 43.3418 30.767C43.3418 30.4451 43.3418 30.2037 43.3418 29.8818C43.4223 29.6404 43.4222 29.4795 43.5027 29.2381C43.5832 29.1576 43.5832 29.0772 43.5832 28.9967C43.8246 28.7553 43.8246 28.4334 43.8246 28.192C44.4683 27.3069 45.112 26.4218 45.8362 25.6171C46.8018 24.5711 47.8479 23.6859 49.3768 23.6055C50.1814 24.3297 50.9056 23.6859 51.6298 23.7664Z" fill="#FBFAFB"/>
<path d="M61.9308 31.0888C61.8503 32.6177 62.4136 34.1465 62.3331 35.7559C62.0917 38.9745 61.0456 41.7908 59.3558 44.5267C58.2293 46.3774 56.7005 47.1821 54.6083 47.2625C54.3669 47.2625 54.1255 47.343 54.0451 47.5844C53.4818 47.4235 52.9185 47.1016 52.5967 46.5383C55.5739 43.6416 55.8958 39.7792 56.4591 36.0777C56.8614 33.181 56.9419 30.2842 56.9419 27.3069C58.6316 26.7437 59.7582 27.3069 61.1261 29.56C61.1261 29.8014 61.1261 29.9623 61.3675 30.0428C61.448 30.0428 61.448 30.1232 61.448 30.2037C61.3675 30.3646 61.448 30.4451 61.6089 30.5256C61.7698 30.6865 61.8503 30.9279 61.9308 31.0888Z" fill="#FBF9FA"/>
<path d="M43.1817 40.9059C45.2738 41.6301 45.2738 41.6301 46.4003 41.3887C47.205 41.6301 47.9292 42.1129 48.412 42.9175C49.2166 44.0441 50.1018 44.205 51.3087 43.4003C53.4009 41.9519 54.2055 39.6184 54.5274 37.2849C54.9297 34.0662 55.0907 30.8476 54.3665 27.6289C54.0446 26.0196 53.1595 24.8931 52.1134 23.847C53.079 23.7666 53.7227 24.4908 54.5274 24.7322C55.6539 25.6977 56.0563 27.0657 56.0563 28.5141C55.9758 32.6178 55.8149 36.8021 54.7688 40.8254C54.5274 41.9519 54.0446 42.9175 53.5618 43.9636C52.6767 45.6534 51.3892 46.5385 49.458 46.2971C47.4464 46.0557 45.5152 45.5729 44.1473 43.8831C43.584 42.9175 43.1012 42.0324 43.1817 40.9059Z" fill="#D2CAD7"/>
<path d="M43.1021 38.4111C43.263 38.733 43.263 38.9744 43.0216 39.2158C42.9411 38.8939 42.9411 38.6525 43.1021 38.4111Z" fill="#D2CAD7"/>
<path d="M61.3683 29.9625C61.1269 29.8821 61.0464 29.7211 61.1269 29.4797C61.3683 29.5602 61.4487 29.8016 61.3683 29.9625Z" fill="#D0C6D7"/>
<path d="M61.6896 30.4452C61.5286 30.4452 61.4482 30.2842 61.5286 30.1233C61.5286 30.2038 61.6091 30.3647 61.6896 30.4452Z" fill="#D0C6D7"/>
<path d="M59.6765 46.2162C59.5156 46.2966 59.3547 46.3771 59.2742 46.4576C59.1937 46.3771 59.1133 46.2966 59.1133 46.2966C59.8375 45.331 60.1593 44.1241 61.2859 43.5608C60.964 44.6873 60.2398 45.4115 59.6765 46.2162Z" fill="#D5C2E3"/>
<path d="M43.6644 29.0771C43.6644 29.1576 43.6645 29.2381 43.584 29.3185C43.584 29.2381 43.584 29.2381 43.584 29.1576C43.584 29.0771 43.6644 29.0771 43.6644 29.0771Z" fill="#563B70"/>
<path d="M51.6316 23.7662C50.9074 23.6857 50.1832 24.3295 49.459 23.6857C49.8613 23.3639 50.2636 23.6053 50.666 23.4443C50.8269 23.4443 50.9878 23.4443 51.1488 23.4443C51.3097 23.4443 51.4706 23.5248 51.6316 23.5248C51.6316 23.6053 51.712 23.6857 51.6316 23.7662Z" fill="#D2CAD7"/>
<path d="M51.1498 23.4445C50.9889 23.4445 50.8279 23.4445 50.667 23.4445C50.9084 23.2031 50.9889 23.2031 51.1498 23.4445Z" fill="#583C71"/>
</svg>
