<svg width="60" height="60" viewBox="0 0 60 60" fill="none" xmlns="http://www.w3.org/2000/svg">
<path d="M48.5004 22.5999C54.6308 22.5999 59.6004 17.6303 59.6004 11.4999C59.6004 5.36954 54.6308 0.399902 48.5004 0.399902C42.37 0.399902 37.4004 5.36954 37.4004 11.4999C37.4004 11.9642 37.4289 12.4218 37.4843 12.8712L19.206 22.0103C17.2096 20.0844 14.4933 18.8999 11.5004 18.8999C5.37003 18.8999 0.400391 23.8695 0.400391 29.9999C0.400391 36.1303 5.37003 41.0999 11.5004 41.0999C14.4934 41.0999 17.2097 39.9153 19.2061 37.9894L37.4843 47.1285C37.4289 47.5779 37.4004 48.0355 37.4004 48.4999C37.4004 54.6303 42.37 59.5999 48.5004 59.5999C54.6308 59.5999 59.6004 54.6303 59.6004 48.4999C59.6004 42.3695 54.6308 37.3999 48.5004 37.3999C45.5074 37.3999 42.7912 38.5844 40.7948 40.5103L22.5165 31.3712C22.5719 30.9218 22.6004 30.4642 22.6004 29.9999C22.6004 29.5356 22.5719 29.0779 22.5165 28.6285L40.7947 19.4894C42.791 21.4153 45.5074 22.5999 48.5004 22.5999Z" fill="#62268A"/>
</svg>
