<svg width="30" height="71" viewBox="0 0 30 71" fill="none" xmlns="http://www.w3.org/2000/svg">
<path d="M15 71L0.566243 46H29.4338L15 71ZM17.5 0V0.986111L12.5 0.986111V0L17.5 0ZM17.5 2.95833V4.93056L12.5 4.93056V2.95833L17.5 2.95833ZM17.5 6.90278V8.875H12.5V6.90278L17.5 6.90278ZM17.5 10.8472L17.5 12.8194H12.5V10.8472H17.5ZM17.5 14.7917V16.7639H12.5V14.7917H17.5ZM17.5 18.7361V20.7083H12.5V18.7361H17.5ZM17.5 22.6806V24.6528H12.5V22.6806H17.5ZM17.5 26.625L17.5 28.5972H12.5V26.625H17.5ZM17.5 30.5694V32.5417H12.5V30.5694H17.5ZM17.5 34.5139V36.4861H12.5V34.5139H17.5ZM17.5 38.4583V40.4305H12.5V38.4583H17.5ZM17.5 42.4028V44.375H12.5V42.4028H17.5ZM17.5 46.3472V48.3194H12.5V46.3472H17.5ZM17.5 50.2917V52.2639H12.5L12.5 50.2917H17.5ZM17.5 54.2361V56.2083H12.5V54.2361H17.5ZM17.5 58.1805V60.1528H12.5V58.1805H17.5ZM17.5 62.125V64.0972H12.5L12.5 62.125H17.5ZM17.5 66.0694L17.5 68.0416H12.5V66.0694H17.5Z" fill="#62268A"/>
</svg>
