<svg width="71" height="30" viewBox="0 0 71 30" fill="none" xmlns="http://www.w3.org/2000/svg">
<path d="M0 15L25 29.4338L25 0.566247L0 15ZM71 12.5L70.0139 12.5L70.0139 17.5L71 17.5L71 12.5ZM68.0417 12.5L66.0694 12.5L66.0694 17.5L68.0417 17.5L68.0417 12.5ZM64.0972 12.5L62.125 12.5L62.125 17.5L64.0972 17.5L64.0972 12.5ZM60.1528 12.5L58.1806 12.5L58.1806 17.5L60.1528 17.5L60.1528 12.5ZM56.2083 12.5L54.2361 12.5L54.2361 17.5L56.2083 17.5L56.2083 12.5ZM52.2639 12.5L50.2917 12.5L50.2917 17.5L52.2639 17.5L52.2639 12.5ZM48.3194 12.5L46.3472 12.5L46.3472 17.5L48.3194 17.5L48.3194 12.5ZM44.375 12.5L42.4028 12.5L42.4028 17.5L44.375 17.5L44.375 12.5ZM40.4306 12.5L38.4583 12.5L38.4583 17.5L40.4306 17.5L40.4306 12.5ZM36.4861 12.5L34.5139 12.5L34.5139 17.5L36.4861 17.5L36.4861 12.5ZM32.5417 12.5L30.5695 12.5L30.5695 17.5L32.5417 17.5L32.5417 12.5ZM28.5972 12.5L26.625 12.5L26.625 17.5L28.5972 17.5L28.5972 12.5ZM24.6528 12.5L22.6806 12.5L22.6806 17.5L24.6528 17.5L24.6528 12.5ZM20.7083 12.5L18.7361 12.5L18.7361 17.5L20.7083 17.5L20.7083 12.5ZM16.7639 12.5L14.7917 12.5L14.7917 17.5L16.7639 17.5L16.7639 12.5ZM12.8195 12.5L10.8472 12.5L10.8472 17.5L12.8195 17.5L12.8195 12.5ZM8.87502 12.5L6.90279 12.5L6.90279 17.5L8.87502 17.5L8.87502 12.5ZM4.93057 12.5L2.95835 12.5L2.95835 17.5L4.93057 17.5L4.93057 12.5Z" fill="#62268A"/>
</svg>
