<svg width="37" height="13" viewBox="0 0 37 13" fill="none" xmlns="http://www.w3.org/2000/svg">
<path d="M15.9323 7.41888H0.861328V12.4399H15.9323V7.41888Z" fill="#84B740"/>
<path d="M15.9323 0.567871H0.861328V5.59287H15.9323V0.567871Z" fill="#259BD6"/>
<path d="M31.0031 11.4199L30.9361 11.4329C30.7763 11.4721 30.6126 11.4932 30.4481 11.4959C30.0541 11.4959 29.5891 11.2959 29.5891 10.3459C29.5891 9.85789 29.6701 9.20889 30.4031 9.20889C30.5856 9.21978 30.766 9.25338 30.9401 9.30889L30.9981 9.32689L31.0031 11.4199ZM31.1241 6.68989L31.0031 6.71189V8.46589L30.8961 8.43489L30.8651 8.42589C30.6492 8.35679 30.4247 8.31776 30.1981 8.30989C28.7301 8.30989 28.4221 9.41989 28.4221 10.3499C28.3912 10.6173 28.4204 10.8882 28.5075 11.1429C28.5946 11.3976 28.7374 11.6297 28.9256 11.8222C29.1138 12.0147 29.3425 12.1628 29.5952 12.2556C29.8479 12.3484 30.1181 12.3837 30.3861 12.3589C30.8303 12.3715 31.2734 12.3096 31.6971 12.1759C31.8453 12.1542 31.9794 12.076 32.0712 11.9576C32.1629 11.8392 32.2052 11.6898 32.1891 11.5409V6.50589C31.8401 6.56889 31.4781 6.63189 31.1241 6.68989Z" fill="#27292D"/>
<path d="M35.3659 11.4499L35.3029 11.4679L35.0789 11.5259C34.9026 11.5754 34.721 11.6039 34.5379 11.6109C34.1929 11.6109 33.9879 11.4409 33.9879 11.1499C33.9879 10.9619 34.0729 10.6439 34.6369 10.6439H35.3659V11.4499ZM34.8509 8.28589C34.3422 8.29524 33.838 8.38293 33.3559 8.54589L32.9799 8.65789L33.1049 9.50789L33.4719 9.38689C33.8672 9.25977 34.2788 9.19039 34.6939 9.18089C34.8549 9.18089 35.3469 9.18089 35.3469 9.71289V9.94589H34.6619C33.4139 9.94589 32.8359 10.3459 32.8359 11.1989C32.8359 11.9279 33.3679 12.3669 34.2629 12.3669C34.5978 12.3584 34.9308 12.3135 35.2559 12.2329H35.2739H35.2919L35.4039 12.2509C35.7529 12.3139 36.1149 12.3759 36.4689 12.4429V9.65189C36.4689 8.75189 35.9229 8.28689 34.8489 8.28689" fill="#27292D"/>
<path d="M26.6716 11.4499L26.6086 11.4679L26.3846 11.5259C26.2083 11.5757 26.0267 11.6042 25.8436 11.6109C25.4986 11.6109 25.2936 11.4409 25.2936 11.1499C25.2936 10.9619 25.3786 10.6439 25.9376 10.6439H26.6666V11.4489L26.6716 11.4499ZM26.1616 8.28589C25.6528 8.29488 25.1485 8.38259 24.6666 8.54589L24.2906 8.65789L24.4156 9.50789L24.7826 9.38689C25.1779 9.25977 25.5895 9.19039 26.0046 9.18089C26.1656 9.18089 26.6576 9.18089 26.6576 9.71289V9.94589H25.9726C24.7246 9.94589 24.1426 10.3459 24.1426 11.1989C24.1426 11.9279 24.6746 12.3669 25.5746 12.3669C25.9095 12.3584 26.2424 12.3135 26.5676 12.2329H26.5856H26.6036L26.7106 12.2509C27.0646 12.3139 27.4216 12.3759 27.7756 12.4509V9.65589C27.7756 8.74289 27.2346 8.28689 26.1606 8.28689" fill="#27292D"/>
<path d="M21.9587 8.29589C21.5402 8.3002 21.1271 8.39147 20.7457 8.56389L20.7007 8.58589L20.6607 8.55489C20.3347 8.35597 19.9547 8.26368 19.5737 8.29089C19.1386 8.29176 18.706 8.35645 18.2897 8.48289C17.9097 8.59889 17.7617 8.78289 17.7617 9.12689V12.3169H18.9517V9.36989L19.0097 9.35189C19.1775 9.28987 19.3549 9.25805 19.5337 9.25789C19.6058 9.24961 19.6789 9.25811 19.7471 9.28272C19.8154 9.30733 19.8771 9.34738 19.9273 9.39975C19.9776 9.45212 20.015 9.5154 20.0368 9.58463C20.0585 9.65387 20.064 9.72719 20.0527 9.79889V12.3229H21.2247V9.75089C21.226 9.6629 21.2139 9.57522 21.1887 9.49089L21.1487 9.41489L21.2297 9.37889C21.4129 9.29769 21.6113 9.25644 21.8117 9.25789C21.8837 9.25023 21.9565 9.25916 22.0244 9.28398C22.0924 9.3088 22.1538 9.34886 22.2039 9.40109C22.254 9.45331 22.2915 9.51632 22.3135 9.58528C22.3355 9.65423 22.3414 9.7273 22.3307 9.79889V12.3229H23.4987V9.68289C23.4987 8.74789 22.9977 8.29589 21.9587 8.29589Z" fill="#27292D"/>
<path d="M34.4885 3.84388C34.2558 3.84281 34.0236 3.82173 33.7945 3.78088L33.7275 3.76788V2.04488C33.7294 1.9618 33.7189 1.8789 33.6965 1.79888L33.6605 1.72688L33.7365 1.69588C33.7545 1.68688 33.7725 1.68288 33.7945 1.67388L33.8075 1.66488L33.8885 1.63788C33.8984 1.63343 33.9088 1.63039 33.9195 1.62888C34.1205 1.58219 34.3261 1.55804 34.5325 1.55688C35.2615 1.55688 35.3465 2.20588 35.3465 2.69388C35.3465 3.64288 34.8725 3.84388 34.4825 3.84388M34.4825 0.568881H34.4515C34.1548 0.540304 33.8553 0.574995 33.573 0.670664C33.2906 0.766334 33.0318 0.920806 32.8135 1.12388C32.6723 1.31746 32.5969 1.55126 32.5985 1.79088V3.56688C32.603 3.64328 32.5907 3.71973 32.5625 3.79088L32.5225 3.86688H30.3585V2.63088C30.3841 2.36866 30.3531 2.10401 30.2676 1.8548C30.1821 1.60559 30.0441 1.37764 29.8629 1.18634C29.6818 0.995035 29.4617 0.844847 29.2175 0.745917C28.9733 0.646987 28.7107 0.60162 28.4475 0.612881H27.3585C27.3135 0.930881 27.2775 1.15388 27.2335 1.47188H28.3165C28.8845 1.47188 29.1845 1.95488 29.1845 2.69788V3.94188L29.1085 3.90188C29.0259 3.87654 28.9399 3.86439 28.8535 3.86588H26.9835C26.9475 4.10288 26.9025 4.41188 26.8535 4.72088H32.6035C32.8035 4.68088 33.0285 4.64488 33.2255 4.61388C33.608 4.76222 34.0153 4.83654 34.4255 4.83288C34.7054 4.84743 34.9851 4.80189 35.2459 4.69931C35.5068 4.59672 35.7426 4.43949 35.9375 4.23817C36.1325 4.03685 36.2821 3.79612 36.3763 3.53217C36.4705 3.26821 36.507 2.98715 36.4835 2.70788C36.5068 2.43288 36.4721 2.15606 36.3817 1.89531C36.2913 1.63455 36.1472 1.39566 35.9587 1.19408C35.7702 0.99249 35.5415 0.832688 35.2874 0.724997C35.0333 0.617306 34.7585 0.564122 34.4825 0.568881Z" fill="#27292D"/>
<path d="M24.4029 5.24387H24.4569C25.7049 5.24387 26.2869 4.83187 26.2869 3.81687C26.2882 3.63431 26.2513 3.4535 26.1785 3.28609C26.1057 3.11868 25.9986 2.96837 25.8641 2.84486C25.7297 2.72135 25.5709 2.62738 25.3979 2.56899C25.2249 2.5106 25.0417 2.4891 24.8599 2.50587H23.7099C23.6377 2.51326 23.5648 2.50486 23.4962 2.48125C23.4276 2.45764 23.365 2.4194 23.3127 2.36916C23.2603 2.31893 23.2196 2.25791 23.1932 2.19034C23.1668 2.12277 23.1554 2.05027 23.1599 1.97787C23.1599 1.75387 23.2449 1.47787 23.8089 1.47787H26.3239C26.3779 1.15087 26.4049 0.945866 26.4539 0.618866H23.8399C22.6229 0.618866 22.0099 1.12887 22.0099 1.97887C22.0099 2.82887 22.5419 3.25887 23.4369 3.25887H24.5869C24.6601 3.25789 24.7328 3.27175 24.8006 3.29961C24.8684 3.32747 24.9298 3.36876 24.9812 3.42099C25.0326 3.47321 25.0728 3.5353 25.0996 3.60351C25.1264 3.67171 25.139 3.74463 25.1369 3.81787C25.14 3.90035 25.1249 3.98251 25.0926 4.05849C25.0604 4.13448 25.0118 4.20243 24.9503 4.25751C24.8888 4.31259 24.816 4.35346 24.7369 4.3772C24.6578 4.40094 24.5745 4.40697 24.4929 4.39487H24.3009L20.6169 4.38487H19.9469C19.3789 4.38487 18.9799 4.06287 18.9799 3.31587V2.80087C18.9799 2.02187 19.2889 1.53887 19.9469 1.53887H21.0389C21.0879 1.20787 21.1199 0.997867 21.1639 0.683867H19.6739C19.4089 0.676347 19.1454 0.725327 18.9009 0.827549C18.6563 0.929771 18.4363 1.08289 18.2556 1.27673C18.0748 1.47056 17.9373 1.70066 17.8524 1.95173C17.7674 2.20281 17.7369 2.46909 17.7629 2.73287V3.31487C17.7388 3.57242 17.7715 3.83213 17.8588 4.07562C17.9462 4.31912 18.0859 4.54046 18.2682 4.72399C18.4505 4.90752 18.6709 5.04877 18.9138 5.13774C19.1567 5.22671 19.4162 5.26123 19.6739 5.23887H20.7609H22.7609H24.4079L24.4029 5.24387Z" fill="#27292D"/>
</svg>
