<svg width="105" height="105" viewBox="0 0 105 105" fill="none" xmlns="http://www.w3.org/2000/svg">
<g clip-path="url(#clip0_198_3061)">
<path d="M33.7794 70.2511L31.6025 46.4233H43.7967V70.2511H33.7794Z" fill="#F4A911"/>
<path d="M53.4053 46.4233H63.4225V70.2512H53.4053V46.4233Z" fill="#F4A911"/>
<path d="M73.0322 70.2511V46.4233H87.4033L83.0495 70.2511H73.0322Z" fill="#F4A911"/>
<path d="M27.7825 78.9836H85.5735C89.996 78.9836 93.7418 75.6768 94.3513 71.2337L98.8478 38.4543H17.3623L22.2526 74.1013C22.6365 76.9003 24.9963 78.9836 27.7825 78.9836Z" stroke="#62268A" stroke-width="6" stroke-miterlimit="10" stroke-linecap="round" stroke-linejoin="round"/>
<path d="M15.4475 23.6681L12.7665 7.0904H2.05078" stroke="#62268A" stroke-width="6" stroke-miterlimit="10" stroke-linecap="round" stroke-linejoin="round"/>
<path d="M88.0548 88.4467C88.0548 93.6729 83.8776 97.9098 78.7248 97.9098C73.5718 97.9098 69.3945 93.6729 69.3945 88.4467C69.3945 83.2205 73.5718 78.9835 78.7248 78.9835C83.8776 78.9835 88.0548 83.2205 88.0548 88.4467Z" stroke="#62268A" stroke-width="6" stroke-miterlimit="10" stroke-linecap="round" stroke-linejoin="round"/>
<path d="M45.4366 88.4467C45.4366 93.6729 41.2594 97.9098 36.1066 97.9098C30.9536 97.9098 26.7764 93.6729 26.7764 88.4467C26.7764 83.2205 30.9536 78.9835 36.1066 78.9835C41.2594 78.9835 45.4366 83.2205 45.4366 88.4467Z" stroke="#62268A" stroke-width="6" stroke-miterlimit="10" stroke-linecap="round" stroke-linejoin="round"/>
<path d="M15.4473 23.6681L17.3621 38.4542H102.949L102.911 23.6681H15.4473Z" stroke="#62268A" stroke-width="6" stroke-miterlimit="10" stroke-linecap="round" stroke-linejoin="round"/>
</g>
<defs>
<clipPath id="clip0_198_3061">
<rect width="105" height="105" fill="white"/>
</clipPath>
</defs>
</svg>
