<svg width="20" height="20" viewBox="0 0 20 20" fill="none" xmlns="http://www.w3.org/2000/svg">
<path d="M10 20C15.5228 20 20 15.5228 20 10C20 4.47715 15.5228 0 10 0C4.47715 0 0 4.47715 0 10C0 15.5228 4.47715 20 10 20Z" fill="#3D9635"/>
<path d="M2.94039 5.82191C2.90727 6.33878 2.86477 7.25316 3.25289 7.34566C3.72477 7.39441 3.46477 6.44503 3.63477 6.27253C3.66727 6.18878 3.72727 6.18878 3.73164 6.29441V7.10316C3.72507 7.18904 3.74826 7.27456 3.79731 7.34536C3.84637 7.41615 3.9183 7.4679 4.00102 7.49191C4.12602 7.48253 4.20727 7.48691 4.25539 7.62441C4.27622 8.08816 4.2956 8.55191 4.31352 9.01566C4.31352 9.01566 4.60164 9.11253 4.61539 8.23378C4.5866 7.88583 4.57763 7.53651 4.58852 7.18753C4.58852 7.09003 4.70102 7.08128 4.78102 7.13441C4.90602 7.23191 4.95977 7.35066 5.15102 7.30253C5.44352 7.20941 5.61727 7.05253 5.62227 6.79878C5.61507 6.55354 5.57082 6.31079 5.49102 6.07878C5.50352 6.03441 5.43289 5.92441 5.44789 5.88003C5.49977 5.97316 5.57852 5.96378 5.59602 5.88003C5.56762 5.70902 5.47893 5.55382 5.34602 5.44253C5.24227 5.34066 5.08914 5.36253 5.03352 5.57941C5.02768 5.85611 5.11191 6.12722 5.27352 6.35191C5.32336 6.47509 5.34369 6.60822 5.33289 6.74066C5.29404 6.76474 5.24731 6.77266 5.20269 6.76273C5.15808 6.7528 5.11912 6.72581 5.09414 6.68753C5.09414 6.68753 4.85914 6.48878 4.85914 6.44941C4.91603 6.24391 4.90927 6.02599 4.83977 5.82441C4.81384 5.70338 4.76179 5.58948 4.68727 5.49066C4.62977 5.41566 4.55102 5.41566 4.51352 5.49066C4.43083 5.75945 4.43741 6.04779 4.53227 6.31253C4.58414 6.48878 4.66789 6.59941 4.62977 6.59941C4.59727 6.70128 4.53102 6.67441 4.48352 6.55941C4.42641 6.31189 4.39934 6.0584 4.40289 5.80441C4.38102 5.60566 4.35727 5.17941 4.24164 5.07128C4.17102 4.96503 4.06477 5.01816 4.02727 5.12003C4.01827 5.31133 4.02223 5.50302 4.03914 5.69378C4.10832 5.9993 4.15655 6.30919 4.18352 6.62128C4.19352 7.05878 3.95977 6.80878 3.96977 6.59066C4.01969 6.3143 4.01693 6.03099 3.96164 5.75566C3.92352 5.64128 3.87852 5.61441 3.78414 5.63691C3.70914 5.62753 3.51977 5.86191 3.46664 6.25066C3.43884 6.37608 3.41798 6.50294 3.40414 6.63066C3.37664 6.82941 3.25977 6.97066 3.17789 6.59941C3.10539 6.33003 3.06289 5.66753 2.94414 5.82191" fill="white"/>
<path d="M4.22602 7.94188C3.80914 8.17625 3.40414 8.38813 2.99414 8.60875C3.06335 8.38765 3.19012 8.18892 3.36145 8.03297C3.53279 7.87701 3.74252 7.76943 3.96914 7.72125C4.21914 7.73 4.15664 7.83188 4.22602 7.94188Z" fill="white"/>
<path d="M5.79554 5.01812C5.76834 5.02373 5.74191 5.03254 5.71679 5.04437C5.65302 5.0665 5.60027 5.1124 5.56953 5.17249C5.53878 5.23257 5.53243 5.30221 5.55179 5.36687C5.67054 6.17937 5.74616 6.79812 5.86429 7.60624C5.88491 7.70374 5.81241 7.82749 5.72179 7.81874C5.56616 7.69937 5.52741 7.45624 5.26241 7.46937C5.15051 7.49199 5.04836 7.54873 4.97002 7.63177C4.89168 7.71482 4.84098 7.82009 4.82491 7.93312C4.78923 8.10798 4.78923 8.28825 4.82491 8.46312C4.87206 8.53142 4.94146 8.58123 5.02126 8.60403C5.10106 8.62683 5.1863 8.6212 5.26241 8.58812C5.37866 8.53499 5.47554 8.40062 5.51679 8.43374C5.54241 8.48687 5.51304 8.91062 4.96804 9.23312C4.63116 9.40062 4.36491 9.44499 4.21804 9.13562C4.13054 8.94187 4.22491 8.20812 4.00679 8.37624C3.35804 10.2575 5.52491 10.5225 5.76804 8.45562C5.78366 8.39812 5.83054 8.34062 5.86616 8.35437C5.88241 8.36312 5.89366 8.38499 5.89741 8.42937C5.84741 10.2975 4.22179 10.4212 3.94616 9.83812C3.87935 9.63424 3.84641 9.42078 3.84866 9.20624C3.84841 9.13191 3.82528 9.05946 3.78241 8.99874C3.71616 8.94624 3.62804 9.09187 3.60804 9.34374C3.58815 9.49286 3.58167 9.64347 3.58866 9.79374C3.67491 11.2781 5.76866 10.6419 6.11054 9.41874C6.17794 9.03303 6.19684 8.6404 6.16679 8.24999H6.17366L6.17866 8.24562C6.39054 8.49562 6.67866 8.27624 6.74429 8.19249C6.75118 8.18 6.76094 8.16933 6.77276 8.16135C6.78459 8.15338 6.79814 8.14833 6.8123 8.14662C6.82647 8.14491 6.84083 8.14659 6.85422 8.15152C6.8676 8.15646 6.87962 8.1645 6.88929 8.17499C6.93012 8.20769 6.97837 8.22984 7.02979 8.23948C7.08121 8.24912 7.13421 8.24595 7.18411 8.23026C7.23402 8.21458 7.27929 8.18685 7.31595 8.14952C7.3526 8.1122 7.37951 8.06642 7.39429 8.01624C7.43106 7.7836 7.45464 7.54905 7.46491 7.31374C7.38275 7.33165 7.30565 7.36774 7.23929 7.41937C7.23048 7.42946 7.22464 7.44179 7.22241 7.45499C7.21429 7.51749 7.20554 7.58749 7.19554 7.65374C7.19437 7.65965 7.19291 7.66549 7.19116 7.67124C7.18619 7.67916 7.17902 7.68546 7.17054 7.68937C7.16052 7.69615 7.14888 7.70015 7.13681 7.70094C7.12475 7.70174 7.11268 7.69931 7.10187 7.6939C7.09105 7.68849 7.08186 7.6803 7.07526 7.67016C7.06866 7.66003 7.06487 7.64832 7.06429 7.63624C7.01491 7.38624 6.80866 7.34437 6.68304 7.74187C6.59679 7.82187 6.44554 7.83499 6.42866 7.72437C6.45054 7.45499 6.35304 7.41937 6.16179 7.54312C6.09929 7.01312 6.03679 6.50999 5.97429 5.98062C6.05554 5.98062 6.12679 6.04687 6.20116 5.94499C6.13399 5.6311 6.01978 5.32915 5.86241 5.04937C5.85775 5.04305 5.85275 5.037 5.84741 5.03124C5.84607 5.03114 5.84479 5.03068 5.84369 5.02991C5.84259 5.02914 5.84172 5.02809 5.84116 5.02687H5.83366C5.82991 5.02249 5.82366 5.02249 5.82304 5.01812C5.81304 5.01812 5.80429 5.01374 5.79554 5.01812ZM5.21304 7.91999C5.23847 7.91761 5.26394 7.92425 5.28497 7.93877C5.306 7.95328 5.32125 7.97474 5.32804 7.99937C5.33568 8.02309 5.33751 8.04831 5.33338 8.07289C5.32924 8.09747 5.31927 8.1207 5.30429 8.14062C5.28741 8.17187 5.23241 8.15874 5.19116 8.15874C5.17034 8.16069 5.14942 8.15623 5.13121 8.14595C5.11301 8.13568 5.09837 8.12007 5.08929 8.10124C5.07429 8.05249 5.11554 8.00374 5.13554 7.96437C5.15554 7.92499 5.13929 7.95562 5.14241 7.95124C5.16276 7.93474 5.18714 7.92395 5.21304 7.91999Z" fill="white"/>
<path d="M7.25508 4.97376C7.20389 4.97876 7.15418 4.99384 7.10883 5.01813C7.05628 5.07333 7.02329 5.14426 7.01494 5.22001C7.00658 5.29577 7.02332 5.37218 7.06258 5.43751C7.14508 5.47751 7.22758 5.57501 7.17133 5.62501C6.94008 5.90376 6.33321 6.37501 6.30258 6.46001V6.46876H6.30758C6.45722 6.49433 6.60998 6.49581 6.76008 6.47313V6.46876C7.03339 6.20755 7.28428 5.92384 7.51008 5.62063C7.47946 5.59001 7.44758 5.56751 7.41696 5.53688C7.40966 5.53102 7.40377 5.5236 7.39972 5.51517C7.39567 5.50673 7.39357 5.49749 7.39357 5.48813C7.39357 5.47877 7.39567 5.46953 7.39972 5.4611C7.40377 5.45266 7.40966 5.44524 7.41696 5.43938C7.47586 5.38617 7.51155 5.31198 7.51634 5.23274C7.52113 5.15351 7.49465 5.07555 7.44258 5.01563C7.38527 4.98445 7.32014 4.97056 7.25508 4.97563M7.22633 5.21876C7.26446 5.21438 7.30883 5.25876 7.33133 5.31126C7.35383 5.36376 7.34321 5.42626 7.30571 5.43938C7.26821 5.45251 7.21633 5.40876 7.19133 5.35126C7.16633 5.29376 7.18008 5.23188 7.21946 5.22313C7.21946 5.22313 7.21946 5.21876 7.22633 5.21876ZM3.03633 9.27626C2.93222 9.45967 2.86735 9.6627 2.84584 9.8725C2.82432 10.0823 2.84662 10.2943 2.91133 10.495C2.93968 10.5362 2.98005 10.5676 3.02693 10.5849C3.07381 10.6023 3.1249 10.6047 3.17321 10.5919C3.31758 10.5213 3.38258 10.19 3.34696 10.0713C3.29883 9.98251 3.26071 9.96938 3.21133 10.0444C3.11071 10.2744 3.06758 10.115 3.05821 9.98188C3.04653 9.76359 3.05573 9.54467 3.08571 9.32813C3.11133 9.14751 3.08571 9.20001 3.03508 9.27563M12.9213 8.61376C12.6988 8.07001 12.3888 7.53563 12.2907 7.33251C12.1926 7.12938 11.4482 5.91501 11.3382 5.77376C11.0957 5.45126 11.7307 5.91063 11.2576 5.26563C11.0788 5.09313 11.0701 5.08438 10.9157 4.94313C10.8432 4.88063 10.6563 4.77563 10.6263 4.95188C10.6093 5.07994 10.6146 5.21 10.642 5.33626C10.689 5.45337 10.7521 5.56337 10.8295 5.66313C11.6254 6.8466 12.3176 8.09667 12.8982 9.39938C13.0007 9.34688 12.9788 8.70626 12.9182 8.61376" fill="white"/>
<path d="M11.9417 10.4244C11.8961 10.4775 12.0486 10.72 12.248 10.7156C12.5786 10.6763 12.873 10.4656 13.1405 9.91189C13.2519 9.72277 13.3216 9.51202 13.3448 9.29376C13.3782 8.24719 13.3034 7.19997 13.1217 6.16876C13.1101 6.09685 13.1129 6.02336 13.1298 5.95251C13.1511 5.92189 13.2242 5.95251 13.2623 5.88189C13.3205 5.81564 13.113 5.27689 12.9948 5.06939C12.953 4.97626 12.938 4.91501 12.8698 5.07814C12.7853 5.26362 12.7455 5.46634 12.7536 5.67001C12.9117 6.89814 12.9598 7.98251 13.0661 9.20751C13.0838 9.3337 13.0563 9.46209 12.9886 9.57001C12.7077 9.92894 12.3511 10.2215 11.9442 10.4269M15.7392 12.2194C15.4998 12.3744 15.4998 12.555 15.6942 12.5594C15.892 12.5641 16.0876 12.5174 16.2618 12.4237C16.436 12.33 16.5829 12.1926 16.688 12.025C16.7831 11.8076 16.8375 11.5746 16.8486 11.3375C16.8935 10.2081 16.8332 9.077 16.6686 7.95876C16.6474 7.85402 16.6363 7.74749 16.6355 7.64064C16.658 7.58314 16.7648 7.64939 16.8011 7.57814C16.8598 7.51564 16.5242 7.02626 16.4042 6.81876C16.3642 6.72564 16.3492 6.66376 16.2792 6.83189C16.2003 7.01704 16.1764 7.22102 16.2105 7.41939C16.3881 8.68476 16.4991 9.9586 16.543 11.2356C16.5346 11.3422 16.5123 11.4473 16.4767 11.5481C16.3858 11.7033 16.2769 11.8472 16.1523 11.9769C16.0423 12.065 15.8123 12.1531 15.738 12.2194" fill="white"/>
<path d="M16.5957 9.21878C16.5919 8.90628 16.6038 8.63565 16.5919 8.40128C16.5801 8.1669 16.4869 7.29253 16.4576 7.10753C16.4282 6.92253 16.3913 6.63503 16.3463 6.4094C16.3201 6.27849 16.3063 6.14541 16.3051 6.0119C16.3226 5.9494 16.3994 6.01628 16.4338 5.94128C16.3945 5.59718 16.2883 5.26407 16.1213 4.96065C16.0782 4.86815 15.9963 4.89815 15.8969 5.0494C15.8019 5.14628 15.8344 5.3669 15.8726 5.5794C16.1327 6.96112 16.2591 8.36469 16.2501 9.77065C16.2363 9.88128 16.5994 9.43065 16.5957 9.21878ZM14.8401 7.4869C14.6894 7.48253 14.3757 7.16003 14.2844 6.97065C14.257 6.87861 14.2632 6.77979 14.3019 6.6919C14.3576 6.65253 14.4432 6.60378 14.5063 6.65253C14.5063 6.65253 14.5726 6.75378 14.5601 6.76753C14.6413 6.81128 14.6769 6.78503 14.6851 6.74503C14.6901 6.68253 14.6594 6.64378 14.6594 6.57315C14.6938 6.3744 14.8932 6.34753 14.9719 6.47128C15.0257 6.5782 15.0543 6.69598 15.0557 6.81565C15.0557 6.87315 14.9738 6.8069 14.9307 6.82003C14.8876 6.83315 14.8738 6.89128 14.8682 6.94503C14.855 7.12582 14.8464 7.30692 14.8426 7.48815M12.0763 9.56753C12.1188 9.13878 12.0626 8.27315 12.0588 8.0219C12.0451 7.43003 11.9569 6.28565 11.9176 6.09565C11.8701 5.73378 12.0482 6.13565 12.0226 5.92378C11.9441 5.58474 11.7929 5.26679 11.5794 4.9919C11.5132 4.88565 11.5169 4.86378 11.4107 5.01815C11.3431 5.2556 11.3479 5.50782 11.4244 5.74253C11.5673 6.43583 11.6605 7.13845 11.7032 7.84503C11.7483 8.58921 11.754 9.33525 11.7201 10.08C11.8332 10.08 12.0138 9.87253 12.0763 9.56753Z" fill="white"/>
<path d="M17.1063 8.88311C16.8445 8.38311 16.4445 7.80061 16.3388 7.60186C16.2332 7.40311 15.3307 5.91936 15.2182 5.78936C14.8882 5.40498 15.3695 5.72686 15.1557 5.42248C15.0407 5.2681 14.91 5.12609 14.7657 4.99873C14.6888 4.94561 14.6407 4.83498 14.6157 5.01623C14.6021 5.17772 14.5981 5.33989 14.6038 5.50186C14.6212 5.61163 14.6664 5.71513 14.7351 5.80248C15.6262 7.02518 16.4177 8.31746 17.102 9.66686C17.202 9.61436 17.1676 8.97373 17.1057 8.88561M13.9107 13.6137C13.8642 13.6277 13.8226 13.6545 13.7906 13.691C13.7587 13.7275 13.7376 13.7722 13.7298 13.8202C13.7221 13.8681 13.7279 13.9172 13.7468 13.9619C13.7656 14.0066 13.7966 14.0452 13.8363 14.0731C11.3707 14.0731 7.58633 14.0287 6.7782 14.0287C6.32258 14.0287 4.8882 13.9662 4.86133 13.9662C5.00395 14.1838 5.20469 14.357 5.44076 14.4663C5.67684 14.5755 5.93881 14.6164 6.19695 14.5844C7.2932 14.5844 12.3651 14.5712 13.807 14.5712C13.7705 14.6695 13.7597 14.7754 13.7757 14.879C13.7916 14.9826 13.8338 15.0804 13.8982 15.1631L13.9038 15.1675C13.9046 15.1691 13.9059 15.1703 13.9075 15.1711C13.909 15.1719 13.9108 15.1722 13.9126 15.1719H13.917C14.0132 15.1987 14.0551 15.1187 14.0888 15.0662C14.4573 15.0868 14.8267 15.0854 15.1951 15.0619C15.2495 15.15 15.3045 15.2337 15.4063 15.2206C15.5863 15.1762 15.7276 15.1544 15.7338 14.7437C15.7338 14.7437 15.7151 14.0456 15.3063 14.09C15.2095 14.1031 14.9388 14.1344 14.9388 14.1344C14.6263 14.0944 14.3932 14.09 14.0407 14.0719C14.0738 14.0275 14.1301 13.8375 14.0601 13.7712C14.0485 13.7615 14.035 13.7541 14.0205 13.7496C14.006 13.7451 13.9908 13.7435 13.9757 13.745H13.9688C13.9688 13.745 13.9632 13.7406 13.9613 13.7362V13.7319C13.9452 13.6931 13.932 13.6532 13.922 13.6125H13.9138M14.0813 14.6125C14.4388 14.63 14.7763 14.6169 15.1376 14.6344C15.1596 14.6641 15.1707 14.7006 15.1689 14.7376C15.1672 14.7746 15.1529 14.8098 15.1282 14.8375C15.1282 14.8419 15.1232 14.8419 15.1232 14.8419H15.1132C14.9963 14.8375 14.9295 14.8375 14.8126 14.8331C14.8126 14.8244 14.8088 14.82 14.8088 14.8112C14.7801 14.7181 14.5813 14.7275 14.5326 14.8025V14.8244C14.5314 14.8286 14.5314 14.8332 14.5326 14.8375C14.3793 14.8472 14.2253 14.8414 14.0732 14.82C14.0288 14.7575 14.0338 14.6431 14.0882 14.6125M7.6732 5.39811C7.43383 6.16623 7.81195 7.01436 8.0732 6.93498C8.2607 7.01873 8.38133 6.61248 8.46008 6.17061C8.51383 6.04561 8.5532 6.03373 8.5807 6.09561C8.57258 6.68748 8.61758 6.81998 8.75258 6.99686C8.78879 7.03573 8.83247 7.06688 8.88102 7.08845C8.92957 7.11003 8.98197 7.12157 9.03509 7.12238C9.08821 7.1232 9.14094 7.11328 9.19013 7.09321C9.23932 7.07314 9.28394 7.04335 9.32133 7.00561C9.3407 6.98811 9.5557 6.74498 9.5557 6.74498C9.56708 6.73021 9.58155 6.7181 9.59809 6.70949C9.61463 6.70089 9.63285 6.696 9.65148 6.69517C9.67011 6.69433 9.6887 6.69758 9.70594 6.70467C9.72319 6.71176 9.73868 6.72253 9.75133 6.73623C9.8207 6.80686 9.81383 6.93498 9.96508 7.01873C10.045 7.04994 10.1325 7.05613 10.2159 7.03649C10.2994 7.01684 10.375 6.97229 10.4326 6.90873C10.5188 6.74498 10.5376 6.68748 10.577 6.62561C10.6395 6.53311 10.7432 6.57311 10.7432 6.60373C10.7338 6.65686 10.6751 6.70561 10.7132 6.79811C10.7882 6.86061 10.8051 6.81998 10.8488 6.80686C11.0013 6.72311 11.1163 6.35186 11.1163 6.35186C11.1213 6.21061 11.0538 6.22373 11.0063 6.25498C10.9495 6.29436 10.9438 6.30811 10.8863 6.34748C10.8126 6.35623 10.6676 6.41373 10.5976 6.28998C10.5232 6.13998 10.5232 5.92811 10.4657 5.77811C10.4657 5.76936 10.3701 5.54373 10.4601 5.52811C10.5045 5.53686 10.6007 5.56748 10.617 5.47498C10.6657 5.38686 10.5151 5.13061 10.4132 5.00686C10.395 4.98021 10.3708 4.95819 10.3426 4.94256C10.3143 4.92693 10.2828 4.91812 10.2506 4.91685C10.2183 4.91557 10.1862 4.92186 10.1568 4.93521C10.1274 4.94856 10.1016 4.9686 10.0813 4.99373C10.0221 5.07257 9.99088 5.1689 9.99258 5.26748C9.97934 5.33148 9.97956 5.39754 9.99323 5.46145C10.0069 5.52537 10.0337 5.58574 10.072 5.63873C10.2144 5.86354 10.2801 6.12842 10.2595 6.39373C10.2353 6.43702 10.1999 6.47299 10.157 6.49785C10.1141 6.52271 10.0653 6.53554 10.0157 6.53498C9.9532 6.51748 9.84695 6.48623 9.7907 6.02686C9.80398 5.6651 9.76311 5.3034 9.66945 4.95373C9.62133 4.81248 9.58758 4.67561 9.4707 4.91873C9.41979 4.99525 9.38712 5.08242 9.3752 5.17355C9.36328 5.26468 9.37244 5.35732 9.40195 5.44436C9.49182 5.70675 9.51753 5.98686 9.47695 6.26123C9.43714 6.34029 9.39029 6.41559 9.33695 6.48623C9.30317 6.53049 9.2535 6.55987 9.19844 6.56815C9.14338 6.57643 9.08726 6.56297 9.04195 6.53061C8.99138 6.50207 8.94859 6.46156 8.91731 6.41264C8.88604 6.36371 8.86725 6.30786 8.86258 6.24998C8.88337 5.94789 8.87353 5.64447 8.8332 5.34436C8.76195 5.17623 8.64133 5.23811 8.59133 5.28686C8.35672 5.58235 8.20391 5.93432 8.1482 6.30748C8.07945 6.55436 8.00633 6.48373 7.9557 6.38248C7.8307 6.25436 7.8232 5.22936 7.6732 5.39748" fill="white"/>
<path d="M8.48329 6.99253C8.48329 6.9969 8.48016 6.9969 8.47641 6.9969V7.00128C8.46079 7.01003 8.44016 7.04128 8.39891 7.07628C8.36394 7.12321 8.33902 7.17684 8.32568 7.23383C8.31235 7.29082 8.31089 7.34995 8.32141 7.40753C8.32454 7.43003 8.45266 7.8319 8.56391 8.11878C8.65711 8.42924 8.68853 8.75497 8.65641 9.07753C8.4777 9.49192 8.17821 9.84281 7.79704 10.0844C7.74142 10.1125 7.67998 10.1272 7.61766 10.1272C7.55534 10.1272 7.4939 10.1125 7.43829 10.0844V10.08C7.40387 10.0531 7.37691 10.0179 7.35996 9.97762C7.343 9.93736 7.33662 9.89344 7.34141 9.85003C7.72552 9.61352 8.02736 9.26432 8.20579 8.85003C8.29006 8.6169 8.29816 8.36305 8.22891 8.12503C8.20728 8.00441 8.1569 7.89079 8.08204 7.79378C8.08204 7.79378 8.08204 7.79378 8.08204 7.7894C8.13016 7.76315 8.25454 7.86878 8.27516 7.80253C8.23901 7.61246 8.1527 7.43551 8.02516 7.29003C8.0086 7.26572 7.98676 7.24547 7.96126 7.2308C7.93577 7.21613 7.90729 7.20742 7.87795 7.20531C7.84861 7.20321 7.81918 7.20777 7.79186 7.21865C7.76453 7.22953 7.74002 7.24645 7.72016 7.26815C7.61704 7.3344 7.59516 7.56878 7.64329 7.77628C7.69954 7.92628 7.85141 7.95315 7.95954 8.2619V8.26628C7.98015 8.37367 7.97371 8.4845 7.94079 8.58878C7.75736 8.84403 7.5397 9.07284 7.29391 9.26878L7.28954 9.27315V9.27815H7.28266V9.27315C7.28506 9.23944 7.28506 9.20561 7.28266 9.1719C7.28266 9.08378 7.31454 8.87128 7.31204 8.8319V8.82753C7.12766 8.9644 7.06204 9.3794 7.03016 9.50315C6.56029 9.79599 6.12064 10.1347 5.71766 10.5144C5.55641 10.7932 6.82454 10.1875 6.96766 10.1169C6.96766 10.1169 6.97141 10.1169 6.97329 10.1213C7.00009 10.2125 7.03809 10.3 7.08641 10.3819C7.16043 10.4893 7.26598 10.571 7.38847 10.6158C7.51096 10.6606 7.64434 10.6662 7.77016 10.6319C8.18653 10.4304 8.53164 10.1069 8.75954 9.7044C8.79704 9.6419 8.85766 9.59378 8.91204 9.6419C9.04308 9.89834 9.24434 10.1122 9.49233 10.2586C9.74032 10.405 10.0248 10.4779 10.3127 10.4688C10.4708 10.2519 10.3964 10.1419 10.3314 10.1019C10.3108 10.0844 9.98954 9.94315 9.94079 9.8019C9.91016 9.67378 9.98454 9.55878 10.1389 9.47003C10.5787 9.42439 11.0123 9.33113 11.432 9.1919C11.4471 9.01773 11.4953 8.84803 11.5739 8.6919C11.5902 8.65648 11.6154 8.6259 11.647 8.60315C11.647 8.60315 11.647 8.60315 11.647 8.59878V8.5944C11.6476 8.59151 11.6476 8.58855 11.647 8.58565L11.5739 8.5369L10.1689 8.52815C10.1549 8.52264 10.1416 8.51528 10.1295 8.50628V8.48003C10.1405 8.46507 10.1561 8.45411 10.1739 8.44878C10.5114 8.40003 11.1064 8.29003 11.1452 7.64065C11.1555 7.5675 11.1506 7.49302 11.131 7.42181C11.1114 7.3506 11.0773 7.28418 11.031 7.22665C10.9846 7.16912 10.927 7.12171 10.8616 7.08735C10.7962 7.053 10.7244 7.03242 10.6508 7.0269C10.5101 7.05707 10.3866 7.14063 10.3063 7.26C10.226 7.37936 10.1951 7.52523 10.2202 7.6669C10.2083 7.75128 10.2477 7.92315 10.1689 7.94065C9.65141 7.99815 9.08766 8.36065 9.06704 8.62128H9.06016L9.05641 8.62565H9.04954L9.04329 8.62128C9.01685 8.60498 8.99607 8.58095 8.98377 8.55243C8.97147 8.52392 8.96825 8.49231 8.97454 8.4619C8.95086 7.99172 8.82976 7.53158 8.61891 7.11065C8.54766 7.0269 8.51516 6.99565 8.49391 6.99128H8.48516M10.5395 7.57003C10.5788 7.56599 10.618 7.57693 10.6495 7.60065C10.6743 7.61318 10.6953 7.63203 10.7105 7.6553C10.7256 7.67856 10.7344 7.70542 10.7358 7.73315V7.75003L10.727 7.75878C10.6995 7.7894 10.6395 7.78503 10.5795 7.74503C10.5564 7.73234 10.5366 7.71444 10.5216 7.69273C10.5066 7.67103 10.4969 7.64614 10.4933 7.62003V7.61503C10.4933 7.60628 10.497 7.6019 10.4995 7.6019L10.5033 7.59315C10.5033 7.58878 10.5033 7.58878 10.5102 7.5844C10.5145 7.58004 10.5196 7.57663 10.5253 7.57437C10.531 7.57211 10.5372 7.57106 10.5433 7.57128M9.23641 8.90503H9.25016C9.44382 8.94607 9.64052 8.97116 9.83829 8.98003C10.0014 8.99315 10.082 9.1344 9.92954 9.19628C9.77704 9.25815 9.63391 9.29815 9.63391 9.54565C9.65456 9.61477 9.65456 9.68841 9.63391 9.75753C9.63391 9.7619 9.63016 9.76628 9.62766 9.76628V9.77503H9.62329L9.61641 9.7794C9.61603 9.78062 9.61529 9.78169 9.61428 9.78247C9.61328 9.78325 9.61206 9.78371 9.61079 9.78378C9.57329 9.78815 9.52141 9.7444 9.48141 9.72628C9.37383 9.65228 9.28335 9.55609 9.21607 9.44419C9.1488 9.33228 9.10629 9.20725 9.09141 9.07753C9.08953 9.05657 9.09183 9.03544 9.09819 9.01538C9.10455 8.99532 9.11483 8.97672 9.12844 8.96067C9.14205 8.94462 9.15871 8.93143 9.17746 8.92188C9.19621 8.91233 9.21668 8.9066 9.23766 8.90503M4.71266 5.4069C4.87579 5.49065 5.17891 5.45565 5.16641 5.16378C5.16515 5.11811 5.16286 5.07247 5.15954 5.0269C5.12766 4.93878 5.03454 4.95628 5.01579 5.0494C5.00891 5.07565 5.02579 5.1244 5.00329 5.1419C4.98079 5.1594 4.93766 5.14628 4.94079 5.0669C4.9392 5.04128 4.93007 5.01671 4.91454 4.99628C4.90968 4.99086 4.90349 4.98679 4.89659 4.98449C4.88968 4.98219 4.8823 4.98173 4.87516 4.98315C4.85329 4.98753 4.85329 4.9919 4.84329 5.01378C4.83552 5.03503 4.8313 5.05741 4.83079 5.08003C4.82704 5.11065 4.81579 5.12003 4.79704 5.1244C4.77829 5.12878 4.78266 5.12878 4.76391 5.11565C4.75516 5.1019 4.74016 5.09753 4.74016 5.07565C4.73975 5.05193 4.73724 5.0283 4.73266 5.00503C4.72252 4.99188 4.70818 4.98262 4.69204 4.97878C4.60266 4.97878 4.59704 5.09315 4.60266 5.13753C4.59516 5.14628 4.59266 5.3494 4.71266 5.4069Z" fill="white"/>
<path d="M9.46023 7.66815C9.62211 7.75252 10.0071 7.70377 9.91461 7.41815C9.91359 7.37238 9.91025 7.3267 9.90461 7.28127C9.87273 7.19315 9.78336 7.21502 9.76148 7.30377C9.75648 7.3344 9.77398 7.38315 9.75086 7.40065C9.72773 7.41815 9.68461 7.40065 9.68836 7.32127C9.68672 7.297 9.67754 7.27384 9.66211 7.25502C9.6574 7.25012 9.65162 7.24639 9.64522 7.24411C9.63882 7.24183 9.63198 7.24107 9.62523 7.2419C9.60398 7.24627 9.60398 7.25065 9.59148 7.27252C9.58464 7.29399 9.58065 7.31627 9.57961 7.33877C9.57961 7.37002 9.56648 7.37877 9.54711 7.38315C9.52773 7.38752 9.53336 7.38752 9.51461 7.3744C9.49586 7.36127 9.49086 7.3569 9.49086 7.3344C9.49168 7.3104 9.48808 7.28646 9.48023 7.26377C9.47106 7.2502 9.45692 7.24077 9.44086 7.23752C9.35336 7.23752 9.34836 7.3519 9.35148 7.39627C9.34648 7.40065 9.34273 7.60377 9.46273 7.66565M12.229 6.7319C12.3902 6.81565 12.6946 6.77627 12.6821 6.4819C12.6821 6.46002 12.6771 6.3719 12.6752 6.34502C12.6409 6.26127 12.5502 6.27877 12.5315 6.3719C12.524 6.39815 12.5409 6.4469 12.5171 6.46002C12.5052 6.47752 12.4546 6.46877 12.4546 6.38502C12.4515 6.35976 12.4425 6.33558 12.4284 6.3144C12.417 6.30998 12.4048 6.30847 12.3927 6.31002C12.3715 6.31002 12.3715 6.3144 12.3584 6.33627C12.3511 6.35916 12.3469 6.38291 12.3459 6.4069C12.3459 6.43377 12.334 6.44252 12.3134 6.4469C12.2927 6.45127 12.2965 6.45127 12.2821 6.43815C12.2752 6.43395 12.2694 6.4281 12.2652 6.42112C12.2611 6.41414 12.2587 6.40625 12.2584 6.39815C12.2576 6.37283 12.254 6.34768 12.2477 6.32315C12.236 6.31451 12.2226 6.30853 12.2084 6.30565C12.1202 6.30565 12.1127 6.42002 12.119 6.46002C12.1127 6.46877 12.109 6.6719 12.2296 6.7294M13.6621 9.07752C13.5652 9.23803 13.5063 9.41857 13.49 9.60533C13.4736 9.79209 13.5002 9.98012 13.5677 10.155C13.6281 10.34 13.7515 10.498 13.9165 10.6013C13.9408 10.6277 13.9711 10.648 14.0048 10.6605C14.0385 10.6729 14.0747 10.6771 14.1104 10.6728C14.146 10.6684 14.1802 10.6557 14.2099 10.6355C14.2397 10.6154 14.2642 10.5884 14.2815 10.5569C14.4465 10.3625 14.4509 9.87252 14.5271 9.77502C14.5834 9.59377 14.719 9.62502 14.7852 9.7044C14.8454 9.79834 14.9264 9.87706 15.0221 9.9344C15.0535 9.9716 15.092 10.0022 15.1353 10.0243C15.1786 10.0465 15.2259 10.0598 15.2745 10.0635C15.323 10.0671 15.3718 10.0611 15.4179 10.0457C15.4641 10.0303 15.5067 10.0058 15.5434 9.97377C15.6807 9.88673 15.78 9.75099 15.8215 9.59377C15.882 8.85044 15.8889 8.10372 15.8421 7.3594C15.834 7.30627 15.6821 6.44065 15.6821 6.43127C15.6821 6.4219 15.6602 5.99002 15.6446 5.88815C15.6409 5.8444 15.6321 5.83065 15.6715 5.83565C15.7127 5.8794 15.7165 5.88377 15.7427 5.89252C15.784 5.9019 15.8215 5.8219 15.7971 5.7469C15.6721 5.4819 15.539 5.21252 15.4102 4.9519C15.3809 4.91252 15.3396 4.8769 15.289 4.95627C15.2584 4.98792 15.2343 5.02531 15.2183 5.06628C15.2022 5.10726 15.1943 5.15101 15.1952 5.19502C15.2071 5.38252 15.2365 5.5794 15.2471 5.7694C15.299 6.09127 15.3502 6.41815 15.4021 6.74502C15.4502 7.43877 15.4646 8.0744 15.5121 8.76815C15.5232 9.01888 15.4655 9.26788 15.3452 9.48815C15.3452 9.48815 15.2321 9.56752 15.154 9.48377C15.0457 9.352 14.9506 9.20985 14.8702 9.0594C14.754 8.94065 14.6765 8.97127 14.594 9.0594C14.39 9.37915 14.2277 9.72359 14.1109 10.0844C14.0696 10.155 13.9577 10.2169 13.834 10.08C13.6705 9.77388 13.6103 9.42317 13.6621 9.08002M12.3021 5.0269C12.3812 5.09462 12.4421 5.18103 12.4794 5.27828C12.5166 5.37553 12.5289 5.48055 12.5152 5.58377C12.4859 5.78252 12.4102 6.00315 12.354 5.97252C12.2977 5.9419 12.394 5.77377 12.3384 5.59252C12.304 5.47315 12.1077 5.26127 12.1284 5.19502C12.12 5.17102 12.1186 5.1451 12.1245 5.12035C12.1303 5.0956 12.1432 5.07305 12.1614 5.05536C12.1797 5.03767 12.2027 5.02559 12.2276 5.02055C12.2525 5.0155 12.2784 5.01771 12.3021 5.0269Z" fill="white"/>
<path d="M14.1295 9.27625C14.1428 8.98424 14.1325 8.69163 14.0988 8.40125C14.0901 8.17188 13.8663 6.27625 13.8188 6.1C13.7638 5.76938 14.0382 6.05625 14.0063 5.86188C13.9126 5.61875 13.677 5.26125 13.6038 5.04938C13.557 4.95625 13.5763 4.87688 13.4788 5.02688C13.3933 5.29489 13.3629 5.57744 13.3895 5.8575C13.6697 7.17031 13.8188 8.50771 13.8345 9.85C13.9463 9.85 14.0757 9.56313 14.132 9.27625M15.9257 7.29938C16.0613 7.37875 16.1376 7.78938 16.1232 7.90875C16.0976 8.125 16.0276 8.35938 15.977 8.32813C15.9263 8.29688 15.9876 8.00625 15.9613 7.9175C15.9295 7.78938 15.7513 7.55563 15.7695 7.485C15.7332 7.33875 15.8482 7.2775 15.9257 7.2975M6.77822 8.525C6.90322 8.57813 6.97822 8.88313 6.96572 8.97125C6.9401 9.13 6.87322 9.29813 6.82572 9.28375C6.77822 9.26938 6.83697 9.045 6.8101 8.97875C6.80072 8.81563 6.6226 8.72875 6.62885 8.66063C6.5951 8.5325 6.7001 8.51063 6.7801 8.52813M3.39572 4.92563C3.58322 4.98813 3.59322 5.29625 3.58322 5.38938C3.5576 5.5525 3.49072 5.72938 3.44197 5.7075C3.39322 5.68563 3.44197 5.46438 3.41572 5.395C3.38885 5.29313 3.22822 5.12125 3.24947 5.06813C3.21322 4.9575 3.3201 4.90438 3.3976 4.92688M7.0826 6.38313C7.0092 6.44085 6.95815 6.52229 6.9382 6.61351C6.91825 6.70472 6.93063 6.80004 6.97322 6.88313C6.99787 6.91991 7.03386 6.94764 7.07572 6.96208C7.11758 6.97652 7.16301 6.97689 7.2051 6.96313C7.34572 6.985 7.42885 6.66688 7.42885 6.66688C7.42885 6.66688 7.43322 6.57875 7.26822 6.74625C7.19697 6.76438 7.18822 6.73313 7.1701 6.68875C7.15345 6.60612 7.16083 6.52045 7.19135 6.44188C7.21697 6.36188 7.16322 6.32688 7.0826 6.38438M8.15572 4.80625C8.09318 4.85707 8.0416 4.92006 8.00411 4.99139C7.96662 5.06272 7.94399 5.14092 7.9376 5.22125C7.93197 5.3275 7.91385 5.3275 7.97697 5.39813C8.02385 5.47313 8.0701 5.46438 8.16135 5.40688C8.1848 5.39044 8.20474 5.36947 8.21998 5.34521C8.23522 5.32096 8.24546 5.2939 8.2501 5.26563C8.2726 5.14063 8.1351 5.32313 8.11635 5.18625C8.08697 5.05813 8.17447 5.00938 8.25885 4.88125C8.25885 4.7975 8.25885 4.74 8.15572 4.80625ZM9.0226 4.97875C8.9882 5.13712 8.9673 5.29811 8.9601 5.46C8.93447 5.57938 9.07322 5.63188 9.13385 5.4775C9.19631 5.30918 9.2295 5.1314 9.23197 4.95188C9.20447 4.77063 9.09447 4.78 9.0226 4.97875ZM14.4788 8.10125C14.4988 8.08313 15.2476 7.4825 15.2476 7.4825C15.3245 7.45188 15.3101 7.795 15.2732 7.7875C15.0461 8.03976 14.7775 8.25116 14.4788 8.4125C14.4426 8.43938 14.4051 8.17875 14.4788 8.10375M15.1632 8.09688C15.297 8.17188 15.3507 8.60438 15.3345 8.72188C15.3395 8.95188 15.2095 9.13688 15.1557 9.11063C15.102 9.08438 15.1613 8.82375 15.1357 8.73063C15.0778 8.58994 15.0359 8.44319 15.0107 8.29313C14.9732 8.14688 15.082 8.0675 15.1626 8.09438M10.7013 9.96938C10.7629 9.89113 10.8346 9.82136 10.9145 9.76188C10.9385 9.74979 10.966 9.74623 10.9923 9.7518C11.0187 9.75736 11.0424 9.77172 11.0595 9.7925C11.0726 9.8725 11.0132 9.95188 11.032 10.0619C11.047 10.1063 11.0595 10.1594 11.132 10.1375C11.1793 10.0957 11.2346 10.0639 11.2945 10.0442C11.3545 10.0244 11.4178 10.017 11.4807 10.0225C11.5745 10.0225 11.5751 10.1988 11.5195 10.1988C11.3545 10.2441 11.1949 10.307 11.0432 10.3863C11.022 10.4015 10.9955 10.4078 10.9697 10.4037C10.9438 10.3996 10.9206 10.3855 10.9051 10.3644C10.8906 10.3416 10.8818 10.3157 10.8795 10.2888C10.8772 10.2619 10.8815 10.2349 10.892 10.21C10.8982 10.1213 10.8663 10.0731 10.7995 10.0775C10.7495 10.1125 10.7063 10.13 10.6813 10.0688C10.6726 10.02 10.6688 9.99375 10.7013 9.96688M15.9532 10.2038C15.9745 10.2256 15.9864 10.2548 15.9864 10.2853C15.9864 10.3158 15.9745 10.3451 15.9532 10.3669C15.8995 10.4244 15.8638 10.4506 15.8101 10.5081C15.7863 10.5569 15.7707 10.6275 15.8457 10.6494C15.9851 10.6938 16.3101 10.4619 16.3101 10.4506C16.3275 10.4348 16.3397 10.4141 16.3452 10.3913C16.3506 10.3684 16.3491 10.3445 16.3407 10.3225C16.3101 10.2831 16.242 10.305 16.1963 10.305C16.1726 10.305 16.1007 10.2875 16.1338 10.2213C16.1579 10.1818 16.1776 10.1399 16.1926 10.0963C16.2132 10.0388 16.197 10.0038 16.1151 9.97125C16.0489 9.9603 15.9813 9.9603 15.9151 9.97125C15.867 9.98438 15.8526 10.0113 15.8413 10.0731C15.8445 10.17 15.8982 10.1656 15.9545 10.2056" fill="white"/>
</svg>
