<svg width="28" height="19" viewBox="0 0 28 19" fill="none" xmlns="http://www.w3.org/2000/svg">
<path d="M27.3775 17.143C27.3775 17.5673 27.209 17.9743 26.9089 18.2743C26.6088 18.5744 26.2019 18.743 25.7775 18.743H1.86953C1.44518 18.743 1.03822 18.5744 0.73816 18.2743C0.438102 17.9743 0.269531 17.5673 0.269531 17.143V1.65298C0.269531 1.22863 0.438102 0.821665 0.73816 0.521606C1.03822 0.221548 1.44518 0.0529785 1.86953 0.0529785H25.7695C26.1939 0.0529785 26.6008 0.221548 26.9009 0.521606C27.201 0.821665 27.3695 1.22863 27.3695 1.65298V17.143H27.3775Z" fill="white"/>
<path d="M6.28277 9.50596L5.64577 6.45295C5.59972 6.27594 5.4913 6.1215 5.34046 6.01806C5.18961 5.91462 5.00648 5.86912 4.82477 5.88995H1.91076L1.88477 6.02995C2.84544 6.20751 3.74822 6.61697 4.51467 7.22274C5.28113 7.82852 5.88807 8.6123 6.28277 9.50596Z" fill="#F79F1A"/>
<path d="M13.0483 5.95096H11.1623L9.98633 12.859H11.8683L13.0483 5.95096Z" fill="#059BBF"/>
<path d="M7.43604 12.855L10.401 5.95496H8.40105L6.55605 10.669L6.35604 9.95695C5.75746 8.78694 4.85707 7.79816 3.74805 7.09296L5.43404 12.857L7.43604 12.855Z" fill="#059BBF"/>
<path d="M18.4269 10.6029C18.4339 9.81794 17.9269 9.21995 16.8449 8.72595C16.1849 8.40695 15.7829 8.19394 15.7879 7.86994C15.7879 7.58394 16.1289 7.27595 16.8659 7.27595C17.3492 7.2653 17.8294 7.35555 18.2759 7.54095L18.4459 7.61895L18.7009 6.11895C18.1593 5.92383 17.5875 5.82599 17.0119 5.82995C15.1509 5.82995 13.8399 6.76695 13.8279 8.10995C13.8159 9.10295 14.7649 9.65694 15.4789 9.98794C16.2119 10.3249 16.4579 10.5409 16.4529 10.8439C16.4529 11.3069 15.8689 11.5179 15.3269 11.5179C14.7155 11.5362 14.1082 11.4123 13.5529 11.1559L13.3119 11.0449L13.0469 12.5939C13.719 12.8419 14.4305 12.9662 15.1469 12.9609C17.1259 12.9639 18.4129 12.0389 18.4269 10.6029Z" fill="#059BBF"/>
<path d="M20.6661 11.826H23.0791C23.1361 12.067 23.3081 12.862 23.3081 12.862H25.0561L23.5301 5.95596H22.0751C21.8707 5.92962 21.6633 5.97138 21.4851 6.07478C21.3068 6.17819 21.1677 6.33747 21.0891 6.52797L18.2891 12.862H20.2691C20.2691 12.862 20.5921 12.013 20.6661 11.826ZM21.9571 8.47897C21.9481 8.49797 22.1131 8.07897 22.2081 7.81897L22.3361 8.41898C22.3361 8.41898 22.6961 10.07 22.7711 10.419H21.2061C21.3631 10.014 21.9571 8.47897 21.9571 8.47897Z" fill="#059BBF"/>
<path d="M25.7755 0.0509656H1.86953C1.44518 0.0509656 1.03822 0.219543 0.73816 0.519601C0.438102 0.819659 0.269531 1.22663 0.269531 1.65097L0.269531 3.31397H27.3775V1.65297C27.3778 1.44252 27.3365 1.23408 27.2561 1.0396C27.1757 0.845115 27.0577 0.668405 26.9089 0.519594C26.7601 0.370782 26.5834 0.252795 26.3889 0.17238C26.1944 0.091965 25.986 0.0507024 25.7755 0.0509656Z" fill="#059BBF"/>
<path d="M25.7755 18.746H1.86953C1.44518 18.746 1.03822 18.5774 0.73816 18.2773C0.438102 17.9773 0.269531 17.5703 0.269531 17.146V15.483H27.3775V17.146C27.3775 17.3562 27.3361 17.5645 27.2555 17.7587C27.175 17.953 27.057 18.1294 26.9082 18.278C26.7594 18.4266 26.5828 18.5445 26.3884 18.6248C26.1941 18.705 25.9858 18.7462 25.7755 18.746Z" fill="#F79F1A"/>
<path opacity="0.15" d="M1.40853 17.143V1.65298C1.40853 1.22863 1.5771 0.821665 1.87716 0.521606C2.17722 0.221548 2.58418 0.0529785 3.00853 0.0529785H1.86953C1.44518 0.0529785 1.03822 0.221548 0.73816 0.521606C0.438102 0.821665 0.269531 1.22863 0.269531 1.65298L0.269531 17.143C0.269531 17.5673 0.438102 17.9743 0.73816 18.2743C1.03822 18.5744 1.44518 18.743 1.86953 18.743H3.01153C2.80116 18.7434 2.59278 18.7023 2.39832 18.622C2.20385 18.5418 2.02711 18.424 1.87822 18.2754C1.72933 18.1268 1.61121 17.9503 1.53061 17.756C1.45002 17.5616 1.40853 17.3533 1.40853 17.143Z" fill="#202121"/>
</svg>
