<svg width="25" height="24" viewBox="0 0 25 24" fill="none" xmlns="http://www.w3.org/2000/svg">
<path d="M21.3682 5.97998C18.0382 5.64998 14.6882 5.47998 11.3482 5.47998C9.36438 5.48017 7.38187 5.5803 5.40816 5.77998L3.36816 5.97998" stroke="#292D32" stroke-width="1.5" stroke-linecap="round" stroke-linejoin="round"/>
<path d="M8.86816 4.97L9.08816 3.66C9.24816 2.71 9.36816 2 11.0582 2H13.6782C15.3682 2 15.4982 2.75 15.6482 3.67L15.8682 4.97" stroke="#292D32" stroke-width="1.5" stroke-linecap="round" stroke-linejoin="round"/>
<path d="M19.2186 9.14001L18.5686 19.21C18.4586 20.78 18.3686 22 15.5786 22H9.15855C6.36855 22 6.27855 20.78 6.16855 19.21L5.51855 9.14001" stroke="#292D32" stroke-width="1.5" stroke-linecap="round" stroke-linejoin="round"/>
<path d="M10.6982 16.5H14.0282" stroke="#292D32" stroke-width="1.5" stroke-linecap="round" stroke-linejoin="round"/>
<path d="M9.86816 12.5H14.8682" stroke="#292D32" stroke-width="1.5" stroke-linecap="round" stroke-linejoin="round"/>
</svg>
