<svg width="30" height="30" viewBox="0 0 30 30" fill="none" xmlns="http://www.w3.org/2000/svg">
<path d="M26.2733 19.204C26.4325 19.204 26.5851 19.2672 26.6976 19.3797C26.8101 19.4923 26.8733 19.6449 26.8733 19.804V21.004C26.8733 21.9588 26.494 22.8744 25.8189 23.5496C25.1438 24.2247 24.2281 24.604 23.2733 24.604C23.2733 23.6484 22.8937 22.732 22.218 22.0563C21.5423 21.3806 20.6259 21.001 19.6703 21.001C18.7148 21.001 17.7983 21.3806 17.1226 22.0563C16.4469 22.732 16.0673 23.6484 16.0673 24.604H13.6673C13.6673 23.6484 13.2877 22.732 12.612 22.0563C11.9363 21.3806 11.0199 21.001 10.0643 21.001C9.10875 21.001 8.19232 21.3806 7.51662 22.0563C6.84093 22.732 6.46133 23.6484 6.46133 24.604C5.98857 24.604 5.52044 24.5109 5.08367 24.33C4.6469 24.149 4.25003 23.8839 3.91574 23.5496C3.24061 22.8744 2.86133 21.9588 2.86133 21.004V18.604C2.86133 18.2857 2.98776 17.9805 3.2128 17.7555C3.43784 17.5304 3.74307 17.404 4.06133 17.404H15.4653C16.261 17.404 17.024 17.0879 17.5866 16.5253C18.1493 15.9627 18.4653 15.1996 18.4653 14.404V7.79399C18.4653 7.47573 18.5918 7.17051 18.8168 6.94547C19.0418 6.72042 19.3471 6.59399 19.6653 6.59399H20.6743C21.0984 6.59541 21.5147 6.70821 21.8815 6.92109C22.2483 7.13397 22.5527 7.43946 22.7643 7.80699L23.5333 9.15199C23.5578 9.19753 23.5701 9.24862 23.569 9.3003C23.5679 9.35198 23.5535 9.40251 23.5271 9.44698C23.5008 9.49144 23.4634 9.52835 23.4186 9.55411C23.3737 9.57986 23.323 9.5936 23.2713 9.59399C22.4757 9.59399 21.7126 9.91006 21.15 10.4727C20.5874 11.0353 20.2713 11.7983 20.2713 12.594V16.194C20.2713 16.9896 20.5874 17.7527 21.15 18.3153C21.7126 18.8779 22.4757 19.194 23.2713 19.194L26.2733 19.204Z" fill="#434343"/>
<path d="M12.4592 24.606C12.4592 25.0807 12.3184 25.5447 12.0547 25.9394C11.791 26.334 11.4162 26.6417 10.9776 26.8233C10.5391 27.005 10.0565 27.0525 9.59096 26.9599C9.12541 26.8673 8.69777 26.6387 8.36212 26.3031C8.02648 25.9674 7.7979 25.5398 7.7053 25.0742C7.61269 24.6087 7.66022 24.1261 7.84187 23.6876C8.02352 23.249 8.33113 22.8742 8.72581 22.6105C9.12049 22.3468 9.58451 22.206 10.0592 22.206C10.6957 22.206 11.3061 22.4589 11.7562 22.9089C12.2063 23.359 12.4592 23.9695 12.4592 24.606Z" fill="#434343"/>
<path d="M22.0666 24.606C22.0666 25.0807 21.9258 25.5447 21.6621 25.9394C21.3984 26.334 21.0236 26.6417 20.585 26.8233C20.1465 27.005 19.6639 27.0525 19.1984 26.9599C18.7328 26.8673 18.3052 26.6387 17.9695 26.3031C17.6339 25.9674 17.4053 25.5398 17.3127 25.0742C17.2201 24.6087 17.2676 24.1261 17.4493 23.6876C17.6309 23.249 17.9386 22.8742 18.3332 22.6105C18.7279 22.3468 19.1919 22.206 19.6666 22.206C20.3031 22.206 20.9136 22.4589 21.3637 22.9089C21.8137 23.359 22.0666 23.9695 22.0666 24.606Z" fill="#434343"/>
<path d="M26.8703 15.636V17.397H23.2703C22.9521 17.397 22.6468 17.2706 22.4218 17.0455C22.1967 16.8205 22.0703 16.5153 22.0703 16.197V12.597C22.0703 12.2787 22.1967 11.9735 22.4218 11.7485C22.6468 11.5234 22.9521 11.397 23.2703 11.397H24.8203L26.5613 14.447C26.7654 14.81 26.8718 15.2196 26.8703 15.636Z" fill="#434343"/>
<path d="M16.1605 2.99101H7.28549C6.25846 2.9915 5.26347 3.34867 4.47059 4.00147C3.67771 4.65427 3.13616 5.56217 2.93849 6.57001H8.18649C8.29468 6.5704 8.40173 6.59219 8.50146 6.63414C8.60119 6.67609 8.69164 6.73736 8.76758 6.81442C8.84353 6.89148 8.90347 6.98281 8.94396 7.08314C8.98445 7.18347 9.00468 7.29082 9.00349 7.39901C9.00443 7.50656 8.98393 7.61322 8.9432 7.71276C8.90248 7.81231 8.84233 7.90274 8.76628 7.9788C8.69023 8.05485 8.59979 8.11499 8.50025 8.15572C8.4007 8.19645 8.29404 8.21694 8.18649 8.21601H2.85449V9.87201H5.97649C6.19628 9.87227 6.40698 9.9597 6.56239 10.1151C6.7178 10.2705 6.80523 10.4812 6.80549 10.701C6.8051 10.8092 6.78331 10.9162 6.74136 11.016C6.69941 11.1157 6.63814 11.2062 6.56108 11.2821C6.48402 11.358 6.3927 11.418 6.29236 11.4585C6.19203 11.499 6.08468 11.5192 5.97649 11.518H2.85449V13.175H3.77949C3.99928 13.1753 4.20998 13.2627 4.36539 13.4181C4.5208 13.5735 4.60823 13.7842 4.60849 14.004C4.6081 14.1122 4.58631 14.2192 4.54436 14.319C4.50241 14.4187 4.44114 14.5092 4.36408 14.5851C4.28702 14.661 4.1957 14.721 4.09536 14.7615C3.99503 14.802 3.88768 14.8222 3.77949 14.821H2.85449V15.097C2.85449 15.4153 2.98092 15.7205 3.20596 15.9455C3.43101 16.1706 3.73623 16.297 4.05449 16.297H15.0435C15.6326 16.2965 16.1975 16.0622 16.6141 15.6456C17.0307 15.229 17.265 14.6642 17.2655 14.075V4.09101C17.2655 3.94613 17.2369 3.80268 17.1813 3.6689C17.1257 3.53511 17.0442 3.41363 16.9415 3.31142C16.8389 3.20921 16.717 3.12829 16.583 3.0733C16.4489 3.01832 16.3054 2.99035 16.1605 2.99101Z" fill="#434343"/>
<path d="M2.93893 6.57001H1.58193C1.36215 6.57027 1.15144 6.6577 0.99603 6.81311C0.84062 6.96852 0.753194 7.17922 0.75293 7.39901C0.753319 7.5072 0.775115 7.61425 0.817063 7.71398C0.85901 7.81371 0.920279 7.90415 0.997339 7.9801C1.0744 8.05604 1.16573 8.11598 1.26606 8.15647C1.36639 8.19696 1.47374 8.2172 1.58193 8.21601H2.85293V7.42301C2.85712 7.13674 2.88589 6.85135 2.93893 6.57001Z" fill="#434343"/>
<path d="M2.67393 9.87201H1.58193C1.36215 9.87227 1.15144 9.9597 0.99603 10.1151C0.84062 10.2705 0.753194 10.4812 0.75293 10.701C0.753319 10.8092 0.775115 10.9162 0.817063 11.016C0.85901 11.1157 0.920279 11.2062 0.997339 11.2821C1.0744 11.358 1.16573 11.418 1.26606 11.4585C1.36639 11.499 1.47374 11.5192 1.58193 11.518H2.85293V9.87201H2.67393Z" fill="#434343"/>
<path d="M2.67393 13.175H1.58193C1.36215 13.1753 1.15144 13.2627 0.99603 13.4181C0.84062 13.5735 0.753194 13.7842 0.75293 14.004C0.753319 14.1122 0.775115 14.2192 0.817063 14.319C0.85901 14.4187 0.920279 14.5091 0.997339 14.5851C1.0744 14.661 1.16573 14.721 1.26606 14.7615C1.36639 14.8019 1.47374 14.8222 1.58193 14.821H2.85293V13.175H2.67393Z" fill="#434343"/>
</svg>
