<svg width="20" height="19" viewBox="0 0 20 19" fill="none" xmlns="http://www.w3.org/2000/svg">
<path d="M13.8245 5.49097C13.8245 6.26667 13.5944 7.02495 13.1635 7.66992C12.7325 8.31489 12.12 8.81758 11.4034 9.11443C10.6867 9.41127 9.89812 9.48894 9.13733 9.33761C8.37653 9.18628 7.6777 8.81274 7.1292 8.26424C6.5807 7.71574 6.20716 7.01691 6.05583 6.25611C5.9045 5.49532 5.98217 4.70674 6.27901 3.99009C6.57586 3.27343 7.07855 2.6609 7.72352 2.22995C8.36849 1.79899 9.12677 1.56897 9.90247 1.56897C10.9426 1.56897 11.9402 1.98218 12.6757 2.7177C13.4113 3.45321 13.8245 4.45079 13.8245 5.49097Z" stroke="#292D32" stroke-width="1.2" stroke-linecap="round" stroke-linejoin="round"/>
<path d="M15.5587 12.346L12.7817 15.123C12.6626 15.253 12.5813 15.4131 12.5467 15.586L12.3977 16.645C12.3785 16.7277 12.3807 16.8139 12.4041 16.8955C12.4274 16.9771 12.4712 17.0514 12.5312 17.1115C12.5912 17.1715 12.6656 17.2152 12.7472 17.2386C12.8288 17.262 12.915 17.2642 12.9977 17.245L14.0567 17.096C14.2301 17.063 14.3907 16.9816 14.5197 16.861L17.2907 14.08C17.429 13.9809 17.5417 13.8502 17.6195 13.6988C17.6972 13.5474 17.7378 13.3797 17.7378 13.2095C17.7378 13.0393 17.6972 12.8716 17.6195 12.7202C17.5417 12.5688 17.429 12.4381 17.2907 12.339C17.1913 12.2021 17.0608 12.0908 16.9099 12.0142C16.759 11.9377 16.5921 11.8981 16.4229 11.8988C16.2537 11.8995 16.0871 11.9404 15.9368 12.0182C15.7866 12.0959 15.657 12.2083 15.5587 12.346Z" stroke="#292D32" stroke-width="1.2" stroke-linecap="round" stroke-linejoin="round"/>
<path d="M15.1582 12.746C15.2735 13.1617 15.4944 13.5406 15.7995 13.8457C16.1046 14.1507 16.4834 14.3717 16.8992 14.487" stroke="#292D32" stroke-width="1.2" stroke-linecap="round" stroke-linejoin="round"/>
<path d="M3.16602 17.257C3.16602 14.221 6.18602 11.766 9.90402 11.766C10.693 11.764 11.478 11.8775 12.234 12.103" stroke="#292D32" stroke-width="1.2" stroke-linecap="round" stroke-linejoin="round"/>
</svg>
