<svg width="99" height="45" viewBox="0 0 99 45" fill="none" xmlns="http://www.w3.org/2000/svg">
<path d="M44.9194 3.47378C44.9194 3.92457 44.8925 4.45492 44.8388 5.09134C44.7851 5.72776 44.7045 6.44372 44.597 7.21273C44.4896 7.98173 44.3821 8.83029 44.2478 9.70536C44.1134 10.5804 43.9522 11.5085 43.791 12.4632C43.4418 14.3724 43.0657 16.1756 42.7164 17.8462C42.3403 19.5168 41.9642 20.9753 41.5612 22.1951C41.1582 23.4149 40.809 24.5551 40.4866 25.6158C40.1642 26.703 39.8418 27.6842 39.4925 28.5857C39.4119 28.8244 39.2507 29.2487 39.009 29.8851C38.7672 30.5215 38.4716 31.264 38.1493 32.1126C37.8269 32.9611 37.4776 33.8627 37.1015 34.8173C36.7254 35.772 36.3761 36.6735 36.0537 37.5221C35.7313 38.3707 35.4627 39.0866 35.2209 39.723C34.9791 40.3329 34.8179 40.7572 34.7373 40.9694C34.6836 41.155 34.5493 41.3406 34.3343 41.5262C34.1463 41.7118 33.9045 41.8975 33.6358 42.0566C33.3672 42.2157 33.0985 42.3483 32.8299 42.4278C32.5343 42.5339 32.2925 42.5604 32.0776 42.5604C31.6209 42.5604 31.1642 42.4543 30.7612 42.2157C30.3313 41.977 29.9284 41.6588 29.5522 41.2345C29.1761 40.8103 28.8269 40.3064 28.5045 39.723C28.1821 39.1397 27.8866 38.5032 27.6448 37.8138L22.2985 22.7254C21.9761 23.574 21.6 24.5286 21.1702 25.6158C20.7403 26.703 20.2836 27.7902 19.8 28.9305C19.3164 30.0707 18.8328 31.1844 18.3493 32.2717C17.8657 33.3854 17.409 34.3665 17.006 35.2681C15.8507 37.8138 14.7493 40.0147 13.7284 41.8975V41.8709C12.6269 43.9658 11.7403 45 11.0418 45C10.1284 45 9.37612 44.6818 8.78508 44.0189C8.19403 43.3559 7.68358 42.4809 7.2806 41.3671C6.87761 40.2534 6.50149 39.0071 6.1791 37.5751C5.85672 36.1432 5.53433 34.6847 5.15821 33.1732C3.97612 28.2941 2.7403 22.3276 1.47761 15.2475C1.45075 15.0884 1.37015 14.7437 1.23582 14.1603C1.10149 13.6034 0.940299 12.8874 0.725373 12.0124V12.0389C0.483582 11.1108 0.322388 10.3153 0.214925 9.67885C0.0537313 9.01591 0 8.48556 0 8.0878C0 7.79611 0.0537313 7.4779 0.18806 7.15969C0.322388 6.84149 0.483582 6.54979 0.725373 6.28462C0.940299 6.01945 1.20896 5.80731 1.50448 5.62169C1.8 5.43606 2.12239 5.35651 2.47164 5.35651C2.8209 5.35651 3.17015 5.51562 3.5194 5.80731C3.86866 6.099 4.21791 6.54979 4.56716 7.18621C5.15821 8.27342 5.64179 9.49322 5.99104 10.8191C6.12537 11.2699 6.2597 11.8533 6.39403 12.5958C6.52836 13.3382 6.71642 14.2664 6.93134 15.3536C7.14627 16.4408 7.38806 17.7136 7.65672 19.1456C7.95224 20.604 8.27463 22.2216 8.65075 24.0778C9 25.8014 9.29552 27.3394 9.53731 28.6388C9.77911 29.9646 9.99403 31.1049 10.1821 32.086C10.3702 33.0672 10.5313 33.8892 10.6657 34.5787C10.8 35.2416 10.9343 35.825 11.0687 36.2758C11.8478 34.7908 12.5463 33.3854 13.191 32.033C13.8358 30.7071 14.4 29.4873 14.9104 28.3471C15.4209 27.2334 15.8507 26.2257 16.2537 25.3241C16.6299 24.4225 16.9522 23.68 17.194 23.0966C17.597 22.142 18 21.0813 18.4299 19.888C18.8597 18.6948 19.4239 17.2628 20.0955 15.6187C20.1761 15.4066 20.3104 15.1945 20.4985 14.9823C20.6597 14.7702 20.8746 14.5846 21.0896 14.4255C21.3313 14.2664 21.5731 14.1338 21.8418 14.0277C22.1104 13.9216 22.3791 13.8686 22.6478 13.8686C23.1045 13.8686 23.5612 14.1603 24.0179 14.7171C24.5015 15.274 24.9582 16.1226 25.3881 17.2363C25.4418 17.3689 25.5493 17.6606 25.7104 18.1114C25.8716 18.5887 26.0597 19.119 26.2746 19.782C26.4896 20.4184 26.7313 21.1344 26.9731 21.8768C27.2149 22.6193 27.4836 23.3618 27.6985 24.0513C27.9403 24.7407 28.1552 25.3771 28.3433 25.9605C28.5313 26.5174 28.6925 26.9682 28.8 27.2334C29.6597 29.5404 30.3313 31.3435 30.8149 32.7225C31.2985 34.0748 31.6746 34.9764 31.9433 35.4007C32.5343 34.1809 33.0985 32.8816 33.6358 31.4761C34.1731 30.0707 34.6836 28.6123 35.1672 27.1008C35.6507 25.6158 36.0806 24.1043 36.5104 22.5663C36.9134 21.0548 37.2896 19.5698 37.6388 18.1644C37.9881 16.706 38.2836 15.274 38.5254 13.8156C38.7672 12.3836 38.9552 10.9782 39.1164 9.62581C39.2776 8.27342 39.4119 6.97407 39.4925 5.75427C39.5731 4.53447 39.6537 3.39423 39.7075 2.33353C39.7343 2.14791 39.7881 1.93577 39.9493 1.6706C40.0836 1.40542 40.2716 1.16676 40.5134 0.901591C40.7552 0.662935 40.997 0.450796 41.2925 0.265174C41.5881 0.0795522 41.8567 0 42.1522 0C43.2537 0 44.006 0.450796 44.3821 1.3789C44.7582 2.06836 44.9194 2.75781 44.9194 3.47378ZM65.1761 34.4196C64.6657 35.0029 64.1821 35.5333 63.7254 36.0371C63.2687 36.541 62.8119 37.0183 62.3552 37.4956C61.8985 37.9464 61.4418 38.3972 60.9582 38.848C60.5015 39.2988 59.991 39.723 59.4806 40.1738C58.4328 41.0489 57.3851 41.7384 56.3373 42.2157C55.3164 42.693 54.3224 42.9316 53.409 42.9316C52.3343 42.9316 51.394 42.7195 50.6149 42.3217C49.8358 41.8975 49.1373 41.3406 48.5731 40.6512C48.009 39.9352 47.5522 39.1397 47.203 38.2116C46.8537 37.2834 46.5582 36.3288 46.3702 35.2946C46.1552 34.2605 46.0209 33.2263 45.9403 32.1921C45.8597 31.1314 45.8328 30.1503 45.8328 29.1956C45.8328 28.8244 45.8597 28.2941 45.9134 27.6046C45.9672 26.9151 46.0209 26.1727 46.1015 25.4302C46.1821 24.6612 46.2896 23.9187 46.3702 23.2027C46.4776 22.4867 46.5851 21.9034 46.6925 21.4791C46.8269 21.0283 47.0149 20.5775 47.2836 20.1797C47.5522 19.7555 47.8746 19.3842 48.2776 19.0395C49.0836 18.297 49.9701 17.9258 50.9642 17.9258C51.9582 17.9258 52.4687 18.6152 52.4687 19.9676C52.4687 20.4449 52.4149 21.0018 52.3343 21.6382C52.2537 22.2746 52.1463 22.9375 52.0925 23.6005C52.0119 24.396 51.9045 25.0854 51.8507 25.7219C51.7702 26.3318 51.7164 26.9151 51.6627 27.3925C51.609 27.8963 51.5552 28.3471 51.5284 28.7448C51.5015 29.1426 51.4746 29.5404 51.4746 29.9116C51.4746 30.5745 51.5284 31.317 51.609 32.1391C51.6896 32.9611 51.8239 33.7301 51.9851 34.4461C52.1463 35.1621 52.3612 35.7454 52.603 36.2228C52.8448 36.7001 53.1403 36.9387 53.4627 36.9387C53.9463 36.9387 54.4836 36.8857 55.0746 36.7531C55.6657 36.6205 56.3105 36.3288 56.9821 35.9045C57.6269 35.4803 58.2985 35.0029 58.997 34.4461C59.6955 33.8892 60.4209 33.2263 61.1463 32.5103C61.8448 31.8209 62.5164 31.1314 63.1881 30.4685C63.8597 29.779 64.5313 29.0365 65.203 28.241C65.4985 27.8698 65.794 27.5516 66.0358 27.2334C66.2776 26.9417 66.5194 26.65 66.7343 26.3848C66.9493 26.1196 67.1642 25.8545 67.3791 25.5893C67.594 25.3241 67.809 25.0589 68.0239 24.7938C68.0776 24.7142 68.1582 24.6081 68.2657 24.5021C68.3463 24.396 68.4537 24.2634 68.5612 24.1573C68.6687 24.0513 68.7761 23.9452 68.9105 23.8656C69.0448 23.7861 69.1522 23.7596 69.2866 23.7596C69.4478 23.7596 69.6358 23.8126 69.8239 23.8922C70.0119 23.9717 70.1731 24.1573 70.2806 24.4225C70.3881 24.6612 70.4418 24.8998 70.4687 25.1385C70.4955 25.3771 70.4955 25.5628 70.4955 25.7219C70.4955 25.9075 70.4149 26.1727 70.2537 26.5704C70.0925 26.9682 69.8508 27.419 69.5821 27.9493C69.3134 28.4797 68.991 29.0365 68.6149 29.6199C68.2388 30.2033 67.8627 30.8132 67.4866 31.3966C67.1105 31.98 66.7075 32.5634 66.3313 33.0937C65.8746 33.571 65.5254 34.0483 65.1761 34.4196ZM56.203 3.95109C56.203 4.53447 56.1224 5.06482 55.9612 5.59517C55.8 6.099 55.5851 6.60283 55.2896 7.05362C54.6985 7.98173 53.8119 8.45905 52.603 8.45905C52.2 8.45905 51.7702 8.43253 51.3134 8.35298C50.8567 8.27342 50.4537 8.14084 50.1045 7.98173C49.7552 7.82263 49.4597 7.61049 49.2179 7.37183C48.9761 7.13318 48.8687 6.84149 48.8687 6.52328C48.8687 5.99293 49.003 5.40955 49.2448 4.79965C49.4866 4.18975 49.809 3.63288 50.2119 3.12905C50.5881 2.62522 51.0179 2.17443 51.5015 1.8297C51.9582 1.48497 52.4149 1.32587 52.8448 1.32587C53.3821 1.32587 53.8657 1.35239 54.2687 1.43194C54.6716 1.51149 55.0478 1.64408 55.3164 1.8297C55.6119 2.01532 55.8269 2.30701 55.9612 2.65174C56.1493 2.96995 56.203 3.42074 56.203 3.95109ZM98.5433 32.9876C98.6776 32.9876 98.7851 33.0672 98.8657 33.2528C98.9463 33.4384 99 33.7566 99 34.1809C99 34.8704 98.8119 35.6129 98.409 36.4084C98.006 37.2039 97.4418 37.9464 96.6896 38.6623C95.9373 39.3518 94.997 39.9352 93.8687 40.4125C92.7403 40.8898 91.4508 41.1019 90 41.1019C88.6299 41.1019 87.394 40.8633 86.3194 40.3595C85.2179 39.8556 84.3045 39.0866 83.5254 38.0259C82.7463 36.9652 82.1552 35.6394 81.7254 33.9953C81.2955 32.3512 81.0806 30.3889 81.0537 28.1084C80.3552 28.7714 79.6567 29.5669 78.9313 30.5215C78.206 31.4496 77.5343 32.4042 76.8896 33.3854C76.2448 34.34 75.6537 35.2416 75.1433 36.0902C74.6328 36.9387 74.2299 37.5751 73.9612 38.0259C73.5582 38.7154 73.2358 39.2722 72.994 39.7496C72.7522 40.2269 72.4836 40.5981 72.2687 40.8898C72.0269 41.1815 71.7582 41.3936 71.4627 41.5262C71.1672 41.6588 70.7911 41.7118 70.2806 41.7118C69.8239 41.7118 69.4209 41.6323 69.0716 41.4732C68.6955 41.3141 68.3731 41.1019 68.1045 40.8633C67.8358 40.6246 67.6209 40.3329 67.4866 40.0413C67.3522 39.723 67.2716 39.4314 67.2716 39.1131C67.2716 38.8215 67.2985 38.4767 67.3254 38.0524C67.3522 37.6547 67.406 37.2304 67.4597 36.8061C67.5134 36.3819 67.5672 35.9576 67.6209 35.5598C67.6746 35.1355 67.7284 34.7643 67.7821 34.4461C67.8358 34.0218 67.9164 33.5445 67.9702 33.0407C68.0508 32.5633 68.1045 32.0065 68.2119 31.4231C68.2925 30.8397 68.3731 30.1768 68.4537 29.4343C68.5343 28.7183 68.6149 27.8963 68.6955 26.9947C68.7761 25.934 68.8836 24.9263 68.9642 23.9452C69.0448 22.9641 69.1522 21.9299 69.2866 20.8957C69.3672 20.2858 69.4746 19.7289 69.5821 19.1986C69.7164 18.6948 69.8776 18.244 70.1194 17.8727C70.3612 17.5015 70.6567 17.2098 71.006 16.9976C71.3821 16.7855 71.8388 16.6794 72.4299 16.6794C72.9403 16.6794 73.3702 16.759 73.6657 16.8916C73.9612 17.0242 74.203 17.2098 74.3642 17.4484C74.5254 17.6871 74.606 17.9523 74.6597 18.2705C74.6866 18.5887 74.7134 18.8804 74.7134 19.1986C74.7134 19.3842 74.7134 19.5433 74.7134 19.6759C74.7134 19.8085 74.6866 19.9411 74.6866 20.0737C74.6597 20.3654 74.6328 20.6836 74.5791 21.1078C74.5254 21.5056 74.4179 22.089 74.2836 22.805C74.1493 23.5209 73.9612 24.5021 73.7463 25.7219C73.6119 26.4113 73.4508 27.1538 73.3164 27.8698C73.1552 28.6123 73.0209 29.3017 72.8866 29.9646C72.7522 30.6276 72.6448 31.2375 72.5642 31.7678C72.4836 32.2982 72.403 32.7225 72.3761 33.0141C72.7522 32.5368 73.1821 31.9269 73.6657 31.1844C74.1493 30.4685 74.6597 29.726 75.1433 28.957C75.6269 28.2145 76.1105 27.4985 76.5672 26.8091C77.0239 26.1196 77.4269 25.5628 77.7493 25.165C78.2597 24.5021 78.7702 23.8656 79.2806 23.2823C79.7911 22.6989 80.3015 22.1685 80.8388 21.7177C81.3761 21.2669 81.9403 20.9222 82.5582 20.657C83.1493 20.3919 83.8209 20.2858 84.5463 20.2858C84.9493 20.2858 85.2985 20.3388 85.5403 20.4449C85.7821 20.551 85.9702 20.6836 86.1045 20.8692C86.2388 21.0548 86.3194 21.2669 86.3463 21.5056C86.3731 21.7443 86.4 21.9829 86.4 22.2481V22.6724C86.4 22.7784 86.3731 23.0171 86.3463 23.4149C86.3194 23.8126 86.2657 24.2369 86.2119 24.6877C86.1582 25.1385 86.1045 25.5628 86.0776 25.987C86.0508 26.3848 86.0239 26.65 86.0239 26.7826C86.0239 28.1349 86.1045 29.3813 86.2925 30.5745C86.4806 31.7413 86.7761 32.7755 87.1522 33.624C87.5552 34.4991 88.0388 35.1621 88.6567 35.6659C89.2746 36.1697 90 36.4084 90.8597 36.4084C91.4508 36.4084 91.9881 36.3819 92.4179 36.3023C92.8746 36.2227 93.3045 36.0902 93.7075 35.9045C94.1373 35.7189 94.5672 35.4803 94.997 35.1621C95.4537 34.8438 95.9642 34.4726 96.5552 34.0483C96.7701 33.8627 96.9851 33.6771 97.2269 33.518C97.4149 33.3854 97.6567 33.2528 97.8716 33.1732C98.0597 33.0407 98.3015 32.9876 98.5433 32.9876Z" fill="url(#paint0_linear_438_1030)"/>
<defs>
<linearGradient id="paint0_linear_438_1030" x1="0" y1="22.4957" x2="99.0085" y2="22.4957" gradientUnits="userSpaceOnUse">
<stop stop-color="#5B2484"/>
<stop offset="0.0652798" stop-color="#612588"/>
<stop offset="0.312" stop-color="#702795"/>
<stop offset="0.5961" stop-color="#79299D"/>
<stop offset="1" stop-color="#7C299F"/>
</linearGradient>
</defs>
</svg>
