<svg width="107" height="75" viewBox="0 0 107 75" fill="none" xmlns="http://www.w3.org/2000/svg">
<path d="M98.6036 35.9782L23.0284 71.0733C18.5847 73.1368 13.2907 71.2004 11.2271 66.7567L3.74237 50.6388C1.67883 46.1951 3.61525 40.901 8.05896 38.8375L83.6341 3.74235C88.0778 1.67881 93.3719 3.61523 95.4354 8.05894L102.92 24.1769C104.984 28.6206 103.047 33.9146 98.6036 35.9782Z" fill="#FF3C7D"/>
<path d="M83.6342 3.74224L45.8467 21.2898L60.8162 53.5256L98.6037 35.9781C103.047 33.9145 104.984 28.6205 102.92 24.1767L95.4356 8.05883C93.372 3.61512 88.078 1.6787 83.6342 3.74224Z" fill="#E50058"/>
<path d="M33.5063 36.8174C32.5174 37.2766 32.0878 38.451 32.547 39.4399L38.3685 51.976C38.8277 52.965 40.0021 53.3945 40.991 52.9353C41.9799 52.4761 42.4095 51.3017 41.9503 50.3128L36.1288 37.7766C35.6695 36.7875 34.4954 36.3581 33.5063 36.8174ZM28.5099 39.2074C27.4505 39.4652 26.7997 40.5326 27.0571 41.5922L28.7636 48.6172L23.6411 42.9344C22.9108 42.1247 21.6622 42.0593 20.8524 42.7899C20.3076 43.2811 20.1017 44.0063 20.2462 44.6753L21.2524 52.1069L16.9792 46.2466C16.3368 45.3654 15.1012 45.1709 14.2205 45.8145C13.3393 46.4569 13.1459 47.6921 13.7884 48.5732L21.9651 59.7869C22.0217 59.8647 22.0838 59.938 22.1511 60.0064C22.482 60.3433 22.909 60.5696 23.3736 60.6542C23.8382 60.7387 24.3176 60.6775 24.746 60.4788L24.7597 60.4725C25.1974 60.2654 25.5581 59.9247 25.7899 59.4996C26.0218 59.0745 26.1128 58.5868 26.0499 58.1066L24.9981 50.3377L30.2461 56.1598C30.5741 56.5189 31.0081 56.7642 31.485 56.8601C31.9618 56.956 32.4569 56.8974 32.8982 56.6929L32.9126 56.6863C33.3416 56.4831 33.6969 56.1515 33.9291 55.7374C34.1613 55.3233 34.259 54.8473 34.2087 54.3752C34.1996 54.2891 34.1845 54.2037 34.1642 54.1196L30.8948 40.6596C30.6374 39.6004 29.5695 38.9501 28.5099 39.2074ZM47.5468 30.2973L47.529 30.3056C46.5446 30.7745 46.1264 31.9527 46.5952 32.9374L49.8707 39.8155L40.7225 34.4347C40.3596 34.2213 39.938 34.1295 39.5192 34.1726C39.1005 34.2158 38.7064 34.3917 38.3947 34.6746C38.0829 34.9575 37.8697 35.3327 37.7863 35.7453C37.7028 36.158 37.7534 36.5865 37.9308 36.9684L43.7413 49.4811C44.2006 50.47 45.3749 50.8995 46.3638 50.4403C47.3528 49.9811 47.7823 48.8067 47.3231 47.8178L44.1803 41.05L52.8708 46.1616C53.7352 46.6687 54.7492 46.5827 55.4532 45.9436C56.1704 45.2921 56.3503 44.2608 55.9035 43.2988L50.1611 31.2395C49.6946 30.2607 48.5278 29.8418 47.5468 30.2973Z" fill="#FFF5F5"/>
<path d="M61.7037 23.7229L61.686 23.7311C60.7015 24.2 60.2833 25.3783 60.7521 26.363L64.0275 33.2409L54.8795 27.8603C54.5165 27.6469 54.0949 27.555 53.6761 27.5982C53.2574 27.6414 52.8633 27.8172 52.5516 28.1002C52.2398 28.3831 52.0266 28.7583 51.9432 29.1709C51.8597 29.5836 51.9103 30.0121 52.0877 30.3939L57.8982 42.9066C58.3574 43.8956 59.5318 44.3251 60.5207 43.8659C61.5097 43.4066 61.9392 42.2323 61.48 41.2434L58.3371 34.4754L67.0278 39.5871C67.8925 40.0941 68.9063 40.0082 69.6103 39.3691C70.3273 38.7176 70.5072 37.6864 70.0604 36.7243L64.318 24.665C63.8517 23.6862 62.6849 23.2673 61.7037 23.7229ZM74.1387 22.3025C75.1277 21.8433 75.5572 20.6689 75.098 19.68C74.6388 18.6911 73.4644 18.2615 72.4755 18.7208L67.1933 21.1737C66.2043 21.6329 65.7748 22.8073 66.234 23.7962L72.0555 36.3324C72.5147 37.3213 73.6891 37.7508 74.678 37.2916L79.9602 34.8387C80.9491 34.3795 81.3787 33.2051 80.9194 32.2162C80.4602 31.2272 79.2859 30.7977 78.2969 31.2569L74.8056 32.8782L73.5581 30.1919L76.66 28.7515C77.6489 28.2923 78.0784 27.1179 77.6192 26.129C77.16 25.1401 75.9856 24.7105 74.9967 25.1697L71.8949 26.6101L70.6474 23.9238L74.1387 22.3025ZM87.5512 23.609C89.2061 21.9694 89.7664 19.4601 88.7613 17.2957C87.4685 14.5117 84.0693 13.3369 81.1834 14.677L77.8481 16.2259C76.8592 16.6851 76.4296 17.8595 76.8889 18.8484L82.7103 31.3845C83.1696 32.3735 84.3439 32.803 85.3328 32.3438C86.3218 31.8845 86.7513 30.7102 86.2921 29.7213L84.9197 26.7659L90.484 29.213C90.7408 29.3263 91.0189 29.3834 91.2995 29.3805C91.5802 29.3776 91.857 29.3148 92.1114 29.1962C92.5471 28.9945 92.8939 28.6404 93.0866 28.2006C93.5256 27.2023 93.0723 26.0371 92.0741 25.5983L87.5512 23.609ZM82.8467 18.2588C83.742 17.843 84.8103 18.1638 85.1795 18.9589C85.5488 19.7541 85.1045 20.7772 84.2093 21.193C83.847 21.3612 83.2624 21.6355 82.6844 21.9069C82.4211 21.3469 81.587 19.56 81.3117 18.9714L82.8466 18.2586L82.8467 18.2588Z" fill="#D8F1FB"/>
</svg>
